<svg width="376" height="809" viewBox="0 0 376 809" fill="none" xmlns="http://www.w3.org/2000/svg">
<path d="M324.078 654.833L301.769 573.009L287.994 556.24L289.566 529.514L263.889 453.978L268.83 452.331L294.807 528.765L293.384 554.443L306.56 570.613L329.168 653.486L324.078 654.833Z" fill="#2F2873"/>
<path d="M265.237 699.152L258.274 677.367L263.59 668.833L301.47 675.645L327.447 650.417L336.955 656.78L339.5 678.041L319.062 696.831L265.237 699.152ZM263.964 678.115L268.98 693.762L316.966 691.666L333.96 676.019L332.014 659.849L328.046 657.229L303.117 681.409L266.135 674.747L263.964 678.115Z" fill="#2F2873"/>
<path d="M263.814 670.105C258.648 647.347 213.432 521.953 212.982 520.68L217.923 518.884C219.795 524.049 263.739 645.85 268.904 668.908L263.814 670.105Z" fill="#2F2873"/>
<path d="M226.158 486.768C229.228 493.655 231.998 500.617 234.768 507.579C236.19 511.098 237.463 514.616 238.81 518.06L242.703 528.615C245.248 535.653 247.719 542.764 249.965 549.876C252.211 556.988 254.531 564.175 256.927 571.287C261.718 585.511 266.509 599.66 271.6 613.809C274.145 620.846 276.69 627.883 279.46 634.845C280.808 638.363 282.23 641.807 283.728 645.251C284.476 646.973 285.225 648.694 286.123 650.341C286.947 651.988 287.845 653.635 288.968 655.133L288.594 655.507C287.321 654.084 286.348 652.438 285.449 650.791C284.476 649.144 283.653 647.497 282.829 645.775C281.182 642.406 279.61 638.962 278.038 635.519C274.969 628.631 272.124 621.744 269.279 614.782C263.664 600.857 258.349 586.783 253.109 572.709L245.173 551.598C242.553 544.561 240.083 537.449 237.837 530.337L234.543 519.557C233.495 515.964 232.372 512.37 231.399 508.777C229.378 501.515 227.431 494.254 225.784 486.917L226.158 486.768Z" fill="#2F2873"/>
<path d="M266.434 670.779L263.739 658.651L303.042 671.004L315.768 661.272L303.94 676.169L266.434 670.779Z" fill="#2F2873"/>
<path d="M179.145 702.071L173.904 701.323L185.882 618.226L198.684 542.241L226.308 479.581V472.619L272.872 444.097L274.968 418.494L280.209 418.943L277.813 447.241L231.548 475.613V480.629L203.774 543.738L191.123 619.049L179.145 702.071Z" fill="#2F2873"/>
<path d="M237.163 576.678C237.163 576.678 224.436 520.531 228.928 507.056L270.926 466.705L264.113 451.658L228.629 476.287L213.207 517.536L237.163 576.678Z" fill="#2F2873"/>
<path d="M132.88 593.971C126.816 574.956 133.254 505.334 133.479 502.339L138.719 502.863C138.645 503.612 132.131 574.432 137.821 592.399L132.88 593.971Z" fill="#2F2873"/>
<path d="M122.25 675.121C122.25 675.121 125.244 592.024 143.96 563.577C143.96 563.577 130.485 614.483 128.239 676.619L122.25 675.121Z" fill="#2F2873"/>
<path d="M166.344 727.974L131.608 717.194L117.609 708.136L113.491 681.56L125.17 671.902L145.981 695.11L161.628 696.532L181.765 699.901V724.381L166.344 727.974ZM133.854 712.403L166.494 722.584L176.525 720.263V704.318L160.879 701.697L143.511 700.125L124.646 679.164L119.106 683.731L122.475 705.066L133.854 712.403Z" fill="#2F2873"/>
<path d="M142.088 692.714H162.301L177.273 694.211L174.952 701.248L146.056 697.879L142.088 692.714Z" fill="#2F2873"/>
<path d="M165.296 487.966C165.745 494.853 166.044 501.666 166.269 508.553C166.419 511.997 166.494 515.44 166.568 518.884C166.643 522.328 166.718 525.771 166.793 529.215L166.943 539.546L167.018 549.877C167.092 556.764 167.092 563.577 167.018 570.464V571.362L166.494 572.036C163.799 575.555 161.029 579.073 158.259 582.517L158.783 581.169C158.109 588.057 157.36 594.869 156.537 601.756C155.788 608.644 154.89 615.456 153.992 622.269C153.542 625.712 153.093 629.081 152.644 632.525C152.195 635.968 151.746 639.337 151.222 642.781C150.174 649.593 149.2 656.406 147.928 663.218C148.077 656.331 148.452 649.369 148.751 642.481C148.901 639.038 149.2 635.594 149.35 632.15C149.575 628.707 149.799 625.263 150.024 621.819C150.473 614.932 150.997 608.045 151.596 601.157C152.195 594.27 152.794 587.383 153.468 580.57L153.542 579.822L153.992 579.223C156.687 575.704 159.457 572.261 162.226 568.742L161.927 570.314C162.002 563.427 162.152 556.614 162.301 549.727L162.601 539.471L162.975 529.215C163.125 525.771 163.2 522.328 163.424 518.959C163.574 515.515 163.724 512.071 163.948 508.703C164.323 501.666 164.697 494.853 165.296 487.966Z" fill="#2F2873"/>
<path d="M198.759 554.293C198.684 553.245 198.684 552.197 198.684 551.149C198.684 550.101 198.759 549.053 198.834 548.005C198.984 545.909 199.208 543.888 199.433 541.866L199.582 543.289C198.534 541.342 197.561 539.396 196.738 537.375C196.289 536.401 195.914 535.353 195.54 534.305C195.166 533.257 194.791 532.209 194.492 531.236L194.192 530.263L194.417 529.664C195.39 526.669 196.289 523.675 197.187 520.605C198.085 517.611 198.984 514.542 199.882 511.547C200.78 508.553 201.753 505.558 202.652 502.489C203.625 499.494 204.523 496.5 205.497 493.505L206.021 493.655C205.497 496.799 204.973 499.869 204.374 503.013C203.85 506.082 203.251 509.226 202.652 512.296C202.053 515.365 201.454 518.509 200.855 521.579C200.256 524.648 199.657 527.792 199.133 530.862L198.984 529.289C199.508 530.263 199.957 531.236 200.406 532.209C200.855 533.182 201.304 534.23 201.679 535.204C202.502 537.225 203.176 539.321 203.85 541.417L204.149 542.315L203.999 542.839C203.326 544.786 202.652 546.732 201.903 548.604C201.529 549.577 201.08 550.55 200.631 551.449C200.181 552.422 199.732 553.32 199.208 554.293H198.759Z" fill="#2F2873"/>
<path d="M154.815 239.798C156.387 248.706 157.585 257.615 158.633 266.524C159.681 275.432 160.654 284.341 161.478 293.249C162.376 302.158 163.2 311.067 164.323 319.825C164.622 321.996 164.921 324.167 165.371 326.264C165.445 326.788 165.595 327.312 165.745 327.761C165.82 327.985 165.895 328.285 165.969 328.509L166.194 329.258C166.568 330.306 166.943 331.429 167.242 332.552C167.916 334.723 168.44 336.969 168.814 339.215C168.964 340.338 169.114 341.461 169.189 342.658C169.189 343.257 169.189 343.781 169.189 344.38C169.189 344.979 169.114 345.503 168.964 346.102C168.889 344.979 168.59 343.856 168.29 342.808C167.991 341.76 167.616 340.712 167.242 339.664C166.419 337.568 165.52 335.621 164.547 333.6C164.098 332.627 163.574 331.654 163.05 330.606C162.9 330.381 162.825 330.082 162.676 329.782C162.526 329.483 162.451 329.183 162.301 328.884C162.077 328.285 161.927 327.761 161.702 327.162C161.029 324.916 160.505 322.67 159.98 320.424C158.109 311.516 157.061 302.532 156.237 293.624C155.414 284.64 154.815 275.657 154.516 266.673C154.366 257.84 154.291 248.856 154.815 239.798Z" fill="#2F2873"/>
<path d="M130.485 499.195C127.491 499.195 122.101 497.249 120.079 489.762C119.93 489.238 119.705 488.639 119.48 487.966C118.133 484.148 116.112 478.309 121.052 469.1C129.587 453.155 139.618 437.059 141.714 433.691V427.402L160.505 343.257L163.649 330.605L166.494 333.001L167.692 336.37L165.67 344.53L146.955 428.001V435.188L146.58 435.862C146.431 436.011 135.201 453.978 125.694 471.646C121.876 478.833 123.223 482.8 124.496 486.319C124.721 487.067 125.02 487.741 125.17 488.49C126.742 494.329 130.635 494.03 130.635 494.03L131.084 499.27C130.934 499.195 130.71 499.195 130.485 499.195Z" fill="#2F2873"/>
<path d="M160.28 432.942C160.28 434.963 160.205 436.985 160.13 439.006C160.055 441.027 159.98 443.048 159.831 445.07V444.621C160.28 446.193 160.804 447.84 161.253 449.412L162.601 454.203C163.499 457.422 164.322 460.641 165.221 463.86L165.445 464.609L164.996 465.507C164.247 467.154 163.424 468.726 162.601 470.298C161.777 471.87 160.954 473.442 160.13 475.015L158.857 477.335L157.51 479.656C156.612 481.228 155.638 482.725 154.74 484.223L155.039 482.725C155.189 484.971 155.339 487.217 155.489 489.463L151.671 488.115C151.895 487.891 152.045 487.816 152.195 487.666C152.344 487.517 152.494 487.442 152.719 487.292C153.018 487.067 153.392 486.918 153.767 486.693C154.515 486.319 155.264 486.094 156.162 486.019C156.986 485.87 157.884 485.944 158.708 486.169L159.007 486.244L159.232 486.319L159.756 486.468C160.055 486.543 160.429 486.693 160.729 486.843C161.403 487.142 162.076 487.442 162.75 487.966C163.424 488.49 164.173 489.238 164.472 490.361C164.622 490.96 164.622 491.559 164.547 492.083C164.472 492.607 164.247 493.056 164.023 493.506C163.574 494.254 163.05 494.853 162.526 495.302C161.478 496.275 160.355 496.949 159.232 497.623C158.109 498.297 156.911 498.821 155.638 499.195C154.366 499.569 153.018 499.869 151.671 499.869C150.997 499.869 150.323 499.794 149.574 499.719C149.2 499.644 148.901 499.569 148.526 499.495C148.377 499.42 148.152 499.42 148.002 499.345C147.778 499.27 147.703 499.195 147.403 499.12L147.179 498.97L147.029 498.821L140.591 491.035L140.366 490.736V490.436L139.917 482.576L139.543 474.715L140.067 474.64L141.19 482.501L142.238 490.361L142.013 489.837L149.05 497.024L148.676 496.725C148.676 496.725 148.826 496.799 148.901 496.799L149.275 496.874C149.5 496.949 149.799 496.949 150.024 497.024C150.548 497.099 151.072 497.099 151.596 497.024C152.644 496.949 153.692 496.65 154.665 496.275C155.713 495.901 156.686 495.377 157.585 494.778C158.558 494.179 159.456 493.506 160.13 492.757C160.504 492.383 160.729 492.008 160.879 491.784C160.954 491.634 160.954 491.559 160.954 491.484C160.954 491.409 160.954 491.409 160.954 491.409C160.954 491.409 160.954 491.335 160.879 491.335C160.804 491.26 160.654 491.185 160.579 491.035C160.28 490.81 159.831 490.661 159.381 490.511C159.157 490.436 158.932 490.361 158.633 490.286C158.408 490.212 158.109 490.137 157.959 490.137C157.585 490.062 157.21 490.062 156.911 490.137C156.537 490.212 156.162 490.361 155.863 490.586C155.713 490.661 155.489 490.81 155.339 490.96C155.264 491.035 155.189 491.11 155.114 491.185C155.039 491.26 154.965 491.335 154.965 491.335L151.147 489.987C150.847 487.741 150.473 485.495 150.099 483.249L149.949 482.725L150.323 481.902C151.147 480.33 151.97 478.683 152.794 477.111L154.066 474.715L155.414 472.394C156.312 470.822 157.21 469.325 158.184 467.753C159.157 466.256 160.055 464.684 161.028 463.186L160.804 464.833C160.205 461.539 159.531 458.32 158.932 455.026L158.034 450.085C157.734 448.439 157.51 446.792 157.21 445.145L157.136 444.845V444.695C157.51 442.749 157.959 440.728 158.333 438.781C158.783 436.835 159.232 434.814 159.681 432.867L160.28 432.942Z" fill="#2F2873"/>
<path d="M132.581 477.036C133.03 478.383 133.479 479.731 133.853 481.078L135.051 485.121L136.249 489.163L137.372 493.206L136.698 492.008C138.046 493.056 139.468 493.954 140.815 494.928C141.489 495.452 142.163 495.976 142.762 496.5C143.361 497.099 143.96 497.698 144.484 498.371L143.511 497.847C143.361 497.847 143.436 497.847 143.511 497.847C143.511 497.847 143.585 497.847 143.585 497.922C143.66 497.922 143.735 497.997 143.885 497.997C144.109 498.072 144.334 498.147 144.559 498.147C145.083 498.222 145.607 498.296 146.206 498.371C146.804 498.446 147.403 498.446 148.002 498.446C148.302 498.446 148.676 498.446 148.975 498.446C149.275 498.446 149.649 498.446 150.024 498.446L150.248 498.895C149.799 499.494 149.35 500.018 148.751 500.467C148.227 500.917 147.628 501.366 146.954 501.665C146.28 501.965 145.607 502.264 144.858 502.489C144.484 502.564 144.109 502.638 143.66 502.713C143.436 502.713 143.211 502.713 142.987 502.713C142.837 502.713 142.762 502.713 142.612 502.713C142.462 502.713 142.388 502.713 142.088 502.638L141.789 502.564L141.115 502.114C140.441 501.665 139.767 501.141 139.094 500.617C138.42 500.093 137.821 499.494 137.297 498.821C136.174 497.548 135.126 496.275 133.928 495.003L133.329 494.404L133.254 493.88L132.88 489.687L132.581 485.495L132.281 481.303C132.206 479.88 132.132 478.458 132.057 477.11L132.581 477.036Z" fill="#2F2873"/>
<path d="M127.34 478.608C128.014 481.303 128.538 483.998 129.062 486.768L129.886 490.81C130.11 492.158 130.335 493.505 130.634 494.928L130.035 493.655C131.233 494.703 132.506 495.676 133.779 496.65C135.051 497.623 136.174 498.746 137.222 499.944L136.698 499.569C136.623 499.569 136.698 499.569 136.698 499.569C136.698 499.569 136.698 499.569 136.773 499.644C136.773 499.644 136.848 499.719 136.923 499.719C136.998 499.794 137.147 499.869 137.222 499.869C137.447 500.019 137.671 500.093 137.896 500.243C138.345 500.468 138.869 500.617 139.468 500.767C140.067 500.842 140.666 500.992 141.34 500.992C142.013 501.067 142.762 500.917 143.511 500.917L143.81 501.366C143.436 502.115 142.837 502.714 142.163 503.238C141.489 503.762 140.666 504.211 139.842 504.51C138.944 504.81 138.046 504.885 137.072 504.885C136.623 504.885 136.099 504.81 135.65 504.735C135.426 504.66 135.201 504.585 134.901 504.51C134.752 504.51 134.677 504.435 134.527 504.361L134.303 504.286C134.228 504.286 134.153 504.211 134.003 504.136L133.479 503.687C132.206 502.714 131.158 501.516 130.185 500.243C129.212 498.97 128.239 497.698 127.191 496.5L126.592 495.826V495.227C126.592 493.88 126.592 492.457 126.592 491.11L126.667 486.918C126.742 484.148 126.742 481.378 126.891 478.608H127.34Z" fill="#2F2873"/>
<path d="M160.129 447.54L158.932 443.797L159.081 437.883L199.133 356.433C198.085 353.663 195.764 346.476 196.363 340.562C197.111 333.675 196.288 292.201 193.443 280.822L198.534 279.549C201.678 291.976 202.352 334.423 201.603 341.086C200.929 347.075 204.373 355.46 204.448 355.534L204.897 356.657L204.373 357.705L160.129 447.54Z" fill="#2F2873"/>
<path d="M165.895 269.368C175.627 272.063 190.824 277.453 203.101 287.335C203.101 287.335 176.151 252.898 140.217 261.882C140.217 261.882 138.72 270.865 156.687 281.346L156.238 272.587C158.109 271.764 162.152 270.042 165.895 269.368Z" fill="#2F2873"/>
<path d="M253.259 383.159C251.013 383.308 251.836 382.56 249.516 382.41C248.842 382.335 244.949 390.72 244.275 390.645C243.601 390.57 246.446 380.763 245.772 380.913C233.046 383.159 219.047 376.945 218.073 371.181C217.999 370.657 215.079 386.153 215.079 386.153L213.582 370.432L210.587 198.249L217.325 195.255V185.523C205.347 184.025 215.828 150.337 203.101 151.835C190.374 153.332 170.162 170.55 170.162 170.55C142.463 192.26 140.217 262.631 140.217 262.631C173.905 259.636 195.914 284.64 195.914 284.64L198.609 344.979L201.604 360.7L160.43 446.043C160.43 446.043 168.664 437.059 176.151 444.546C183.637 452.032 212.833 431.07 212.833 431.07C212.833 430.996 197.861 435.637 197.861 435.562C195.914 431.669 190.225 432.942 190.225 428.226C190.225 412.43 203.026 399.628 218.822 399.628C225.859 399.628 232.372 402.174 237.313 406.441C245.997 407.115 254.007 407.115 254.007 407.115L253.259 383.159Z" fill="#2F2873"/>
<path d="M222.939 175.416L234.169 168.679L238.661 172.422L222.939 175.416Z" fill="#2F2873"/>
<path d="M202.353 151.835L218.822 145.097L230.8 149.589L248.018 146.595C248.018 146.595 243.527 143.6 248.018 144.349C252.51 145.097 275.717 153.332 281.706 164.561L240.532 173.545L202.353 151.835Z" fill="#2F2873"/>
<path d="M155.938 374.924L155.189 342.733L159.606 302.981L164.922 333.75L155.938 374.924Z" fill="#2F2873"/>
<path d="M250.339 154.53L241.206 147.193L237.163 128.627L237.463 127.879C237.537 127.729 242.853 113.505 247.569 97.1852C255.355 70.3846 255.579 58.8558 254.456 53.9149C250.563 37.3704 232.447 24.4192 214.854 25.6919C197.861 26.9645 175.851 46.7281 172.707 70.3846L174.728 81.1647L174.653 81.6139C173.455 87.9772 171.135 105.794 174.429 112.233C176.525 116.35 176.6 124.435 176.001 129.301C174.953 137.461 174.953 140.755 179.894 141.878C181.017 141.803 184.46 141.803 188.203 142.177C194.941 142.926 198.16 141.878 199.657 145.097L194.866 147.268C193.818 145.022 186.407 146.744 179.744 147.118H179.444L179.145 147.043C168.664 144.872 169.937 135.44 170.835 128.552C171.359 124.435 171.21 117.248 169.787 114.553C167.691 110.511 167.017 103.474 167.841 93.7416C168.29 87.7526 169.188 82.662 169.413 81.015L167.392 70.3846L167.466 70.0103C170.686 43.2845 194.941 21.7242 214.48 20.3018C223.913 19.628 234.094 22.5477 242.553 28.4618C251.312 34.6005 257.376 43.1347 259.547 52.5674C263.739 70.6092 245.248 121.815 242.628 128.852L245.997 144.049L253.708 150.262L250.339 154.53Z" fill="#2F2873"/>
<path d="M169.038 74.9512C169.038 74.9512 166.643 79.9669 168.964 86.2554C171.434 92.9181 169.038 74.9512 169.038 74.9512Z" fill="#2F2873"/>
<path d="M171.808 75.9243L171.958 106.768L168.814 107.965C161.627 104.297 162.675 101.377 164.397 98.5327C166.193 95.6879 167.316 91.2711 168.963 89.9235C170.61 88.576 170.086 86.2553 170.086 86.2553L169.338 77.9456L171.808 75.9243Z" fill="#2F2873"/>
<path d="M197.112 153.856C196.363 153.182 195.914 152.508 195.54 151.76C195.165 151.086 194.941 150.412 194.791 149.664C194.641 148.99 194.641 148.316 194.791 147.567C194.941 146.894 195.165 146.22 195.315 145.471L195.689 143.375L196.139 141.279C196.438 139.932 196.812 138.509 197.187 137.162H197.711C198.16 138.509 198.459 139.932 198.759 141.279L199.208 143.375L199.582 145.471C199.657 146.145 199.882 146.819 200.106 147.567C200.256 148.241 200.256 148.915 200.106 149.664C199.956 150.337 199.732 151.011 199.358 151.76C198.983 152.433 198.534 153.107 197.785 153.856H197.112Z" fill="#2F2873"/>
<path d="M178.92 144.873C177.872 144.498 176.899 143.899 176.001 143.076C175.552 142.627 175.177 142.103 174.878 141.354C174.728 140.98 174.653 140.531 174.653 140.081C174.653 139.632 174.803 139.108 175.028 138.584C175.477 137.686 176.151 137.087 176.749 136.638C177.348 136.189 178.022 135.964 178.621 135.739C179.819 135.29 180.942 135.066 182.065 134.916C182.364 134.841 182.589 134.841 182.888 134.841L183.637 134.766L185.059 134.617L187.904 134.392C189.85 134.242 191.797 134.018 193.743 133.568C195.69 133.119 197.561 132.52 199.433 131.847C201.304 131.173 203.101 130.424 204.898 129.451C206.619 128.553 207.593 124.435 209.015 123.163C209.764 122.489 210.437 121.815 211.036 120.992C211.635 120.243 212.159 119.345 212.534 118.446L213.058 118.596C212.683 120.692 211.635 122.639 210.288 124.286C208.94 125.933 208.117 130.424 206.395 131.697C202.951 134.242 199.133 136.189 195.091 137.611C193.069 138.36 191.048 139.033 188.877 139.557C187.829 139.782 186.706 140.007 185.658 140.081C185.134 140.156 184.535 140.156 184.011 140.156C183.712 140.156 183.487 140.156 183.262 140.156H182.589C181.69 140.156 180.717 140.156 179.969 140.231C179.594 140.231 179.22 140.306 178.92 140.381C178.621 140.456 178.471 140.531 178.396 140.456C178.322 140.381 178.172 140.381 178.097 140.68C178.022 140.905 178.097 141.354 178.247 141.803C178.471 142.702 178.995 143.6 179.444 144.498L178.92 144.873Z" fill="#2F2873"/>
<path d="M215.902 94.3403C216.95 95.3135 217.998 96.2119 219.121 97.0354C219.645 97.4845 220.169 97.8589 220.768 98.1583C221.292 98.4578 221.816 98.7572 222.191 98.7572C222.266 98.7572 222.34 98.7572 222.415 98.7572C222.49 98.7572 222.49 98.6823 222.49 98.6823C222.49 98.6075 222.415 98.6075 222.34 98.5326C222.266 98.5326 222.191 98.4578 222.041 98.4578C221.966 98.4578 221.891 98.4578 221.816 98.4578C221.816 98.4578 221.742 98.4578 221.816 98.4578C221.816 98.3829 221.891 98.3829 221.891 98.308C221.966 98.2332 222.041 98.1583 222.041 98.0834C222.116 98.0086 222.191 97.9337 222.266 97.784L222.565 97.4845C222.715 97.26 222.939 97.0354 223.239 96.7359C223.763 96.2119 224.287 95.613 225.11 95.0141L225.634 95.089C226.308 95.8376 226.682 96.6611 226.907 97.4845C227.057 97.9337 227.057 98.308 227.057 98.7572C227.057 99.2064 227.057 99.6555 226.907 100.18C226.832 100.404 226.757 100.629 226.682 100.928C226.533 101.228 226.383 101.452 226.233 101.677C226.009 101.976 225.784 102.201 225.485 102.425C225.11 102.65 224.886 102.875 224.437 103.024C223.613 103.399 222.715 103.399 221.966 103.174C221.292 103.024 220.693 102.725 220.319 102.425C218.597 101.303 217.849 99.955 217.1 98.6075C216.426 97.26 215.827 95.9124 215.453 94.4901L215.902 94.3403Z" fill="#2F2873"/>
<path d="M214.555 78.6195C214.704 77.8709 215.004 77.272 215.378 76.6731C215.753 76.0742 216.202 75.5502 216.801 75.0262C217.1 74.8016 217.474 74.577 217.923 74.3524C218.373 74.2027 218.972 73.9781 219.87 74.053C220.095 74.053 220.394 74.2027 220.619 74.2775C220.843 74.4273 221.143 74.5021 221.367 74.7267C221.592 74.8764 221.816 75.101 221.966 75.3256C222.041 75.4005 222.116 75.5502 222.191 75.6251C222.265 75.6999 222.34 75.8496 222.34 75.9245C222.415 75.9994 222.415 76.1491 222.49 76.224L222.565 76.5234C222.64 76.6731 222.715 76.8977 222.715 77.0474L222.79 77.4966V77.6463C223.014 78.395 223.089 79.5928 223.164 80.7157C223.239 81.3146 223.239 81.9135 223.239 82.5872C223.164 83.261 223.014 83.9348 222.864 84.6085C222.715 85.2823 222.565 85.956 222.34 86.7047C222.191 87.079 222.041 87.4533 221.741 87.8276C221.442 88.2019 220.993 88.5014 220.619 88.6511C220.095 88.8008 220.02 88.8757 220.02 89.0254C220.02 89.1002 220.094 89.1002 220.319 89.0254C220.469 88.9505 220.619 88.7259 220.693 88.6511C220.843 88.4265 220.918 88.5014 221.143 88.5762C221.292 88.6511 221.517 88.8008 221.667 88.9505C222.041 89.25 222.34 89.6991 222.64 90.298C222.79 90.5975 222.939 90.8969 223.089 91.3461C223.164 91.5707 223.239 91.7953 223.314 92.1696C223.314 92.3942 223.388 92.6188 223.388 92.9182C223.388 93.2177 223.239 93.7417 222.939 94.1909C222.864 94.116 222.715 94.1909 222.565 94.4155C222.49 94.5652 222.34 94.7149 222.191 94.8646C222.041 95.0892 221.891 95.3887 221.292 95.763C220.993 95.9127 220.619 95.9876 220.319 95.9876C220.02 95.9876 219.87 95.8378 219.72 95.763C219.421 95.6133 219.346 95.3887 219.196 95.2389C218.972 94.8646 218.897 94.4903 218.822 94.116L219.196 93.7417C219.57 93.7417 219.945 93.7417 220.169 93.7417C220.319 93.7417 220.394 93.6668 220.394 93.592C220.394 93.5171 220.319 93.5171 220.244 93.4423C220.095 93.3674 219.87 93.4423 219.72 93.5171C219.346 93.6668 219.346 93.8166 219.271 93.7417C219.196 93.6668 219.196 93.592 219.196 93.3674C219.196 93.0679 219.196 92.6188 219.496 92.0199C219.271 92.3193 219.196 92.6936 219.196 92.8434C219.196 92.9931 219.196 93.1428 219.196 93.2177C219.196 93.2925 219.196 93.2925 219.121 93.2925C219.046 93.2177 218.897 92.9931 218.747 92.8434C218.448 92.469 218.073 91.945 217.849 91.2712C217.699 90.9718 217.624 90.5975 217.549 90.1483C217.474 89.6991 217.399 89.25 217.549 88.4265C217.624 88.0522 217.849 87.5281 218.223 87.2287C218.597 86.9292 218.972 86.7795 219.196 86.7795C219.72 86.7047 220.169 86.7795 220.244 86.8544C220.544 86.9292 220.693 86.7795 220.693 86.3303C220.693 85.8812 220.469 85.432 220.169 84.908C219.87 84.4588 219.496 84.0096 219.196 83.4856C218.897 83.0364 218.672 82.5124 218.448 81.9135C217.998 80.8654 217.399 79.7425 217.325 78.1704V77.8709C217.325 77.7961 217.325 77.8709 217.325 77.8709C217.325 77.8709 217.325 77.9458 217.399 77.9458C217.399 77.9458 217.399 78.0207 217.474 78.0207C217.474 78.0955 217.474 78.0955 217.549 78.1704L217.624 78.2452C217.624 78.3201 217.699 78.3201 217.774 78.395C217.849 78.4698 217.998 78.6196 218.073 78.6944C218.223 78.7693 218.298 78.8441 218.448 78.919C218.522 78.9939 218.672 78.9939 218.747 78.9939C219.121 78.9939 219.121 78.8441 218.972 78.8441C218.897 78.7693 218.672 78.7693 218.448 78.7693C217.998 78.7693 217.399 78.8441 216.801 78.8441C216.202 78.919 215.528 78.9939 214.854 78.9939L214.555 78.6195Z" fill="#2F2873"/>
<path d="M181.69 42.3113C181.69 42.3113 191.497 78.9189 213.881 72.7053C236.265 66.4918 214.854 104.522 242.404 122.788C242.404 122.788 272.798 52.5674 243.227 35.1994C213.657 17.7565 216.876 16.0347 181.69 42.3113Z" fill="#2F2873"/>
<path d="M266.256 40.4937C272.486 34.4455 271.115 22.9292 263.195 14.7713C255.274 6.61339 243.804 4.90314 237.574 10.9513C231.344 16.9996 232.715 28.5159 240.635 36.6738C248.555 44.8317 260.026 46.5419 266.256 40.4937Z" fill="#2F2873"/>
<path d="M173.081 79.0688C173.081 79.0688 177.498 80.1918 178.172 81.0153C178.172 81.0153 174.878 84.4589 172.632 84.2343L173.081 79.0688Z" fill="#2F2873"/>
<path d="M169.638 74.0528C169.862 73.1544 170.386 72.5555 170.91 72.1064C171.434 71.6572 172.108 71.4326 172.707 71.2829C173.006 71.208 173.306 71.208 173.605 71.208C173.905 71.2829 174.204 71.3577 174.504 71.5075C175.028 71.8069 175.552 72.1064 176.076 72.4058C176.6 72.6304 177.049 72.9298 177.498 73.2293C177.947 73.5287 178.397 73.903 178.771 74.2025C179.145 74.5768 179.52 74.9511 179.894 75.3254C180.268 75.6997 180.568 76.1489 180.867 76.5232L180.642 76.9724C180.118 76.8975 179.594 76.8227 179.145 76.7478L177.648 76.5232C177.199 76.4484 176.675 76.3735 176.226 76.3735C175.776 76.2986 175.327 76.2986 174.878 76.2986C174.429 76.2986 173.98 76.4484 173.605 76.5232C173.156 76.5981 172.857 76.5981 172.482 76.4484C171.734 76.074 171.135 75.55 169.862 74.4271L169.638 74.0528Z" fill="#2F2873"/>
<path d="M172.856 110.211L177.573 115.901C177.573 115.901 176.375 128.628 174.653 129.301L172.856 110.211Z" fill="#2F2873"/>
<path d="M170.685 114.104C170.685 114.104 168.889 127.504 172.407 130.124L170.685 114.104Z" fill="#2F2873"/>
<path d="M290.689 696.831C290.689 696.831 297.427 704.317 294.433 711.055C291.438 717.793 293.684 720.039 293.684 720.039C293.684 720.039 307.908 737.257 316.143 726.027C324.377 714.798 325.875 714.05 325.126 708.061C324.377 702.072 318.388 696.831 319.137 694.585C319.886 692.34 290.689 696.831 290.689 696.831Z" fill="#2F2873"/>
<path d="M312.699 760.464C305.587 760.464 297.502 759.566 289.192 757.02C278.786 753.801 269.503 752.978 262.092 752.304C252.21 751.481 244.424 750.732 239.933 744.818C239.409 744.069 238.81 743.321 238.286 742.647C231.773 734.113 223.688 723.557 234.243 713.001L234.617 712.627L235.141 712.403C238.735 710.98 250.189 706.788 256.028 709.782L264.263 707.911L285.299 694.361L285.823 694.286C286.347 694.211 290.914 693.612 294.507 696.756C297.202 699.077 298.55 702.596 298.55 707.387C298.55 716.819 289.791 723.557 274.594 725.728C270.177 726.327 267.557 728.198 267.557 728.198L266.509 728.947L265.311 728.648C264.263 728.348 255.279 725.803 252.809 719.814C252.285 718.466 251.836 716.52 252.584 714.199C249.889 713.75 244.05 714.648 237.537 717.194C231.249 723.856 235.216 730.145 242.403 739.577C243.002 740.326 243.526 741.075 244.125 741.823C247.194 745.866 253.632 746.465 262.541 747.213C270.252 747.887 279.834 748.711 290.764 752.154C310.528 758.368 329.543 753.876 334.409 752.529L339.649 738.155C337.029 729.546 332.612 715.846 331.19 713.376C330.216 711.729 326.099 710.905 323.703 710.905H321.982L321.308 709.258L315.693 695.409L320.559 693.462L325.575 705.74C328.345 705.964 333.51 707.012 335.756 710.681C338.077 714.574 344.29 735.161 345.039 737.481L345.264 738.305L338.526 756.796L337.328 757.17C336.58 757.17 326.473 760.464 312.699 760.464ZM257.9 714.723C257.151 716.221 257.375 717.119 257.6 717.718C258.648 720.338 263.14 722.359 265.61 723.183C267.108 722.359 269.952 721.012 273.845 720.488C279.684 719.664 293.309 716.67 293.309 707.387C293.309 704.243 292.561 701.997 291.063 700.724C289.716 699.526 287.844 699.451 287.021 699.451L266.209 712.852L257.9 714.723Z" fill="#2F2873"/>
<path d="M314.196 749.534C310.827 749.534 307.159 749.16 303.266 748.486C270.252 742.497 269.204 742.572 255.953 743.32C241.055 744.144 230.5 726.327 230.051 725.578L234.543 722.958C234.617 723.108 243.9 738.754 255.654 738.155C269.503 737.406 271.375 737.481 304.164 743.47C315.319 745.491 323.928 744.369 329.617 740.101C335.457 735.759 336.28 729.546 336.28 729.246L341.521 729.77C341.521 730.145 340.547 738.38 332.911 744.144C328.12 747.663 321.832 749.534 314.196 749.534Z" fill="#2F2873"/>
<path d="M250.788 735.759C249.965 735.759 249.066 735.684 248.243 735.535C237.463 733.963 230.95 722.584 230.65 722.059L235.217 719.514C235.292 719.589 240.757 729.171 248.992 730.369C253.483 731.043 258.2 729.022 262.991 724.455L266.584 728.198C261.494 733.289 256.178 735.759 250.788 735.759Z" fill="#2F2873"/>
<path d="M322.506 737.107C318.463 737.182 314.57 736.957 310.678 736.808C306.86 736.733 303.042 736.583 299.673 737.107C298.775 737.257 298.325 737.406 296.903 737.706C296.304 737.856 295.705 737.856 295.031 737.931C294.433 738.005 293.759 737.931 293.16 737.856C290.615 737.481 288.294 736.134 286.797 734.187C285.299 732.241 284.551 729.845 284.7 727.6C284.775 727.001 284.85 726.477 285 725.953C285.224 725.429 285.374 724.905 285.599 724.455C285.898 724.006 286.123 723.557 286.422 723.108C286.797 722.733 287.096 722.284 287.47 721.985C286.946 723.931 286.871 725.878 287.321 727.525C287.77 729.172 288.668 730.519 289.866 731.492L290.091 731.717L290.315 731.867L290.764 732.166C291.064 732.316 291.438 732.466 291.738 732.615C292.112 732.69 292.411 732.84 292.786 732.915L293.31 732.99L293.534 733.064H293.834C295.331 733.139 296.304 732.69 298.924 732.166C301.17 731.792 303.266 731.867 305.288 732.016C307.384 732.166 309.33 732.54 311.351 732.99C315.169 733.738 318.987 735.011 322.506 737.107Z" fill="#2F2873"/>
<path d="M143.286 751.78C139.318 751.031 135.5 750.133 131.757 749.235C128.014 748.411 124.271 747.513 120.902 747.363C120.004 747.363 119.48 747.363 118.057 747.438C117.458 747.438 116.785 747.363 116.186 747.288C115.587 747.213 114.988 746.989 114.389 746.839C111.993 746.016 109.972 744.219 108.849 742.048C107.726 739.877 107.502 737.332 108.101 735.161C108.25 734.637 108.475 734.113 108.699 733.588C108.999 733.139 109.223 732.615 109.523 732.166C109.897 731.792 110.197 731.343 110.571 730.968C111.02 730.669 111.394 730.295 111.769 729.995C110.87 731.867 110.421 733.663 110.571 735.385C110.721 737.107 111.32 738.604 112.293 739.727L112.442 739.952L112.667 740.176L113.041 740.551C113.341 740.775 113.64 741 113.865 741.224C114.164 741.374 114.464 741.599 114.838 741.674L115.362 741.823L115.587 741.898L115.811 741.973C117.234 742.347 118.282 742.048 120.977 742.048C123.223 742.123 125.244 742.572 127.265 743.096C129.286 743.695 131.158 744.369 133.03 745.192C136.698 747.064 140.216 749.085 143.286 751.78Z" fill="#2F2873"/>
<path d="M321.907 731.567C321.083 729.546 320.709 727.6 320.559 725.728C320.41 723.782 320.484 721.91 320.709 720.039C320.934 718.167 321.383 716.295 321.982 714.499C322.655 712.702 323.404 710.905 324.752 709.184C325.575 711.205 325.949 713.151 326.099 715.023C326.249 716.969 326.174 718.841 325.949 720.712C325.725 722.584 325.276 724.381 324.677 726.252C324.003 728.049 323.254 729.846 321.907 731.567Z" fill="#2F2873"/>
<path d="M162.451 748.037C161.627 746.015 161.253 744.069 161.103 742.197C160.954 740.251 161.028 738.379 161.253 736.508C161.478 734.636 161.927 732.765 162.526 730.968C163.199 729.171 163.948 727.375 165.296 725.653C166.119 727.674 166.493 729.621 166.643 731.492C166.793 733.438 166.718 735.31 166.493 737.182C166.269 739.053 165.82 740.85 165.221 742.721C164.547 744.518 163.798 746.315 162.451 748.037Z" fill="#2F2873"/>
<path d="M236.789 732.016L244.275 746.989L295.93 755.223L334.858 756.346L341.297 734.337L325.126 743.994L286.198 745.491L242.029 736.508L236.789 732.016Z" fill="#2F2873"/>
<path d="M269.579 707.612C269.429 708.36 269.355 709.109 269.205 709.858C269.055 710.606 268.905 711.28 268.756 712.028C268.606 712.777 268.456 713.451 268.306 714.2C268.157 714.948 267.932 715.622 267.782 716.37L267.408 714.274C268.082 714.873 268.756 715.397 269.504 715.921C270.253 716.445 270.927 716.969 271.376 717.718C271.825 718.467 272.274 719.215 272.574 720.114C272.873 721.012 273.098 721.985 273.023 723.183L272.648 723.557C271.451 723.482 270.552 723.108 269.654 722.734C268.831 722.359 268.082 721.835 267.408 721.311C266.734 720.713 266.285 720.039 265.836 719.215C265.387 718.392 264.938 717.718 264.489 716.969L263.665 715.697L264.189 714.873C264.563 714.274 264.938 713.601 265.387 713.002C265.761 712.403 266.21 711.729 266.585 711.13C267.034 710.531 267.408 709.932 267.857 709.259C268.306 708.66 268.756 708.061 269.205 707.462L269.579 707.612Z" fill="#2F2873"/>
<path d="M276.316 705.366C276.167 706.114 276.092 706.863 275.942 707.611C275.792 708.36 275.643 709.034 275.493 709.782C275.343 710.531 275.193 711.205 275.044 711.953C274.894 712.702 274.669 713.376 274.52 714.124L274.145 712.028C274.819 712.627 275.493 713.151 276.242 713.675C276.99 714.199 277.664 714.723 278.113 715.472C278.562 716.221 279.011 716.969 279.311 717.867C279.61 718.766 279.835 719.739 279.76 720.937L279.386 721.311C278.188 721.236 277.29 720.862 276.391 720.488C275.568 720.113 274.819 719.589 274.145 719.065C273.472 718.466 273.022 717.793 272.573 716.969C272.124 716.146 271.675 715.472 271.226 714.723L270.402 713.451L270.926 712.627C271.301 712.028 271.675 711.354 272.124 710.756C272.498 710.157 272.948 709.483 273.322 708.884C273.771 708.285 274.145 707.686 274.595 707.012C275.044 706.414 275.493 705.815 275.942 705.216L276.316 705.366Z" fill="#2F2873"/>
<path d="M282.306 702.371C282.156 703.12 282.081 703.868 281.931 704.617C281.782 705.365 281.632 706.039 281.482 706.788C281.332 707.536 281.183 708.21 281.033 708.959C280.883 709.707 280.659 710.381 280.509 711.13L280.135 709.034C280.808 709.633 281.482 710.157 282.231 710.681C282.979 711.205 283.653 711.729 284.102 712.477C284.552 713.226 285.001 713.975 285.3 714.873C285.6 715.771 285.824 716.744 285.749 717.942L285.375 718.317C284.177 718.242 283.279 717.867 282.381 717.493C281.557 717.119 280.808 716.595 280.135 716.071C279.461 715.472 279.012 714.798 278.563 713.975C278.113 713.151 277.664 712.477 277.215 711.729L276.392 710.456L276.916 709.633C277.29 709.034 277.664 708.36 278.113 707.761C278.488 707.162 278.937 706.488 279.311 705.889C279.76 705.291 280.135 704.692 280.584 704.018C281.033 703.419 281.482 702.82 281.931 702.221L282.306 702.371Z" fill="#2F2873"/>
<path d="M104.358 708.659C103.984 709.333 103.61 709.932 103.16 710.531C102.786 711.129 102.337 711.803 101.963 712.402C101.588 713.001 101.139 713.6 100.69 714.199C100.241 714.798 99.7916 715.397 99.4173 715.995L99.8664 713.974C100.241 714.723 100.69 715.546 101.214 716.295C101.738 717.044 102.112 717.792 102.337 718.691C102.487 719.514 102.561 720.412 102.487 721.386C102.412 722.359 102.262 723.332 101.738 724.38L101.214 724.53C100.166 724.006 99.4173 723.332 98.7435 722.658C98.0698 721.984 97.6206 721.236 97.1714 720.487C96.7971 719.739 96.5725 718.84 96.4976 717.942C96.4228 717.044 96.2731 716.22 96.0485 715.322L95.749 713.824L96.4976 713.226C97.0965 712.776 97.6954 712.327 98.2943 711.953C98.8932 711.504 99.4921 711.129 100.091 710.68C100.69 710.306 101.289 709.857 101.963 709.482C102.561 709.108 103.235 708.659 103.834 708.285L104.358 708.659Z" fill="#2F2873"/>
<path d="M111.394 709.108C111.02 709.782 110.646 710.381 110.197 710.98C109.822 711.579 109.373 712.252 108.999 712.851C108.624 713.45 108.175 714.049 107.726 714.648C107.277 715.247 106.828 715.846 106.453 716.445L106.903 714.423C107.277 715.172 107.726 715.995 108.25 716.744C108.774 717.493 109.148 718.241 109.373 719.14C109.523 719.963 109.598 720.862 109.523 721.835C109.448 722.808 109.298 723.781 108.774 724.829L108.25 724.979C107.202 724.455 106.453 723.781 105.78 723.107C105.106 722.434 104.657 721.685 104.208 720.936C103.833 720.188 103.609 719.289 103.534 718.391C103.459 717.493 103.309 716.669 103.085 715.771L102.785 714.274L103.534 713.675C104.133 713.226 104.732 712.776 105.33 712.402C105.929 711.953 106.528 711.579 107.127 711.129C107.726 710.755 108.325 710.306 108.999 709.932C109.598 709.557 110.271 709.108 110.87 708.734L111.394 709.108Z" fill="#2F2873"/>
<path d="M118.057 708.585C117.683 709.259 117.309 709.857 116.86 710.456C116.485 711.055 116.036 711.729 115.662 712.328C115.288 712.927 114.838 713.526 114.389 714.125C113.94 714.723 113.491 715.322 113.116 715.921L113.566 713.9C113.94 714.649 114.389 715.472 114.913 716.221C115.437 716.969 115.812 717.718 116.036 718.616C116.186 719.44 116.261 720.338 116.186 721.311C116.111 722.285 115.961 723.258 115.437 724.306L114.913 724.456C113.865 723.932 113.116 723.258 112.443 722.584C111.769 721.91 111.32 721.162 110.871 720.413C110.496 719.664 110.272 718.766 110.197 717.868C110.122 716.969 109.972 716.146 109.748 715.247L109.448 713.75L110.197 713.151C110.796 712.702 111.395 712.253 111.994 711.879C112.592 711.429 113.191 711.055 113.79 710.606C114.389 710.232 114.988 709.783 115.662 709.408C116.261 709.034 116.934 708.585 117.533 708.21L118.057 708.585Z" fill="#2F2873"/>
<path d="M129.361 716.669L125.618 723.407C125.618 723.407 144.334 745.866 151.071 744.368C157.809 742.871 165.295 732.39 165.295 732.39L166.044 725.653L129.361 716.669Z" fill="#2F2873"/>
<path d="M157.66 782.773C146.131 782.773 127.79 780.003 110.796 765.405C99.2674 755.523 92.1555 752.903 86.3911 750.806C79.354 748.186 74.2634 746.39 68.1996 733.064C62.8095 721.236 61.5368 713.226 64.157 707.836C65.804 704.542 68.7985 702.446 73.3651 701.323C80.5518 699.601 85.7173 703.119 88.1129 704.766C88.3375 704.916 88.6369 705.141 88.8615 705.29C91.4068 704.991 100.091 704.018 105.631 705.44C109.673 706.413 115.288 703.868 117.159 702.745L119.854 707.237C119.48 707.461 111.32 712.252 104.433 710.531C99.0428 709.183 89.0861 710.606 88.9364 710.606H88.5621C87.3643 710.606 86.3911 709.932 85.1933 709.108C82.9474 707.536 79.5786 705.215 74.6377 706.413C71.6432 707.162 69.8465 708.285 68.9482 710.156C67.1515 713.899 68.499 720.862 73.0656 730.893C78.2311 742.197 81.5999 743.395 88.2626 745.866C94.1019 748.037 102.037 750.956 114.315 761.437C136.025 780.078 160.729 777.757 166.793 776.859L169.788 768.474L166.868 752.977L169.713 736.658L163.2 730.145L166.943 726.476L175.402 734.936L172.258 753.052L175.327 768.998L170.836 781.5L169.413 781.799C168.739 781.874 164.397 782.773 157.66 782.773Z" fill="#2F2873"/>
<path d="M156.986 774.838C145.831 774.838 132.506 771.02 124.795 765.181C120.004 761.512 103.085 749.085 87.3639 743.845C81.0755 741.749 75.3111 735.236 70.2953 724.53C66.7019 716.82 64.7555 709.857 64.6807 709.558L69.7713 708.21C71.7926 715.622 79.1291 735.535 89.0109 738.904C105.031 744.219 121.576 756.122 127.939 760.988C137.297 768.1 154.665 771.02 164.023 768.849C166.942 768.175 168.964 767.052 169.637 765.63L174.354 767.95C172.931 770.87 169.862 772.891 165.221 773.939C162.75 774.538 159.905 774.838 156.986 774.838Z" fill="#2F2873"/>
<path d="M112.143 729.022C102.935 729.022 90.6579 724.53 86.9148 719.814C83.546 715.621 85.7919 710.231 87.5886 707.686L91.8557 710.755L89.7596 709.258L91.9306 710.755C91.9306 710.755 89.3853 714.499 91.1071 716.595C93.4278 719.439 103.759 723.856 112.293 723.856C120.827 723.856 129.511 721.685 129.661 721.685L130.934 726.776C130.335 726.776 121.351 729.022 112.143 729.022Z" fill="#2F2873"/>
<path d="M70.2211 721.161L84.445 740.775L146.73 772.442L170.536 771.319L166.718 780.976C166.718 780.976 137.447 784.345 118.058 768.1C98.6688 751.855 69.4725 751.855 70.2211 721.161Z" fill="#2F2873"/>
<path d="M59.3659 718.541C59.3659 718.541 11.0798 718.466 16.6945 744.743C24.1807 779.928 63.109 767.201 81.076 771.693C99.0429 776.185 113.267 802.387 146.955 800.141C180.643 797.895 185.134 791.906 222.565 792.655C259.997 793.403 335.158 819.231 353.574 803.884C406.726 759.715 345.339 741 345.339 741L339.35 758.218C339.35 758.218 319.737 766.453 282.455 757.469C252.061 750.133 243.527 758.218 231.549 736.508C229.153 732.241 226.309 727.525 228.554 719.29C228.554 719.29 212.085 709.558 204.599 717.044C197.412 724.231 189.626 733.513 176.9 735.011L173.156 752.978L176.9 767.95L171.659 782.174C171.659 782.174 145.158 795.424 111.769 767.95C78.0815 740.251 78.0815 763.458 59.3659 718.541Z" fill="#2F2873"/>
<path d="M180.643 179.908C180.643 179.908 184.386 165.46 212.085 163.064L252.51 182.304L221.817 207.233L180.643 179.908Z" fill="#2F2873"/>
<path d="M161.927 438.557L188.877 441.551L228.554 425.83L281.706 421.338L277.214 384.656L283.952 368.935C283.952 368.935 294.433 225.948 281.706 164.561L182.14 171.299L209.09 354.711L161.927 438.557Z" fill="#2F2873"/>
<path d="M113.791 143.525C112.518 144.723 111.245 145.846 110.197 146.894C109.149 147.942 108.251 149.065 107.727 150.038C107.502 150.562 107.352 150.936 107.203 151.385C107.128 151.76 107.053 152.209 107.053 152.733C107.053 153.706 107.577 155.054 108.401 156.251C109.224 157.374 110.347 158.647 111.395 159.62C111.919 160.144 112.518 160.593 112.892 160.743C113.042 160.818 113.042 160.818 112.892 160.968C112.743 161.117 112.892 161.043 112.967 160.818C113.192 160.369 113.267 159.545 113.267 158.797C113.267 158.048 113.192 157.225 113.117 156.401C112.967 154.829 112.743 153.182 112.368 151.535L112.892 151.385C113.566 152.883 114.24 154.455 114.689 156.027C114.914 156.85 115.138 157.674 115.363 158.497C115.512 159.396 115.662 160.219 115.512 161.342C115.512 161.492 115.438 161.642 115.363 161.791C115.288 161.941 115.288 162.091 115.138 162.24C115.063 162.39 114.914 162.615 114.839 162.764C114.689 162.914 114.464 163.064 114.315 163.214C114.09 163.363 113.866 163.438 113.641 163.513C113.416 163.588 113.192 163.588 112.967 163.588C112.743 163.588 112.593 163.588 112.368 163.588C112.219 163.588 111.994 163.513 111.844 163.513C110.646 163.214 109.898 162.69 109.074 162.166C107.577 161.117 106.304 160.069 105.032 158.722C104.732 158.422 104.358 158.048 104.133 157.674L103.684 157.15L103.235 156.551C102.636 155.727 102.187 154.754 101.888 153.631C101.588 152.508 101.513 151.236 101.813 150.113C102.112 148.915 102.636 147.867 103.31 146.969C104.732 145.247 106.454 144.273 108.176 143.675C109.898 143.076 111.694 142.776 113.566 143.001L113.791 143.525Z" fill="#2F2873"/>
<path d="M103.086 154.23C102.038 155.428 101.064 156.701 100.69 157.674C100.54 158.198 100.54 158.572 100.69 158.797C100.765 159.021 100.915 159.321 101.214 159.695C101.738 160.369 102.562 161.342 103.535 162.315C103.984 162.839 104.508 163.289 105.032 163.738C105.556 164.262 106.155 164.711 106.754 165.16C107.952 166.058 109.15 166.807 110.422 167.481C111.021 167.855 111.695 168.155 112.294 168.379C112.893 168.604 113.566 168.828 114.09 168.903C114.39 168.978 114.615 168.978 114.764 168.903C114.914 168.903 114.839 168.978 114.914 168.903C114.989 168.828 114.989 168.604 114.914 168.304C114.839 168.005 114.764 167.705 114.615 167.406C114.016 166.133 113.117 164.861 112.144 163.738L112.518 163.363C113.791 164.262 115.064 165.235 116.037 166.582C116.262 166.957 116.561 167.331 116.711 167.78C116.935 168.229 117.085 168.753 116.935 169.427C116.86 169.727 116.711 170.176 116.486 170.4C116.336 170.55 116.261 170.7 116.112 170.775C115.962 170.924 115.812 170.999 115.663 171.074C115.064 171.374 114.54 171.448 114.09 171.523C113.117 171.598 112.219 171.448 111.395 171.299C110.572 171.149 109.748 170.924 109 170.625C107.428 170.101 105.931 169.427 104.508 168.679L102.337 167.556C101.589 167.181 100.84 166.732 100.166 166.283C98.7438 165.31 97.3214 164.037 96.423 162.016C95.9739 161.043 95.7493 159.695 95.9738 158.422C96.1984 157.15 96.8722 156.102 97.6957 155.353C98.5192 154.679 99.3427 154.23 100.241 153.931C101.139 153.706 101.963 153.556 102.861 153.631L103.086 154.23Z" fill="#2F2873"/>
<path d="M99.6413 163.438C98.9676 164.112 98.2938 164.785 97.8446 165.384C97.3206 166.058 96.8714 166.732 96.8714 167.181C96.7966 167.406 96.8714 167.63 96.9463 167.705C97.0212 167.78 97.096 167.855 97.2457 167.93C97.4703 168.154 97.9195 168.529 98.4435 168.903C99.5665 169.652 100.989 170.475 102.486 171.298C103.908 172.197 105.481 172.945 107.128 173.619C108.7 174.293 110.347 174.817 111.994 175.266C113.566 175.715 115.288 175.94 116.71 175.715C117.084 175.64 117.384 175.566 117.608 175.416C117.833 175.266 118.057 175.116 118.132 174.967C118.432 174.667 118.357 173.994 117.983 173.395C117.608 172.721 117.009 172.197 116.261 171.673C115.587 171.224 114.763 170.774 113.94 170.475L114.09 169.951C115.886 170.25 117.833 170.774 119.255 172.347C119.63 172.721 119.929 173.245 120.154 173.844C120.378 174.443 120.378 175.191 120.154 175.79C119.929 176.464 119.48 176.988 118.956 177.362C118.432 177.737 117.908 177.961 117.384 178.186C115.288 178.86 113.341 178.785 111.395 178.635C109.448 178.41 107.652 178.036 105.78 177.587C103.983 177.063 102.187 176.614 100.315 176.015C98.5184 175.341 96.7217 174.443 95.0747 172.871C94.2513 172.047 93.4278 171.149 92.9786 169.652C92.754 168.978 92.6792 168.079 92.8289 167.256C92.9786 166.432 93.3529 165.759 93.8021 165.235C94.2512 164.711 94.7004 164.336 95.2245 164.037C95.6736 163.737 96.1977 163.513 96.6468 163.363C97.62 163.064 98.5932 162.839 99.6413 162.914V163.438Z" fill="#2F2873"/>
<path d="M99.4171 173.32C99.1177 174.817 98.8182 176.165 98.8931 177.213C98.8931 177.737 99.0428 178.111 99.1926 178.411C99.3423 178.635 99.492 178.785 99.7166 179.01C100.166 179.384 100.914 179.908 101.888 180.507C102.861 181.106 104.059 181.63 105.256 181.929C106.529 182.304 107.802 182.528 109.074 182.753C110.347 182.977 111.62 183.127 112.817 182.977C113.416 182.902 113.94 182.828 114.24 182.603C114.614 182.378 114.764 182.079 114.839 181.555C114.914 181.031 114.764 180.432 114.539 179.833C114.315 179.234 114.015 178.635 113.716 178.036L114.09 177.662C114.614 178.186 115.063 178.71 115.513 179.309C115.887 179.908 116.261 180.582 116.411 181.48C116.486 181.929 116.486 182.378 116.336 182.902C116.186 183.352 115.887 183.801 115.587 184.175C114.914 184.849 114.09 185.223 113.342 185.523C110.272 186.421 107.353 186.196 104.508 185.972C103.011 185.822 101.513 185.672 99.9412 185.223C98.3691 184.774 96.6472 184.025 95.3746 182.154C94.7757 181.256 94.4014 180.058 94.4014 178.935C94.4014 177.812 94.7008 176.839 95.15 176.015C96.0483 174.443 97.3959 173.47 98.8931 172.946L99.4171 173.32Z" fill="#2F2873"/>
<path d="M120.378 187.993C116.71 187.17 113.79 185.673 113.641 185.523L116.186 180.956C117.533 181.705 121.277 183.277 124.645 183.202L124.046 180.282V179.16L128.838 160.294L132.656 160.145L129.212 179.908L130.185 184.924L128.388 187.918C125.768 188.667 122.924 188.517 120.378 187.993Z" fill="#2F2873"/>
<path d="M135.393 137.076L132.008 149.344L137.06 150.738L140.445 138.47L135.393 137.076Z" fill="#2F2873"/>
<path d="M117.01 130.125C117.609 131.323 118.207 130.275 118.432 131.398C118.657 132.521 118.806 133.643 118.806 134.766C118.806 135.889 118.657 136.937 118.357 138.06C118.058 139.108 117.683 140.156 117.459 141.279L116.71 144.498L115.887 147.718C115.288 149.889 114.689 151.985 114.015 154.081L113.491 154.006C113.341 151.76 113.341 149.589 113.267 147.343V144.049L113.341 140.755C113.341 139.632 113.267 138.509 113.267 137.461C113.267 136.338 113.341 135.29 113.641 134.167C113.94 133.119 114.315 132.071 114.839 131.023C115.363 129.975 115.438 130.424 116.336 129.451L117.01 130.125Z" fill="#2F2873"/>
<path d="M40.9499 132.745L37.0571 131.023C36.6828 129.151 30.7686 85.8062 53.9759 49.8724L58.0933 49.498C58.3928 49.7975 80.6268 78.2451 97.9949 84.1592L165.67 109.912L168.665 113.655L162.227 142.177L159.157 143.899L87.8885 128.178C85.1934 127.954 53.9759 125.109 40.9499 132.745ZM88.4874 123.013L88.7868 123.088L157.959 138.285L163.424 113.655L96.273 89.0253C80.6268 83.71 63.708 64.0962 56.3715 56.7597C39.827 84.833 40.351 116.05 41.6985 126.606C58.243 119.943 86.9901 122.863 88.4874 123.013Z" fill="#2F2873"/>
<path d="M113.94 91.9448L117.833 82.5122L149.65 96.0623L157.585 108.04" fill="#2F2873"/>
<path d="M139.618 102.95L129.961 133.643L153.543 138.884L162.077 111.858L139.618 102.95Z" fill="#2F2873"/>
<path d="M59.5905 55.3373C59.5905 55.3373 36.4581 88.4263 49.9333 125.408L40.2012 128.927C40.2012 128.927 33.5385 80.6407 55.9223 52.3428L59.5905 55.3373Z" fill="#2F2873"/>
<path d="M44.0186 120.018C44.0186 120.018 72.9153 117.024 85.7916 123.537L45.5907 126.906L44.0186 120.018Z" fill="#2F2873"/>
<path d="M135.35 140.605L117.308 139.108L116.41 132.969L135.949 137.686L135.35 140.605Z" fill="#2F2873"/>
<path d="M202.353 177.288L206.096 154.829H225.56L243.377 173.395L202.353 177.288Z" fill="#2F2873"/>
<path d="M177.648 273.112C169.562 261.732 141.863 214.195 136.099 196.453L121.95 193.683L114.464 186.197L118.207 182.528L124.945 189.266L140.441 192.635L140.815 193.907C145.082 209.554 176.749 263.903 184.61 274.983L177.648 273.112Z" fill="#2F2873"/>
<path d="M204 257.615C203.85 257.39 191.872 231.413 145.383 183.352L144.634 182.603L144.035 154.38L127.565 150.787L128.988 146.295L149.201 150.188L149.874 180.507C196.588 228.943 208.342 254.471 208.791 255.519L204 257.615Z" fill="#2F2873"/>
<path d="M122.999 162.54C118.806 162.315 115.363 160.519 115.063 160.369L114.764 155.877L128.763 146.145L131.757 150.487L122.1 157.15C124.121 157.449 130.036 159.021 131.757 157.674L134.976 161.866C132.356 163.887 125.694 162.69 122.999 162.54Z" fill="#2F2873"/>
<path d="M43.7943 85.2071C40.201 84.5333 36.6824 83.7847 33.1639 83.111C31.3672 82.8115 29.6454 82.4372 27.9236 82.2126C27.0252 82.1377 26.2017 81.988 25.3783 81.9132C24.5548 81.8383 23.7313 81.7634 23.0575 81.8383L17.4429 82.0629L21.4106 77.1968C21.6351 76.8974 22.0094 76.5231 22.234 76.1488C22.4586 75.7745 22.6832 75.4002 22.8329 75.0258C22.9827 74.6515 23.0575 74.3521 23.0575 74.1275C23.0575 74.0526 22.9827 73.9778 22.9827 74.1275C22.9078 74.2024 22.9078 74.4269 22.9078 74.7264L25.1537 77.1968C23.5067 76.6728 22.0843 75.999 20.6619 75.1756C19.2396 74.3521 17.892 73.4537 16.5445 72.4057C15.2719 71.3576 13.9992 70.1598 12.9511 68.7374C12.4271 68.0637 11.9779 67.2402 11.6036 66.3418C11.3042 65.5184 11.0796 64.4703 11.2293 63.5719L11.9031 63.4971C12.8014 64.6949 14.0741 65.2189 15.4216 65.8927C16.6942 66.4916 18.0418 67.0156 19.4641 67.4648L23.5816 68.962C24.9291 69.486 26.3515 70.0101 27.6241 70.5341L29.4957 71.3576L29.87 73.0046C30.0946 73.828 30.0197 74.5767 29.87 75.1756C29.7203 75.7745 29.5705 76.2985 29.2711 76.6728C28.8219 77.4963 28.2979 78.0952 27.8487 78.5444C27.3995 79.0684 26.8755 79.5176 26.4263 79.8919C25.9023 80.3411 25.528 80.6405 24.9291 81.0897L23.2821 76.4482C24.405 76.5979 25.4531 76.8225 26.3514 77.0471C27.3247 77.2717 28.1481 77.5712 29.0465 77.8706C30.7683 78.4695 32.4901 79.1433 34.212 79.817C37.5808 81.2394 40.9496 82.7366 44.1687 84.3836L43.7943 85.2071Z" fill="#2F2873"/>
<path d="M41.7731 88.8755L36.7573 90.8219C35.1103 91.4957 33.4634 92.0946 31.8164 92.7684C30.1695 93.4421 28.5973 94.1159 27.0252 94.8645C26.2766 95.2388 25.4531 95.6131 24.7794 95.9874C24.1056 96.3617 23.357 96.8109 22.9078 97.1852L18.8653 100.629L18.9401 94.2656C18.9401 94.041 18.9401 93.5918 18.9401 93.2175C18.9401 92.8432 18.8653 92.5438 18.7904 92.2443C18.7155 92.0197 18.5658 91.7952 18.4909 91.7952C18.4161 91.7952 18.4161 92.0197 18.6407 92.3192L21.2609 93.1427C19.3893 93.3673 17.5926 93.3673 15.7211 93.2175C13.8495 93.0678 12.0528 92.9181 10.1813 92.5438C8.3097 92.1695 6.51301 91.7203 4.71632 90.9717C3.81797 90.5974 2.91963 90.1482 2.09614 89.5493C1.27266 88.9504 0.449173 88.2766 0 87.3034L0.524033 86.8542C2.171 87.4531 3.81798 87.3034 5.53981 87.2286C7.26163 87.1537 8.90859 87.004 10.6304 86.8542L15.7959 86.4051C17.5177 86.2553 19.2396 86.1805 20.8865 86.1056L22.5335 86.0308L23.5067 86.9291C24.4799 87.8275 24.9291 88.9504 25.0788 89.7739C25.2286 90.6722 25.2285 91.4208 25.1537 92.0946C25.0788 92.7684 24.9291 93.3673 24.7794 93.8913C24.6296 94.4902 24.4799 94.9394 24.2553 95.6131L20.2876 92.6935C21.3357 92.0946 22.2341 91.7952 23.2073 91.4208C24.1056 91.1214 25.004 90.8219 25.9023 90.6722C27.699 90.223 29.4957 89.8487 31.2175 89.5493C34.736 88.9504 38.3294 88.4264 41.9228 88.1269L41.7731 88.8755Z" fill="#2F2873"/>
<path d="M188.129 145.097C188.129 145.097 181.391 137.611 186.631 136.114C191.872 134.617 174.653 139.857 174.653 139.857L178.396 142.851L188.129 145.097Z" fill="#2F2873"/>
</svg>
