<svg width="37" height="36" viewBox="0 0 37 36" fill="none" xmlns="http://www.w3.org/2000/svg">
<path d="M18.5021 1.54701e-06C8.27963 -0.00412974 0 8.2667 0 18.4751C0 26.5476 5.17942 33.4097 12.3926 35.9298C13.364 36.1735 13.2152 35.4836 13.2152 35.0126V31.8109C7.60585 32.4678 7.37851 28.7579 7.00235 28.1382C6.24176 26.8409 4.44364 26.5104 4.98101 25.8908C6.2583 25.2339 7.56038 26.056 9.06915 28.2828C10.1604 29.8981 12.2892 29.6254 13.3681 29.3569C13.6037 28.386 14.108 27.5185 14.8025 26.8451C8.99062 25.804 6.56832 22.2594 6.56832 18.0454C6.56832 16.0005 7.2421 14.1207 8.56485 12.6045C7.7216 10.1051 8.64339 7.96511 8.7674 7.64701C11.169 7.43218 13.6657 9.36562 13.86 9.51848C15.2241 9.15079 16.7825 8.95662 18.5269 8.95662C20.2795 8.95662 21.842 9.15906 23.2185 9.53087C23.6856 9.17558 26.0004 7.5148 28.2326 7.71724C28.3525 8.03535 29.2536 10.1258 28.4599 12.5922C29.7992 14.1125 30.4813 16.0087 30.4813 18.0578C30.4813 22.28 28.0425 25.8288 22.2141 26.8533C22.7133 27.344 23.1097 27.9292 23.3801 28.5747C23.6505 29.2202 23.7895 29.913 23.789 30.6128V35.2605C23.822 35.6323 23.789 36 24.409 36C31.7296 33.5336 37 26.622 37 18.4792C37 8.2667 28.7162 1.54701e-06 18.5021 1.54701e-06V1.54701e-06Z" fill="#F24F5B"/>
</svg>
