<svg width="30" height="30" viewBox="0 0 30 30" fill="none" xmlns="http://www.w3.org/2000/svg">
<path d="M15.0017 1.25433e-06C6.71322 -0.00334843 0 6.70273 0 14.9798C0 21.5251 4.19953 27.0889 10.048 29.1322C10.8357 29.3299 10.715 28.7705 10.715 28.3886V25.7926C6.16691 26.3252 5.98257 23.3172 5.67758 22.8147C5.06089 21.7629 3.60295 21.495 4.03866 20.9925C5.07429 20.4599 6.13004 21.1265 7.35337 22.932C8.23819 24.2417 9.96425 24.0206 10.839 23.8029C11.0301 23.0157 11.4389 22.3123 12.002 21.7663C7.28969 20.9222 5.32566 18.0481 5.32566 14.6314C5.32566 12.9733 5.87197 11.4492 6.94448 10.2199C6.26075 8.19334 7.00816 6.4582 7.1087 6.20028C9.05597 6.02609 11.0803 7.59375 11.2379 7.71768C12.3439 7.41956 13.6074 7.26213 15.0218 7.26213C16.4429 7.26213 17.7098 7.42626 18.8258 7.72773C19.2046 7.43966 21.0814 6.09309 22.8913 6.25722C22.9885 6.51515 23.7191 8.21009 23.0756 10.2099C24.1615 11.4425 24.7146 12.98 24.7146 14.6415C24.7146 18.0649 22.7371 20.9423 18.0114 21.773C18.4162 22.1708 18.7376 22.6453 18.9568 23.1687C19.1761 23.692 19.2888 24.2538 19.2883 24.8212V28.5896C19.3152 28.8911 19.2883 29.1892 19.7911 29.1892C25.7267 27.1894 30 21.5854 30 14.9832C30 6.70273 23.2834 1.25433e-06 15.0017 1.25433e-06V1.25433e-06Z" fill="#2F2873"/>
</svg>
