<svg width="460" height="601" viewBox="0 0 460 601" fill="none" xmlns="http://www.w3.org/2000/svg">
<path d="M349.017 412.321L348.375 408.285C348.783 408.226 391.889 401.148 428.745 374.355C428.102 371.371 426.934 363.825 427.868 351.072C427.985 349.726 428.102 348.205 428.219 346.626C429.504 329.368 431.957 297.252 425.649 279.994L429.504 278.59C436.104 296.725 433.592 329.368 432.307 346.918C432.191 348.498 432.074 350.019 431.957 351.364C430.847 367.042 433.008 374.53 433.067 374.589L433.476 375.993L432.307 376.87C394.342 404.892 349.484 412.204 349.017 412.321Z" fill="#2F2873"/>
<path d="M316.601 372.834C316.601 372.834 362.159 347.679 389.611 345.339C389.611 345.339 334.123 365.814 320.689 375.759L316.601 372.834Z" fill="#2F2873"/>
<path d="M354.543 342.808L313.097 355.089L314.257 359.016L355.703 346.734L354.543 342.808Z" fill="#2F2873"/>
<path d="M376.761 349.785L372.673 349.668C372.673 349.609 372.906 341.127 371.212 327.496C369.46 313.456 370.57 287.892 370.628 286.78L370.687 285.376L372.03 284.967C372.264 284.908 377.228 283.27 386.457 281.632C394.926 280.111 408.711 278.181 426.35 277.888L426.408 281.983C398.197 282.451 379.623 287.131 374.6 288.477C374.366 294.151 373.724 315.211 375.243 327.028C377.053 341.01 376.761 349.434 376.761 349.785Z" fill="#2F2873"/>
<path d="M370.92 285.669C370.92 285.669 439.842 259.929 450.356 277.479C453.86 283.914 431.665 295.029 431.665 295.029L426.992 280.404C426.992 280.404 404.797 278.649 370.92 285.669Z" fill="#2F2873"/>
<path d="M450.356 277.479C450.356 277.479 441.01 258.174 439.258 248.229C437.506 238.284 425.24 189.729 411.806 183.879C411.806 183.879 360.991 161.649 314.264 156.969L300.246 181.539C300.246 181.539 278.635 200.844 258.776 204.354C258.776 204.354 252.351 200.259 247.095 189.729L250.015 174.519C250.015 174.519 219.643 187.389 199.784 205.524C199.784 205.524 182.261 270.459 184.598 293.274C184.598 293.274 193.943 297.954 201.536 299.709C201.536 299.709 205.041 348.264 202.704 352.359L205.625 355.284H219.059L251.183 365.229L280.972 357.039L317.185 372.834C317.185 372.834 348.55 358.677 349.309 358.794C349.718 358.852 375.009 348.264 375.009 348.264L372.673 286.839C372.673 286.839 396.036 278.064 450.356 277.479Z" fill="#2F2873"/>
<path d="M351.646 410.859L370.336 430.164L379.097 431.334L389.027 423.729L390.779 402.669L390.195 399.744L393.7 397.404L396.036 403.254L395.452 425.484L392.531 430.749C392.531 430.749 402.461 427.824 403.045 425.484L408.302 390.969L351.646 410.859Z" fill="#2F2873"/>
<path d="M426.408 278.064L411.806 282.159C411.806 282.159 426.525 288.067 428.745 289.179L426.408 278.064Z" fill="#2F2873"/>
<path d="M391.947 471.699L386.691 444.789L381.434 445.959L391.947 471.699Z" fill="#2F2873"/>
<path d="M386.107 445.374L391.947 445.959L405.965 442.449L406.55 427.824L404.797 426.069L394.868 431.919L380.85 433.089L370.92 431.919L382.018 445.959L386.107 445.374Z" fill="#2F2873"/>
<path d="M341.249 553.891C341.132 553.891 341.015 553.891 340.957 553.891L340.373 553.833L339.905 553.482L259.01 493.402L253.286 491.472L250.249 485.914C241.896 489.073 204.398 502.879 179.107 507.033L178.465 507.15L125.196 479.889L125.313 478.485C126.306 468.657 126.598 457.015 125.371 455.085L123.152 453.33L194.527 410.8L211.582 384.885L241.604 374.881L256.265 361.368L282.607 355.225L319.871 372.073L320.163 372.424C341.891 398.574 378.28 440.752 383.303 442.507H383.244L382.485 446.544C380.966 446.251 377.812 445.666 346.798 410.04C332.896 394.069 319.521 378.04 317.36 375.408L282.198 359.496L258.309 365.053L243.765 378.45L214.211 388.336L197.447 413.842L197.038 414.076L129.46 454.324C130.102 456.372 130.453 460.057 130.161 467.077C129.986 471.289 129.694 475.443 129.46 477.49L179.049 502.879C207.143 498.141 249.956 481.644 250.424 481.468L252.118 480.825L256.089 488.137L260.879 489.717L341.658 549.679C346.681 548.392 373.49 536.4 390.429 528.619L403.278 502.879L397.496 442.039L401.585 441.63L407.484 503.64L393.466 531.72L392.823 532.012C392.707 532.071 380.791 537.57 368.584 542.952C345.805 553.072 342.417 553.891 341.249 553.891Z" fill="#2F2873"/>
<path d="M215.554 403.254L136.644 454.734C136.644 454.734 137.813 459.94 136.06 470.295L166.199 496.269L128.526 477.783V451.224L195.695 412.029L215.554 403.254Z" fill="#2F2873"/>
<path d="M239.501 379.854C239.501 379.854 250.599 376.344 257.024 375.174C257.024 375.174 252.351 374.004 242.422 376.344L239.501 379.854Z" fill="#2F2873"/>
<path d="M172.332 501.534L258.776 475.209L260.529 479.304L341.716 530.199C341.716 530.199 382.602 527.274 389.027 520.254C395.452 513.234 403.629 502.119 403.629 502.119L390.195 532.539L338.796 551.844L257.9 491.004L253.753 488.371L249.606 484.627L185.182 505.044L174.026 503.757L172.332 501.534Z" fill="#2F2873"/>
<path d="M166.608 499.369L165.206 495.508C169.704 493.812 209.421 479.011 215.379 478.426C217.19 478.251 218.124 477.256 219.467 475.852C221.395 473.805 223.79 471.231 229.455 470.821C237.749 470.295 248.905 465.205 253.753 459.823C259.477 453.447 265.902 452.745 266.194 452.745L267.304 452.628L268.005 453.505C268.063 453.622 275.89 463.275 283.6 459.355C290.667 455.845 296.216 458.01 301.064 459.882C303.459 460.818 305.678 461.695 308.19 462.046C316.25 463.216 371.329 471.348 371.855 471.406L371.271 475.443C370.745 475.384 315.666 467.253 307.606 466.083C304.685 465.673 302.057 464.62 299.604 463.684C294.931 461.871 290.901 460.233 285.469 462.982C283.483 463.977 281.556 464.386 279.745 464.386C273.145 464.386 267.713 459.18 265.668 456.957C263.975 457.366 260.295 458.712 256.849 462.514C251.3 468.715 239.151 474.273 229.747 474.916C225.717 475.209 224.199 476.788 222.446 478.66C220.928 480.298 219.175 482.17 215.788 482.521C211.641 482.931 184.13 492.817 166.608 499.369Z" fill="#2F2873"/>
<path d="M365.664 474.624C365.664 474.624 385.523 478.134 390.195 476.964L369.752 471.114L365.664 474.624Z" fill="#2F2873"/>
<path d="M271.042 417.294C273.32 419.049 275.189 421.096 276.941 423.319C277.817 424.431 278.577 425.601 279.336 426.829C280.037 428.116 280.738 429.345 281.147 431.041C281.205 431.275 281.263 431.509 281.263 431.685L281.322 432.27C281.38 432.679 281.38 433.03 281.38 433.44C281.38 434.2 281.38 434.961 281.322 435.663C281.205 437.125 280.913 438.471 280.679 439.758C280.563 440.401 280.504 440.986 280.446 441.396C280.387 441.396 280.504 441.747 280.504 442.039C280.504 442.273 280.504 442.566 280.504 442.741C280.446 443.209 280.329 443.56 280.212 443.97C279.92 444.672 279.628 445.315 279.278 445.9C279.102 446.193 278.986 446.485 278.81 446.778C278.694 447.07 278.577 447.363 278.577 447.772C278.285 447.48 278.226 447.07 278.168 446.719C278.109 446.368 278.109 445.959 278.109 445.608C278.109 444.906 278.168 444.204 278.168 443.56C278.168 443.268 278.168 442.975 278.051 442.741C278.051 442.624 277.993 442.507 277.934 442.449C277.876 442.39 277.876 442.39 277.759 442.098C277.584 441.63 277.525 441.22 277.467 440.752C277.409 440.343 277.409 439.992 277.35 439.582C277.292 438.12 277.35 436.774 277.292 435.487C277.292 434.844 277.292 434.2 277.233 433.615C277.233 433.323 277.175 433.03 277.175 432.738L277.116 432.27C277.116 432.153 277.058 432.036 277.058 431.919C277 431.802 277.058 431.685 277 431.568L276.883 431.158C276.824 430.924 276.708 430.632 276.591 430.339C276.416 429.754 276.124 429.169 275.831 428.584C275.306 427.414 274.722 426.186 274.138 424.957C273.086 422.5 271.918 419.985 271.042 417.294Z" fill="#2F2873"/>
<path d="M258.192 429.579C259.827 430.281 261.404 431.158 262.865 432.153C264.325 433.147 265.785 434.259 267.07 435.663C267.42 436.014 267.712 436.365 268.004 436.833C268.297 437.242 268.53 437.71 268.822 438.237C268.939 438.529 268.997 438.822 269.114 439.114L269.173 439.348L269.231 439.524L269.289 439.875C269.406 440.401 269.406 440.811 269.465 441.337C269.582 443.209 269.523 444.964 269.465 446.719C269.289 450.229 268.881 453.739 268.589 457.132C268.53 457.951 268.472 458.829 268.413 459.648C268.355 460.057 268.413 460.408 268.413 460.818C268.413 461.169 268.413 461.578 268.472 461.871C268.53 462.573 268.764 463.216 268.997 463.801C269.114 464.094 269.289 464.328 269.465 464.562C269.582 464.679 269.64 464.796 269.757 464.854C269.815 464.913 269.874 464.971 269.874 464.971C269.874 464.971 269.99 465.03 269.932 465.03L270.808 466.726C270.516 467.721 270.166 468.657 269.757 469.593C269.406 470.529 268.997 471.465 268.53 472.342C268.063 473.22 267.596 474.156 267.012 474.975C266.72 475.384 266.427 475.794 266.019 476.145C265.668 476.496 265.201 476.847 264.675 476.905C265.084 476.671 265.376 476.262 265.551 475.794C265.785 475.384 265.96 474.916 266.077 474.448C266.369 473.512 266.603 472.576 266.836 471.64C267.07 470.704 267.245 469.768 267.42 468.774C267.596 467.838 267.771 466.843 267.888 465.966L268.764 467.662C268.472 467.545 268.413 467.487 268.238 467.428C268.121 467.37 267.946 467.253 267.829 467.194C267.596 467.019 267.362 466.843 267.128 466.668C266.72 466.258 266.311 465.849 266.019 465.381C265.376 464.445 265.026 463.45 264.792 462.397C264.558 461.403 264.5 460.35 264.442 459.414C264.442 458.478 264.442 457.6 264.5 456.664C264.675 453.096 265.084 449.644 265.435 446.193C265.61 444.496 265.785 442.8 265.902 441.162C265.96 440.401 265.96 439.524 265.843 439.114C265.668 438.529 265.376 437.827 264.909 437.184C264.091 435.838 262.923 434.551 261.813 433.264C261.521 432.913 261.229 432.621 260.937 432.328C260.645 431.977 260.353 431.685 260.061 431.392L258.192 429.579Z" fill="#2F2873"/>
<path d="M229.864 334.516C225.834 338.085 221.745 341.595 217.657 345.105C215.612 346.86 213.51 348.556 211.465 350.311C209.363 352.008 207.318 353.763 205.216 355.459C201.069 358.852 196.863 362.245 192.658 365.638C188.452 368.973 184.247 372.307 179.983 375.642L180.743 374.413C180.1 378.391 179.399 382.428 178.698 386.406C178.348 388.395 177.939 390.384 177.53 392.373C177.121 394.362 176.712 396.351 176.304 398.34L174.551 396.409C174.493 396.409 174.551 396.409 174.551 396.409H174.61C174.668 396.409 174.726 396.409 174.843 396.351C175.019 396.292 175.135 396.292 175.311 396.234C175.661 396.117 175.953 395.941 176.304 395.766C176.946 395.415 177.589 394.947 178.173 394.42C179.399 393.367 180.451 392.139 181.443 390.735C182.436 389.389 183.313 387.868 184.13 386.347C184.948 384.826 185.649 383.247 186.408 381.609C186.116 383.364 185.766 385.06 185.24 386.757C184.714 388.453 184.072 390.15 183.254 391.788C182.436 393.426 181.443 394.947 180.158 396.409C179.516 397.111 178.757 397.755 177.939 398.34C177.53 398.632 177.063 398.866 176.596 399.1C176.362 399.217 176.128 399.334 175.836 399.393C175.719 399.451 175.544 399.51 175.427 399.51L175.194 399.568C175.077 399.568 175.077 399.627 174.843 399.627L172.857 399.861L173.091 397.696C173.325 395.707 173.617 393.66 173.909 391.671C174.201 389.682 174.493 387.634 174.785 385.645C175.427 381.609 176.07 377.631 176.829 373.653L176.946 372.892L177.53 372.424C181.794 369.148 186.116 365.931 190.438 362.713C194.761 359.496 199.083 356.337 203.463 353.119C205.625 351.54 207.844 349.96 210.005 348.381C212.166 346.801 214.386 345.222 216.605 343.701C220.928 340.6 225.367 337.5 229.864 334.516Z" fill="#2F2873"/>
<path d="M212.692 363.649C211.348 364.351 210.005 365.053 208.603 365.697C207.26 366.34 205.858 367.042 204.515 367.686C203.171 368.329 201.769 368.973 200.368 369.558C198.966 370.201 197.622 370.786 196.221 371.43L196.863 370.962C195.637 372.483 194.468 374.004 193.242 375.525L191.431 377.806C190.847 378.567 190.205 379.327 189.62 380.029L190.088 379.152C189.737 380.614 189.445 382.077 189.153 383.539C188.803 385.002 188.511 386.464 188.102 387.927C187.401 390.852 186.642 393.777 185.882 396.643L184.481 394.362C184.422 394.362 184.305 394.362 184.305 394.362C184.305 394.362 184.247 394.362 184.305 394.362C184.305 394.362 184.305 394.362 184.364 394.362C184.364 394.362 184.422 394.362 184.481 394.362C184.539 394.362 184.539 394.362 184.597 394.303C184.773 394.245 185.006 394.186 185.181 394.069C185.415 393.952 185.649 393.777 185.882 393.601C186.116 393.426 186.35 393.192 186.583 393.016C187.459 392.139 188.277 391.027 188.978 389.857C189.679 388.687 190.38 387.459 190.964 386.172C191.548 384.885 192.074 383.539 192.658 382.252L192.833 381.843L193.125 381.609L200.251 375.934L200.543 375.7L200.835 375.642L214.327 373.594L217.832 373.068L215.145 375.349L204.398 384.417L204.573 384.066L202.529 394.537L202.47 394.303L204.106 397.287L203.755 397.521L201.886 394.654L201.828 394.537V394.42L203.288 383.832V383.656L203.463 383.481L213.743 373.828L214.561 375.583L201.185 378.216L201.769 377.923L194.877 383.949L195.345 383.305C194.819 384.709 194.352 386.113 193.767 387.517C193.475 388.219 193.183 388.921 192.833 389.565C192.541 390.267 192.132 390.91 191.782 391.612C191.022 392.958 190.205 394.303 189.036 395.532C188.744 395.824 188.452 396.117 188.102 396.409C187.751 396.702 187.401 396.994 186.992 397.228C186.583 397.462 186.116 397.696 185.649 397.872L185.24 397.989L184.773 398.047C184.656 398.106 184.422 398.106 184.247 398.106C184.188 398.106 184.072 398.106 183.955 398.106H183.78C183.721 398.106 183.604 398.106 183.488 398.047L181.735 397.638L182.086 395.766C182.67 392.841 183.254 389.857 183.955 386.932C184.247 385.47 184.597 384.007 184.948 382.545C185.298 381.082 185.649 379.62 186.058 378.157L186.174 377.631L186.466 377.28C187.109 376.578 187.751 375.876 188.452 375.115L190.438 373.009C191.723 371.605 193.067 370.201 194.41 368.797L194.76 368.446L195.111 368.329C196.571 367.861 197.973 367.393 199.433 366.984C200.893 366.516 202.353 366.106 203.755 365.638C205.216 365.17 206.676 364.819 208.136 364.41C209.596 364 211.056 363.649 212.517 363.24L212.692 363.649Z" fill="#2F2873"/>
<path d="M131.037 449.352L127.357 448.884L118.012 454.149L112.755 480.474L142.544 521.424L181.093 507.969L180.509 505.629L174.668 502.704L148.384 512.649L116.844 479.304L120.348 454.149L127.942 450.639L131.037 449.352Z" fill="#2F2873"/>
<path d="M224.841 551.025L223.089 550.966C222.271 550.966 202.354 550.381 193.534 548.568C187.752 547.398 114.624 529.614 103.176 518.791L102.651 518.265L99.6133 490.887L99.6717 490.594C99.7301 490.185 100.489 486.265 105.045 482.346C109.134 478.836 112.872 476.086 113.047 475.969L115.5 479.245C115.442 479.245 111.762 482.053 107.732 485.446C104.87 487.903 103.994 490.302 103.819 491.062L106.622 516.276C117.954 525.519 182.67 542.191 194.468 544.531C201.477 545.935 216.547 546.579 221.628 546.754C225.367 530.725 236.931 528.21 242.597 527.976C240.436 521.482 239.618 517.329 239.268 515.281C237.749 515.164 235.471 515.281 232.901 515.34C225.25 515.632 214.736 515.983 205.099 512.766C191.431 508.203 175.836 506.272 175.719 506.214L176.245 502.177C176.888 502.236 192.366 504.166 206.442 508.905C215.379 511.888 225.483 511.537 232.843 511.303C236.873 511.186 239.793 511.069 241.662 511.537L243.123 511.888L243.24 513.409C243.24 513.468 243.59 518.382 247.503 529.497L248.613 532.714L245.225 532.188C244.583 532.071 229.046 529.906 225.367 549.27L224.841 551.025Z" fill="#2F2873"/>
<path d="M167.659 538.974C167.659 538.974 160.65 520.839 177.004 507.969L186.408 504.517C186.408 504.517 211.641 514.404 223.556 513.526C235.413 512.649 240.085 514.404 240.085 514.404L243.59 529.029C243.59 529.029 227.236 530.784 221.395 549.504C221.395 549.504 172.916 543.654 167.659 538.974Z" fill="#2F2873"/>
<path d="M283.016 518.206C283.016 518.206 300.13 516.451 305.211 531.661C310.176 546.579 309.592 576.414 300.246 576.414C300.246 576.414 288.273 568.516 290.609 552.721C292.945 536.926 298.202 529.906 289.441 524.641L283.016 518.206Z" fill="#2F2873"/>
<path d="M292.361 578.169C286.228 578.169 277.292 576.004 265.96 567.171C264.675 566.176 262.865 565.591 260.82 565.006C258.601 564.304 256.148 563.544 253.811 562.023L256.031 558.571C257.9 559.8 260.003 560.443 261.989 561.087C264.208 561.789 266.544 562.491 268.414 563.953C277.35 570.915 284.534 573.372 289.733 573.957C287.922 573.021 286.462 571.851 285.352 570.447C281.38 565.182 283.016 557.46 285.06 547.69C285.936 543.42 286.929 538.623 287.571 533.533C288.097 529.321 287.396 526.162 285.41 523.939C281.088 519.084 271.1 519.142 263.799 519.201C258.601 519.259 255.155 519.259 253.286 517.855C249.256 514.813 246.978 514.462 246.919 514.462L245.342 513.351C245.284 513.292 243.94 510.777 240.494 510.367C239.268 510.192 238.158 510.894 236.406 512.181C233.953 513.877 230.915 516.042 226.009 515.632L226.301 511.537C229.747 511.771 231.85 510.367 234.011 508.788C236.055 507.384 238.1 505.921 240.962 506.272C245.109 506.799 247.445 509.256 248.379 510.601C249.723 511.011 252.176 512.005 255.622 514.579C256.44 515.164 260.587 515.106 263.624 515.106C271.684 515.047 282.724 514.93 288.272 521.248C291.018 524.349 292.127 528.678 291.426 534.06C290.784 539.325 289.733 544.239 288.856 548.568C287.046 557.343 285.586 564.246 288.448 568.048C290.317 570.505 294.23 571.968 300.421 572.436L301.356 576.238C301.356 576.297 298.143 578.169 292.361 578.169Z" fill="#2F2873"/>
<path d="M259.243 563.719C257.082 563.719 254.279 562.842 250.833 560.151L253.344 556.933C256.381 559.273 259.01 560.151 260.645 559.332C262.456 558.454 263.566 555.529 263.566 551.902C263.507 547.456 261.638 541.84 257.666 539.968C246.452 534.645 240.494 529.321 240.261 529.087L243.006 526.045C243.064 526.104 248.788 531.193 259.477 536.224C265.143 538.915 267.713 545.994 267.771 551.844C267.83 557.167 265.902 561.379 262.631 562.959C261.58 563.427 260.528 563.719 259.243 563.719Z" fill="#2F2873"/>
<path d="M254.688 562.374C250.482 558.162 239.969 558.805 233.077 559.215C227.236 559.566 224.607 559.683 223.147 558.279C220.227 555.354 220.752 549.153 220.811 548.451L224.899 548.86L222.855 548.685L224.899 548.86C224.724 550.791 224.899 554.008 225.951 555.237C226.944 555.529 230.215 555.295 232.843 555.12C240.962 554.593 252.059 553.891 257.608 559.449L254.688 562.374Z" fill="#2F2873"/>
<path d="M247.036 533.709C247.036 533.709 231.616 546.871 236.873 555.646C236.873 555.646 254.337 556.582 257.842 561.672C261.405 566.761 268.939 554.535 264.559 546.345C260.236 538.096 247.036 533.709 247.036 533.709Z" fill="#2F2873"/>
<path d="M298.845 527.566C290.317 514.93 267.538 513.409 264.15 513.234C262.631 513.76 258.893 514.287 252.644 509.899C240.728 501.592 226.126 514.287 225.951 514.404L223.264 511.362C223.965 510.718 240.378 496.386 254.98 506.506C259.886 509.958 262.339 509.431 262.748 509.314L263.274 508.905L263.8 509.08C264.968 509.08 291.836 509.841 302.232 525.168L298.845 527.566Z" fill="#2F2873"/>
<path d="M251.767 525.519C254.921 525.87 257.9 526.396 260.879 526.864C263.799 527.332 266.778 527.8 269.407 527.742C270.108 527.683 270.516 527.625 271.626 527.566C272.093 527.508 272.619 527.566 273.086 527.566C273.554 527.566 274.079 527.683 274.547 527.859C276.474 528.385 278.168 529.614 279.102 531.31C280.095 532.948 280.446 534.879 280.095 536.634C279.979 537.043 279.862 537.511 279.745 537.921C279.57 538.33 279.395 538.681 279.161 539.032C278.927 539.383 278.694 539.734 278.402 540.027C278.109 540.319 277.817 540.553 277.467 540.846C278.051 539.383 278.285 537.921 278.109 536.575C277.934 535.23 277.35 534.118 276.532 533.241L276.416 533.065L276.24 532.948L275.89 532.656C275.656 532.48 275.423 532.363 275.189 532.188C274.897 532.071 274.663 531.954 274.43 531.895L274.021 531.778L273.846 531.72H273.612C272.502 531.486 271.685 531.778 269.582 531.954C267.83 532.012 266.194 531.778 264.617 531.486C263.04 531.135 261.522 530.667 260.061 530.14C257.141 528.853 254.279 527.449 251.767 525.519Z" fill="#2F2873"/>
<path d="M167.133 413.023C166.958 413.023 166.783 413.023 166.608 412.965L50.1415 389.74L50.9592 385.704L165.673 408.577L152.415 247.351C152.181 244.543 150.779 242.028 148.56 240.331C146.34 238.635 143.478 237.991 140.733 238.576L23.1568 262.912C18.1921 263.965 14.8044 268.704 15.4469 273.735L29.2313 382.837L25.2011 383.364L11.4167 274.32C10.5406 267.183 15.3301 260.455 22.3391 258.993L139.915 234.657C143.77 233.838 147.859 234.774 151.013 237.114C154.167 239.512 156.211 243.139 156.503 247.059L169.937 410.04C169.995 410.917 169.645 411.736 169.003 412.321C168.477 412.789 167.834 413.023 167.133 413.023Z" fill="#2F2873"/>
<path d="M168.535 412.321L197.739 407.641L129.986 452.686L126.481 450.346L118.888 455.026L115.384 460.291L106.622 459.121L103.118 433.381L88.5157 407.641L75.0818 398.281L66.3205 397.696L59.3115 390.676L168.535 412.321Z" fill="#2F2873"/>
<path d="M179.049 374.53L162.402 369.558L181.969 335.803L185.474 337.909L168.535 367.159L180.217 370.552L179.049 374.53Z" fill="#2F2873"/>
<path d="M184.598 293.274L180.509 354.699C180.509 354.699 187.518 340.659 187.518 324.279C187.518 307.899 189.27 294.444 189.27 294.444L184.598 293.274Z" fill="#2F2873"/>
<path d="M166.491 375.759L169.996 376.929L176.421 381.609L170.58 390.384C170.58 390.384 171.748 394.479 174.084 392.724V399.159L183.43 391.554L184.014 396.819C184.014 396.819 191.607 390.384 194.527 383.364L201.77 376.812L212.05 375.759L203.288 384.534L202.12 394.479L203.872 397.404L202.704 402.084L172.916 407.349C172.916 407.349 169.996 409.689 172.916 412.029L167.075 413.199L164.155 412.029L166.491 404.424V375.759Z" fill="#2F2873"/>
<path d="M139.623 533.709L109.835 550.089L91.7284 526.104L86.4717 483.399L115.617 469.476L114.332 479.07L101.074 489.834L103.41 518.499L139.623 533.709Z" fill="#2F2873"/>
<path d="M109.309 549.738L75.9581 541.255L75.666 540.027C70.4093 516.919 63.8091 491.062 61.7648 487.962L60.1294 486.967L74.6147 465.205L112.755 455.085L113.807 459.063L77.2431 468.774L65.5614 486.265C66.8464 488.781 69.0075 495.216 73.4465 513.058C76.1333 523.705 78.5864 534.294 79.4042 537.862L110.302 545.76L109.309 549.738Z" fill="#2F2873"/>
<path d="M38.5767 424.899C38.5767 424.899 54.3469 454.734 73.9137 469.066L76.2501 466.141C76.2501 466.141 57.2673 452.394 38.5767 424.899Z" fill="#2F2873"/>
<path d="M76.659 435.253C78.9369 436.189 81.1564 437.184 83.4344 438.178L86.7636 439.699C87.8734 440.226 88.9832 440.694 90.0929 441.22L90.7354 441.513L90.8522 442.449C91.0275 444.028 91.3195 445.725 91.8452 447.187C92.3709 448.65 93.247 449.937 93.9479 450.522L94.0647 450.639C94.0647 450.639 94.0647 450.639 94.1231 450.697L94.2399 450.756L94.4151 450.931C94.6488 451.107 94.8824 451.341 95.116 451.575C95.2913 451.809 95.5249 452.043 95.7001 452.277L96.1674 452.979C96.6931 453.973 96.9851 454.968 97.1603 455.962C97.3356 456.957 97.3356 457.893 97.2772 458.829C97.1603 459.765 97.0435 460.701 96.6931 461.578H96.2842C95.5833 459.882 94.9408 458.302 94.1815 456.898C93.7727 456.196 93.3638 455.611 92.9549 455.143L92.6629 454.792C92.5461 454.734 92.4293 454.617 92.3124 454.5C92.1956 454.383 92.0788 454.383 92.0204 454.266L91.8452 454.149L91.4363 453.856C90.4434 453.037 89.7425 452.043 89.3336 451.048C88.9247 450.054 88.6911 449.059 88.5159 448.123C88.1654 446.193 88.0486 444.379 88.107 442.449L88.8663 443.736C87.815 443.092 86.822 442.39 85.7707 441.747L82.6751 439.758C80.6308 438.412 78.5865 437.067 76.6006 435.663L76.659 435.253Z" fill="#2F2873"/>
<path d="M116.493 416.007C111.996 415.422 107.498 414.837 102.943 414.252C98.4452 413.667 93.9477 413.023 89.4503 412.38L75.9579 410.449C71.4605 409.806 66.9046 409.338 62.4656 408.577H62.6408L60.7718 408.402L58.9027 408.226C57.6177 408.109 56.3911 407.934 55.1061 407.758L54.5221 407.7L54.1716 407.466C51.8937 405.769 49.6742 404.073 47.513 402.259C46.4033 401.382 45.3519 400.446 44.2422 399.51C43.1908 398.574 42.1395 397.638 41.0881 396.643L41.3218 396.292C42.6067 396.877 43.8917 397.462 45.1767 398.106C46.4617 398.749 47.6883 399.393 48.9149 400.036C51.4264 401.382 53.8212 402.786 56.2743 404.19L55.3398 403.897C56.6248 403.956 57.8513 403.956 59.1363 404.014L61.0638 404.131L62.9913 404.248H63.1081H63.2249C67.7224 405.009 72.103 406.12 76.6004 407.056L89.9759 409.806C94.415 410.742 98.854 411.678 103.351 412.614C107.79 413.55 112.23 414.544 116.669 415.539L116.493 416.007Z" fill="#2F2873"/>
<path d="M41.3802 484.393L20.0611 457.834L13.6946 454.675L5.16699 410.274L17.5496 384.826L38.5182 379.152L53.0035 386.23L51.1928 389.916L38.0509 383.481L20.47 388.336L9.48921 410.859L17.3159 451.867L22.6311 454.558L44.5342 481.819L41.3802 484.393Z" fill="#2F2873"/>
<path d="M11.4167 405.301L16.0894 407.641L24.2666 440.401L27.187 442.156L67.1967 496.854L75.6659 534.001C75.6659 534.001 53.4707 525.811 33.6119 524.641C13.753 523.471 9.66446 486.031 41.205 483.106L19.0682 455.085L13.753 449.176L7.32812 408.226L11.4167 405.301Z" fill="#2F2873"/>
<path d="M236.464 169.253C236.347 169.253 236.289 169.253 236.231 169.253H235.588L235.063 168.902C234.011 168.142 232.96 167.381 231.85 166.621C227.119 163.286 222.213 159.835 218.416 155.74C216.43 153.575 214.97 151.235 213.568 149.012C212.342 147.023 211.115 145.093 209.655 143.455C207.786 141.349 205.858 139.418 203.989 137.605C200.193 133.744 196.571 130.117 193.593 125.495C192.658 123.974 192.366 122.336 192.074 120.874C191.899 119.762 191.665 118.709 191.256 117.949C191.023 117.481 190.322 116.954 189.621 116.486C188.569 115.726 187.46 114.848 186.759 113.561C174.026 88.2309 172.449 63.5439 182.553 47.5733C190.847 34.4693 206.15 27.8588 226.944 28.3268C240.436 28.6193 251.884 31.6613 260.996 37.2188C268.939 42.0743 275.306 49.0358 279.979 57.9278C288.448 74.0154 290.083 93.4374 291.368 108.998C292.128 118.183 292.77 126.08 294.697 130.058C303.108 147.433 321.215 158.957 321.39 159.074L319.229 162.526C318.47 162.058 299.954 150.299 291.018 131.872C288.74 127.192 288.097 119.294 287.28 109.349C285.995 94.1394 284.418 75.1854 276.357 59.7998C267.012 41.8988 250.774 32.9483 226.885 32.3633C207.611 31.8953 193.534 37.9208 186.058 49.6793C176.713 64.4214 178.406 87.5874 190.439 111.631C190.672 112.04 191.431 112.625 192.074 113.093C193.067 113.795 194.177 114.673 194.819 115.843C195.578 117.188 195.871 118.709 196.104 120.055C196.338 121.283 196.513 122.395 197.039 123.214C199.784 127.484 203.23 130.936 206.91 134.621C208.779 136.493 210.765 138.482 212.692 140.647C214.444 142.577 215.729 144.683 217.073 146.789C218.358 148.895 219.701 151.06 221.453 152.932C224.958 156.734 229.689 160.01 234.245 163.228C235.179 163.871 236.055 164.515 236.932 165.158C239.91 165.041 253.578 163.403 264.909 145.093L268.355 147.257C255.213 168.493 238.684 169.253 236.464 169.253Z" fill="#2F2873"/>
<path d="M177.881 85.3059C177.881 85.3059 210.005 98.1759 227.528 65.4159C227.528 65.4159 235.121 66.0009 240.378 70.6809C245.634 75.3609 249.139 94.0809 263.741 96.4209L264.909 91.1559C264.909 91.1559 260.236 78.8709 263.157 72.4359C266.077 66.0009 274.839 58.9809 277.759 97.0059C280.679 113.971 290.55 120.581 290.55 120.581C290.55 120.581 290.609 49.6208 256.732 36.7508C222.855 23.8808 171.748 27.0983 177.881 85.3059Z" fill="#2F2873"/>
<path d="M266.325 27.031C268.516 17.922 260.631 8.20669 248.714 5.33134C236.796 2.456 225.36 7.50941 223.169 16.6185C220.978 25.7275 228.863 35.4428 240.78 38.3181C252.697 41.1935 264.134 36.1401 266.325 27.031Z" fill="#2F2873"/>
<path d="M248.438 162.818C249.139 163.754 249.606 164.69 250.015 165.685C250.424 166.621 250.716 167.615 250.949 168.61C251.183 169.604 251.3 170.599 251.3 171.593C251.3 172.588 251.241 173.641 251.3 174.636L251.417 177.677L251.475 180.72C251.475 182.767 251.475 184.756 251.417 186.804L251.008 186.862C250.424 184.932 249.956 182.943 249.489 180.954L248.788 177.97L248.146 174.986C247.912 173.992 247.678 172.997 247.386 172.061C247.153 171.067 246.978 170.072 246.978 169.078C246.978 168.083 247.036 167.03 247.211 166.036C247.386 164.983 247.62 163.93 248.087 162.877L248.438 162.818Z" fill="#2F2873"/>
<path d="M250.015 172.764C250.015 172.764 273.962 149.363 270.458 135.908L259.944 152.873L248.38 163.462L250.015 172.764Z" fill="#2F2873"/>
<path d="M267.713 94.8414C268.881 95.8944 270.049 96.8889 271.334 97.7664C271.918 98.2344 272.561 98.6439 273.203 98.9949C273.787 99.3459 274.43 99.6384 274.956 99.7554C275.072 99.8139 275.189 99.7554 275.306 99.8139C275.423 99.8139 275.481 99.7554 275.54 99.7554C275.54 99.6969 275.598 99.6969 275.598 99.6384C275.598 99.6384 275.598 99.6384 275.598 99.5799C275.598 99.5799 275.598 99.5214 275.54 99.5214V99.4629C275.54 99.4044 275.598 99.3459 275.598 99.2874C275.656 99.2289 275.656 99.1119 275.773 99.0534C275.832 98.9364 275.89 98.8194 275.948 98.7024C276.007 98.5854 276.124 98.4684 276.182 98.2929L276.416 97.8834C276.533 97.5909 276.708 97.2399 276.883 96.8889C277.058 96.5379 277.233 96.1869 277.467 95.8359C277.701 95.4849 277.934 95.0754 278.226 94.7244H278.635C279.219 95.4849 279.57 96.3624 279.745 97.1814C279.862 97.5909 279.862 98.0589 279.92 98.5269C279.92 98.9949 279.92 99.4629 279.803 99.9894C279.745 100.223 279.687 100.457 279.57 100.75C279.453 101.042 279.336 101.276 279.219 101.51C279.044 101.803 278.869 102.037 278.577 102.271C278.46 102.388 278.285 102.505 278.168 102.622C278.051 102.739 277.876 102.856 277.701 102.914C277 103.324 276.182 103.382 275.481 103.324C274.839 103.207 274.255 103.031 273.787 102.797C271.977 101.861 270.925 100.516 269.932 99.2289C268.998 97.8834 268.122 96.5379 267.479 95.0754L267.713 94.8414Z" fill="#2F2873"/>
<path d="M264.792 77.5839C265.026 76.8819 265.376 76.2384 265.727 75.6534C266.136 75.0684 266.603 74.4834 267.187 73.9569C267.479 73.7229 267.829 73.4304 268.238 73.2549C268.647 73.0794 269.173 72.7869 270.049 72.8454C270.458 72.8454 270.984 73.0209 271.392 73.3134C271.86 73.6059 272.152 73.9569 272.385 74.3079C272.619 74.6589 272.736 74.9514 272.794 75.2439C272.853 75.3609 272.853 75.5364 272.911 75.6534L272.969 75.8289C273.261 76.7649 273.554 78.0519 273.846 79.2804C273.962 79.9239 274.138 80.5674 274.196 81.2694C274.254 81.9714 274.254 82.6734 274.254 83.4339C274.196 84.1944 274.196 84.8964 274.021 85.6569C273.962 86.0664 273.846 86.4759 273.554 86.8269C273.32 87.2364 272.911 87.5289 272.502 87.7044C272.035 87.8799 271.86 87.9384 271.743 88.1139C271.684 88.1724 271.743 88.2309 271.86 88.1724C271.977 88.1139 272.035 87.9969 272.093 87.9969C272.152 87.9384 272.327 88.0554 272.502 88.1724C272.677 88.2894 272.911 88.4649 273.145 88.6989C273.554 89.1084 273.962 89.5764 274.371 90.1614C274.605 90.4539 274.78 90.7464 275.014 91.1559C275.131 91.3899 275.247 91.5654 275.306 91.9164C275.364 92.0919 275.423 92.3259 275.423 92.5599C275.423 92.8524 275.364 93.2619 275.189 93.6129C275.131 93.6714 274.955 93.8469 274.839 94.1394C274.78 94.2564 274.663 94.4319 274.546 94.6659C274.43 94.8999 274.313 95.1924 273.846 95.5434C273.612 95.7189 273.262 95.8359 273.028 95.7774C272.794 95.7774 272.619 95.7189 272.444 95.6604C272.152 95.5434 272.035 95.3679 271.86 95.1924C271.568 94.8999 271.392 94.5489 271.276 94.1979L271.509 93.8469C271.86 93.8469 272.21 93.9054 272.502 93.9054C272.619 93.9054 272.794 93.9054 272.853 93.8469C272.853 93.8469 272.853 93.7884 272.794 93.7299C272.736 93.7299 272.561 93.7299 272.444 93.7884C272.21 93.9054 272.21 93.9639 272.21 93.8469C272.21 93.7299 272.152 93.6129 272.152 93.4374C272.152 93.0864 272.152 92.6184 272.385 92.0919C272.269 92.3259 272.21 92.5599 272.21 92.6769C272.21 92.7939 272.21 92.8524 272.21 92.8524C272.21 92.9109 272.152 92.8524 272.093 92.7939L271.568 92.2089C271.159 91.7994 270.75 91.2729 270.399 90.6294C270.224 90.2784 270.049 89.9274 269.932 89.5179C269.815 89.1084 269.64 88.6404 269.699 87.8799C269.699 87.5289 269.874 87.0609 270.166 86.7684C270.458 86.4759 270.75 86.3004 270.984 86.2419C271.451 86.0664 271.976 86.1249 272.093 86.1249C272.502 86.1249 272.736 85.7739 272.736 85.2474C272.736 84.7209 272.502 84.1359 272.152 83.6094C271.86 83.0829 271.451 82.5564 271.1 82.0299C270.75 81.5034 270.516 80.9184 270.224 80.3334C269.64 79.1634 268.998 77.9934 268.764 76.4139L268.706 76.1214C268.706 76.0629 268.706 76.0629 268.706 76.0629C268.706 76.0629 268.706 76.0629 268.764 76.1214C268.822 76.1799 268.939 76.2969 269.114 76.4139C269.29 76.5309 269.465 76.5309 269.582 76.5309C269.757 76.4724 269.64 76.4139 269.465 76.4139C269.29 76.4139 269.056 76.4724 268.764 76.5309C268.238 76.6479 267.654 76.8819 267.012 77.0574C266.428 77.2914 265.785 77.4669 265.084 77.7009L264.792 77.5839Z" fill="#2F2873"/>
<path d="M191.314 115.726L198.908 109.876L207.085 110.461C207.085 110.461 214.094 118.066 213.51 126.256C212.926 134.446 213.802 139.418 217.306 138.248C220.811 137.078 224.607 138.541 226.359 135.616C228.112 132.691 229.28 131.521 226.359 129.181C226.359 129.181 231.616 130.351 229.864 134.446C228.112 138.541 227.352 139.243 221.103 140.881C215.554 142.343 215.846 147.316 210.881 142.343C206.092 137.546 213.51 122.746 205.917 116.311L200.368 116.018L194.235 119.821L191.314 115.726Z" fill="#2F2873"/>
<path d="M213.626 110.636C214.619 108.413 215.846 106.366 217.481 104.377C217.657 104.143 217.89 103.909 218.124 103.675C218.358 103.441 218.591 103.207 218.825 102.973C219.058 102.739 219.351 102.563 219.584 102.329C219.876 102.154 220.168 101.92 220.402 101.803L223.497 100.048C224.549 99.4629 225.542 98.8194 226.593 98.1759C227.645 97.5324 228.696 97.0644 229.806 96.6549C230.915 96.2454 232.084 95.9529 233.31 95.7189C234.537 95.4849 235.763 95.3094 237.048 95.3679L237.223 95.7189C236.406 96.7719 235.471 97.5909 234.537 98.3514C233.602 99.1119 232.609 99.7554 231.558 100.399C230.565 100.984 229.455 101.51 228.345 101.861C227.236 102.212 226.067 102.563 224.958 103.031L221.628 104.26L221.395 104.318L221.22 104.377L220.869 104.494C220.635 104.611 220.402 104.728 220.168 104.845L219.467 105.313C219.234 105.488 219 105.664 218.825 105.839C217.073 107.243 215.437 108.998 213.919 110.812L213.626 110.636Z" fill="#2F2873"/>
<path d="M235.705 104.201C233.895 105.02 232.084 105.722 230.273 106.366L227.645 107.36C226.769 107.653 225.893 108.004 225.192 108.355C224.608 108.647 224.14 109.057 223.615 109.525C223.147 110.051 222.622 110.636 222.154 111.338C221.687 112.04 221.278 112.859 220.928 113.678L220.344 115.024C220.227 115.258 220.11 115.492 219.993 115.784C219.818 116.077 219.701 116.369 219.292 116.779L217.365 114.497C217.657 114.322 217.832 114.205 218.124 114.088C218.358 113.971 218.592 113.854 218.825 113.795C219.292 113.62 219.818 113.444 220.344 113.386C220.636 113.327 220.869 113.327 221.161 113.269C221.454 113.269 221.746 113.269 221.979 113.269C222.505 113.327 222.972 113.386 223.439 113.444L226.009 113.971C226.418 114.029 226.827 114.088 227.236 114.146L227.528 114.205H227.762C227.937 114.205 228.112 114.205 228.287 114.146C228.988 114.029 229.689 113.62 230.39 113.152C231.091 112.684 231.733 112.099 232.318 111.514C233.486 110.285 234.595 108.881 235.588 107.419L235.939 107.594C235.18 109.232 234.245 110.753 233.194 112.216C232.668 112.918 232.025 113.62 231.325 114.263C230.624 114.907 229.806 115.492 228.813 115.784C228.579 115.901 228.287 115.901 227.995 115.96L227.586 116.018H227.236C226.769 116.018 226.301 116.018 225.834 116.018L223.206 115.843C222.797 115.843 222.388 115.784 221.979 115.843C221.804 115.843 221.629 115.843 221.454 115.901C221.278 115.901 221.161 115.96 220.986 116.018C220.636 116.135 220.344 116.252 219.993 116.428C219.818 116.486 219.701 116.603 219.526 116.72C219.409 116.779 219.176 116.954 219.117 117.013L217.19 114.731C217.131 114.79 217.19 114.673 217.248 114.497C217.307 114.322 217.365 114.146 217.423 113.912L217.832 112.567C218.124 111.631 218.416 110.636 218.825 109.583C219.234 108.589 219.818 107.536 220.636 106.658C221.454 105.722 222.563 104.962 223.731 104.552C224.841 104.201 225.776 104.026 226.827 103.85C227.82 103.675 228.813 103.616 229.806 103.558C231.792 103.499 233.778 103.499 235.764 103.85L235.705 104.201Z" fill="#2F2873"/>
<path d="M226.068 114.263C227.358 114.263 228.404 113.216 228.404 111.923C228.404 110.631 227.358 109.583 226.068 109.583C224.777 109.583 223.731 110.631 223.731 111.923C223.731 113.216 224.777 114.263 226.068 114.263Z" fill="#2F2873"/>
<path d="M202.12 121.868C203.41 121.868 204.456 120.821 204.456 119.528C204.456 118.236 203.41 117.188 202.12 117.188C200.83 117.188 199.784 118.236 199.784 119.528C199.784 120.821 200.83 121.868 202.12 121.868Z" fill="#2F2873"/>
<path d="M227.177 105.956C228.17 105.43 229.105 105.488 229.981 105.781C230.215 105.839 230.39 105.956 230.565 106.073C230.74 106.19 230.915 106.366 231.091 106.541C231.383 106.892 231.675 107.302 231.908 107.711C232.025 107.887 232.142 108.121 232.259 108.355L232.434 108.706L232.551 109.057C232.726 109.525 232.726 110.051 232.726 110.519C232.668 111.514 232.2 112.274 231.675 112.918L231.441 112.801C231.5 111.982 231.558 111.28 231.324 110.695C231.208 110.402 231.091 110.168 230.857 109.934L230.74 109.759L230.565 109.583C230.448 109.466 230.331 109.349 230.215 109.291C229.981 109.115 229.63 108.998 229.338 108.881C229.046 108.764 228.754 108.589 228.521 108.355C228.053 107.828 227.528 107.302 227.061 106.249L227.177 105.956Z" fill="#2F2873"/>
<path d="M208.72 118.768C208.837 119.762 208.487 120.523 208.136 121.166C207.727 121.81 207.26 122.395 206.676 122.746C206.092 123.097 205.391 123.214 204.69 123.331C203.989 123.448 203.405 123.565 202.704 123.74C202.003 123.857 201.302 123.916 200.602 123.916C199.901 123.916 199.2 123.799 198.499 123.565C197.155 123.155 195.929 122.336 195.286 121.166L195.578 120.932C196.571 121.576 197.74 121.868 198.791 121.81C199.842 121.751 200.894 121.459 201.828 120.991L202.179 120.815L202.529 120.581C202.763 120.406 202.996 120.289 203.23 120.113C203.697 119.762 204.048 119.294 204.573 119.119C205.041 118.885 205.625 118.768 206.209 118.709C206.793 118.651 207.494 118.592 208.37 118.651L208.72 118.768Z" fill="#2F2873"/>
<path d="M217.832 152.698C218.767 152.054 219.701 151.469 220.636 150.884C221.103 150.592 221.57 150.358 222.037 150.065C222.271 149.89 222.446 149.714 222.68 149.539C222.914 149.363 223.147 149.305 223.381 149.305C223.673 149.363 223.907 149.246 224.14 149.129L224.899 148.895L226.418 148.486C227.411 148.193 228.346 147.901 229.28 147.55C231.149 146.848 232.843 145.97 234.245 144.625C235.705 143.279 236.815 141.524 237.808 139.652L238.217 139.769C237.983 141.934 237.282 144.098 235.939 146.029C234.654 147.959 232.668 149.48 230.682 150.592C229.689 151.118 228.638 151.586 227.645 152.054L226.126 152.639L225.367 152.932C225.133 153.049 224.841 153.108 224.607 153.283C224.14 153.576 223.498 153.517 222.914 153.458C222.329 153.458 221.804 153.458 221.22 153.458C220.11 153.4 218.942 153.341 217.832 153.107V152.698Z" fill="#2F2873"/>
<path d="M221.979 154.628C221.979 154.628 230.448 153.751 231.324 152.288C231.733 151.586 227.82 157.553 230.156 160.479C232.493 163.404 221.979 154.628 221.979 154.628Z" fill="#2F2873"/>
<path d="M217.89 149.948L221.979 150.533L219.059 152.288L217.89 149.948Z" fill="#2F2873"/>
<path d="M140.207 274.905C139.039 271.395 134.366 269.581 127.825 269.698C127.766 268.996 127.65 268.353 127.533 267.651C126.598 262.327 124.32 259.051 121.108 258.408C117.37 257.706 113.339 260.748 110.01 266.247C104.053 263.79 99.0294 263.673 96.401 266.481C94.1815 268.879 94.2399 272.857 96.6347 277.713C96.9267 278.298 97.2772 278.883 97.6276 279.526C92.3125 283.329 89.5672 287.541 90.7354 291.051C91.9036 294.561 96.5763 296.374 103.118 296.257C103.176 296.959 103.293 297.603 103.41 298.305C104.345 303.628 106.623 306.904 109.835 307.548C110.886 307.723 111.879 307.665 112.931 307.314C115.734 306.436 118.479 303.687 120.933 299.709C125.255 301.522 129.11 302.049 131.855 301.113C132.906 300.762 133.782 300.235 134.483 299.475C136.703 297.076 136.644 293.098 134.25 288.243C133.958 287.658 133.607 287.073 133.257 286.429C138.63 282.627 141.375 278.415 140.207 274.905ZM120.524 261.274C122.393 261.625 123.911 264.199 124.612 268.177C124.729 268.704 124.788 269.23 124.846 269.815C122.802 269.991 120.641 270.342 118.363 270.81C116.494 269.523 114.624 268.411 112.872 267.475C114.916 264.141 117.136 261.976 119.005 261.391C119.472 261.274 119.998 261.216 120.524 261.274ZM127.065 282.919C127.825 283.797 128.526 284.733 129.168 285.61C128.234 286.195 127.182 286.78 126.072 287.307C126.248 286.605 126.481 285.844 126.598 285.084C126.773 284.382 126.949 283.621 127.065 282.919ZM123.619 284.557C123.269 286.078 122.86 287.599 122.393 289.003C120.991 289.588 119.531 290.115 117.954 290.641C116.377 291.168 114.858 291.577 113.398 291.928C112.23 291.051 111.003 290.115 109.835 289.062C108.667 288.067 107.557 287.014 106.506 285.903C106.739 284.44 107.031 282.919 107.382 281.398C107.732 279.819 108.141 278.356 108.608 276.952C110.01 276.367 111.47 275.841 113.047 275.314C114.624 274.788 116.143 274.378 117.603 274.027C118.771 274.905 119.998 275.841 121.225 276.894C122.393 277.888 123.503 278.941 124.554 280.053C124.262 281.515 123.97 283.036 123.619 284.557ZM119.648 295.789C118.655 295.263 117.662 294.736 116.61 294.093C117.37 293.859 118.071 293.625 118.83 293.391C119.589 293.157 120.348 292.864 121.049 292.63C120.641 293.742 120.173 294.795 119.648 295.789ZM107.791 291.285C108.375 291.811 108.959 292.279 109.543 292.747C108.316 292.923 107.148 293.098 106.038 293.215C106.038 292.104 106.038 290.992 106.097 289.764C106.623 290.232 107.207 290.758 107.791 291.285ZM103.936 283.036C103.176 282.159 102.475 281.223 101.833 280.345C102.768 279.76 103.819 279.175 104.929 278.649C104.753 279.351 104.52 280.111 104.345 280.872C104.228 281.574 104.053 282.334 103.936 283.036ZM111.295 270.166C112.288 270.693 113.281 271.219 114.332 271.863C113.573 272.097 112.872 272.331 112.113 272.565C111.354 272.799 110.653 273.091 109.893 273.325C110.361 272.214 110.828 271.161 111.295 270.166ZM123.21 274.671C122.626 274.144 122.042 273.676 121.458 273.208C122.685 273.033 123.853 272.857 124.963 272.74C124.963 273.852 124.963 274.963 124.904 276.192C124.32 275.724 123.795 275.197 123.21 274.671ZM99.4383 276.426C97.6276 272.799 97.3356 269.815 98.679 268.411C99.0294 268.06 99.4967 267.768 100.022 267.592C101.891 267.007 104.929 267.417 108.55 268.879C107.615 270.693 106.798 272.682 106.038 274.846C103.877 275.782 101.95 276.777 100.198 277.888C99.9639 277.362 99.6719 276.894 99.4383 276.426ZM93.6558 290.115C93.0133 288.126 95.0576 285.084 99.263 282.042C100.431 283.68 101.775 285.376 103.293 286.956C103.001 289.179 102.884 291.285 102.943 293.332C97.8028 293.332 94.2983 292.104 93.6558 290.115ZM110.477 304.681C108.608 304.33 107.09 301.756 106.389 297.778C106.272 297.252 106.214 296.725 106.155 296.14C108.2 295.965 110.361 295.614 112.639 295.146C114.508 296.433 116.377 297.544 118.129 298.48C115.501 302.751 112.58 305.091 110.477 304.681ZM131.504 289.53C133.315 293.157 133.607 296.14 132.264 297.544C130.804 299.124 127.065 299.007 122.393 297.076C123.327 295.263 124.145 293.274 124.904 291.109C127.065 290.173 128.993 289.179 130.745 288.067C131.037 288.594 131.271 289.062 131.504 289.53ZM131.68 283.914C130.512 282.276 129.168 280.579 127.65 279C127.942 276.777 128.058 274.671 128 272.623C133.14 272.623 136.644 273.852 137.287 275.841C137.988 277.888 135.885 280.93 131.68 283.914Z" fill="#2F2873"/>
<path d="M116.575 287.443C118.968 286.663 120.3 284.163 119.551 281.858C118.802 279.554 116.255 278.319 113.863 279.099C111.47 279.879 110.138 282.38 110.887 284.684C111.636 286.988 114.183 288.223 116.575 287.443Z" fill="#2F2873"/>
<path d="M31.334 273.033L32.2101 279.936L30.2826 280.17L29.9322 277.479L27.2454 277.83L27.5958 280.521L25.6684 280.755L24.7922 273.852L26.7197 273.618L27.0702 276.192L29.7569 275.841L29.4065 273.267L31.334 273.033Z" fill="#2F2873"/>
<path d="M34.3712 274.203L32.2685 274.495L32.0933 272.974L38.2846 272.155L38.4598 273.676L36.3571 273.969L37.058 279.351L35.1305 279.585L34.3712 274.203Z" fill="#2F2873"/>
<path d="M46.1112 278.181L45.6439 274.495L44.2421 277.713L43.366 277.83L41.2049 275.197L41.6721 278.766L39.8615 279L38.9854 272.097L40.5624 271.863L43.4828 275.548L45.3519 271.278L46.9289 271.044L47.8634 277.947L46.1112 278.181Z" fill="#2F2873"/>
<path d="M48.3892 270.868L50.3166 270.634L51.0175 276.016L54.2884 275.607L54.4637 277.128L49.2069 277.83L48.3892 270.868Z" fill="#2F2873"/>
<path d="M45.8776 325.8C45.644 325.8 45.4103 325.741 45.1767 325.683L29.6401 320.125C28.8808 319.833 28.1799 318.487 28.0631 317.902L21.2293 273.618C21.0541 272.565 21.8134 271.57 22.8647 271.395L53.938 266.013C54.4636 265.896 55.0477 266.071 55.4566 266.364C55.8654 266.715 56.1575 267.183 56.2159 267.709L60.7133 311.292C60.8302 312.169 59.37 313.515 59.37 313.515L47.1626 325.215C46.8122 325.624 46.3449 325.8 45.8776 325.8ZM22.3975 273.442L29.2312 317.727C29.2897 318.078 29.8153 318.897 30.049 319.014L45.5856 324.571C45.8776 324.688 46.2281 324.63 46.4617 324.396L58.6691 312.696C59.0779 312.345 59.6036 311.643 59.662 311.409L55.1645 267.885C55.1645 267.651 55.0477 267.475 54.8725 267.358C54.6973 267.241 54.4636 267.183 54.23 267.183L23.1568 272.565C22.6311 272.623 22.3391 273.033 22.3975 273.442Z" fill="#2F2873"/>
<path d="M55.0478 281.281C54.9893 280.462 54.23 279.877 53.4123 279.994L27.187 283.153C26.3692 283.27 25.7852 284.031 25.9604 284.791L30.8667 316.381C30.9251 316.908 31.334 317.317 31.8012 317.493L44.7679 322.173C45.2936 322.348 45.8192 322.231 46.2281 321.88L57.3257 311.818C57.6761 311.526 57.8513 311.058 57.7929 310.59L55.0478 281.281ZM52.361 307.723L45.0015 314.568C44.7679 314.802 44.4174 314.86 44.067 314.743L35.1305 311.643C34.7801 311.526 34.5464 311.233 34.5464 310.882L33.9623 305.793C33.9039 305.325 34.2544 304.857 34.7801 304.798L37.058 304.564C37.5252 304.506 37.9925 304.857 38.0509 305.383L38.343 307.899C38.4014 308.25 38.635 308.542 38.927 308.659L43.074 310.122C43.3661 310.239 43.7165 310.18 44.0086 309.946L48.0971 306.144C48.2724 305.968 48.3892 305.676 48.3892 305.383L48.0971 302.224C48.0387 301.698 47.6299 301.347 47.1042 301.405L34.488 302.809C34.0207 302.868 33.5535 302.517 33.4951 302.049L31.6844 289.53C31.626 289.003 31.9765 288.535 32.5021 288.477L49.2069 286.663C49.6742 286.605 50.1414 286.956 50.1998 287.482L50.4335 289.764C50.4919 290.232 50.1414 290.7 49.6158 290.758L37.1164 292.104C36.5907 292.162 36.2403 292.63 36.2987 293.157L36.9412 297.544C36.9996 298.012 37.4668 298.363 37.9341 298.305L50.7839 296.901C51.3096 296.842 51.7185 297.193 51.7769 297.72L52.5946 307.08C52.653 307.255 52.5362 307.489 52.361 307.723Z" fill="#2F2873"/>
<path d="M92.1955 322.056C92.8964 321.354 92.9548 320.242 92.2539 319.54C90.4432 317.668 86.8219 314.86 83.4927 317.083C78.7032 320.242 78.0607 317.317 75.1987 319.189C69.4747 323.05 73.388 345.397 81.7404 342.355C88.1653 340.015 86.9972 343.057 90.5017 342.355C92.9548 341.829 94.9991 339.021 95.8168 337.149C96.1673 336.388 95.9336 335.569 95.2911 335.043C92.6044 333.112 86.6467 327.321 92.1955 322.056Z" fill="#2F2873"/>
<path d="M80.0466 315.679C80.0466 315.679 78.2943 307.197 87.4644 306.144C87.4644 306.144 87.8733 312.52 80.0466 315.679Z" fill="#2F2873"/>
<path d="M61.7649 340.366C52.5947 334.926 40.8546 337.792 35.4811 346.86C31.1588 354.172 32.2686 363.181 37.7006 369.265C37.8174 369.382 38.051 369.382 38.1094 369.207L38.9856 367.744C39.044 367.627 38.9856 367.452 38.8688 367.393C35.1306 365.17 35.3058 362.772 35.5395 359.788C35.7731 356.805 33.6704 352.417 36.5908 354.114C39.4528 355.81 37.2917 360.841 39.6281 362.187L41.4387 363.24C41.5555 363.298 41.6724 363.298 41.7892 363.181C42.2564 362.596 42.8405 362.128 43.483 361.836C43.6582 361.777 43.6582 361.543 43.5414 361.426C40.6794 358.443 39.9785 353.704 42.198 349.96C43.5998 347.62 45.8194 346.099 48.3309 345.573C48.4477 345.573 48.5061 345.456 48.5061 345.397C48.7398 343.993 50.3168 342.648 50.7841 342.238C50.8425 342.18 51.0177 342.18 51.0761 342.238C52.3611 343.116 53.1204 344.871 53.4709 345.807C53.4709 345.865 53.5293 345.924 53.5877 345.924C54.1134 346.099 54.639 346.392 55.1647 346.684L60.5967 349.902C61.4144 350.37 62.1153 350.955 62.6994 351.657C62.7578 351.715 62.8162 351.774 62.933 351.715C63.9844 351.598 65.503 351.598 66.7296 352.183C66.8464 352.242 66.9048 352.359 66.8464 352.476C66.7296 353.119 66.3207 355.108 65.1525 355.986C65.0941 356.044 65.0357 356.161 65.0357 356.22C65.4446 358.443 65.1525 360.783 63.8675 362.889C61.4728 366.925 56.4497 368.505 52.2443 366.867C52.0691 366.808 51.8938 366.925 51.8938 367.101C51.8938 367.92 51.7186 368.68 51.3097 369.441L48.0389 374.94C47.9221 375.115 48.0389 375.291 48.2141 375.349C56.0408 377.046 64.3348 373.711 68.5986 366.574C73.9722 357.565 70.8766 345.807 61.7649 340.366Z" fill="#2F2873"/>
<path d="M52.2442 379.035C48.3308 379.035 44.3006 377.982 40.6793 375.817C30.049 369.441 26.4861 355.693 32.7358 345.222C38.9855 334.692 52.7698 331.299 63.4002 337.675C74.0305 344.052 77.5934 357.799 71.3437 368.271C67.1967 375.232 59.8373 379.035 52.2442 379.035ZM51.7769 336.213C44.7679 336.213 37.9925 339.723 34.196 346.099C28.4136 355.81 31.7428 368.446 41.5555 374.296C51.3681 380.146 64.0427 377.046 69.8251 367.335C75.6075 357.624 72.2782 344.988 62.4656 339.138C59.1364 337.149 55.4566 336.213 51.7769 336.213Z" fill="#2F2873"/>
<path d="M149.494 329.719L115.384 325.683C114.566 325.624 113.865 326.268 113.807 327.087L110.536 372.541C110.477 373.068 110.886 374.355 111.354 374.647L126.481 383.598C126.949 383.89 127.591 383.949 128.058 383.656L143.712 378.274C144.121 378.04 145.289 377.163 145.347 376.695L150.896 331.357C151.013 330.538 150.37 329.778 149.494 329.719ZM125.08 374.764C125.021 375.232 124.554 375.525 124.087 375.349L114.916 370.728C114.683 370.611 114.508 370.318 114.566 370.026L115.033 365.638C115.092 365.17 115.559 364.878 116.026 365.112L120.056 367.159C120.465 367.393 120.991 367.101 121.049 366.574L122.685 336.096C122.685 335.745 122.977 335.452 123.386 335.452H127.299C127.708 335.452 128 335.803 128 336.154L125.08 374.764ZM145.581 342.297C145.522 342.706 145.172 342.94 144.763 342.882L136.878 341.419C136.469 341.361 136.119 341.653 136.06 342.004L135.009 353.997C134.951 354.348 135.243 354.699 135.651 354.757L143.595 355.225C144.004 355.225 144.296 355.576 144.237 355.986L142.076 372.366C142.018 372.658 141.843 372.834 141.551 372.951L129.519 376.11C129.051 376.227 128.642 375.876 128.701 375.408L129.11 371.079C129.168 370.786 129.402 370.494 129.694 370.494L136.82 369.499C137.112 369.441 137.345 369.207 137.404 368.914L138.397 360.783C138.455 360.373 138.163 360.022 137.754 360.022L130.395 359.554C130.044 359.554 129.752 359.203 129.752 358.852L131.388 336.33C131.446 335.92 131.796 335.628 132.205 335.686L145.464 338.319C145.815 338.377 146.048 338.728 145.99 339.079L145.581 342.297Z" fill="#2F2873"/>
<path d="M408.302 505.044L395.452 534.294L339.964 558.864L304.452 526.045C304.452 526.045 312.512 533.709 310.76 555.939C309.007 578.169 305.503 576.999 296.742 579.339C287.98 581.679 275.131 576.414 265.785 570.564C256.44 564.714 251.767 565.299 247.679 561.789C243.59 558.279 218.474 567.639 217.89 553.014L193.943 551.259L139.623 536.049L109.251 553.014L74.2057 543.069L71.8694 533.709C71.8694 533.709 45.0016 526.689 37.9926 526.689C30.9836 526.689 18.7178 523.764 16.9655 509.139C16.9655 509.139 -20.4158 526.104 15.7974 536.634C52.0106 547.164 59.0196 588.699 106.33 573.489C153.641 558.279 217.306 588.699 238.917 589.869C260.528 591.039 313.096 609.174 332.371 596.304C351.646 583.434 444.807 590.747 458.533 553.599C470.215 522.009 408.302 505.044 408.302 505.044Z" fill="#2F2873"/>
<path d="M198.032 504.459C198.032 504.459 237.165 495.684 247.679 488.664L249.431 494.514L258.192 496.854L272.21 506.799C272.21 506.799 262.281 507.969 259.945 506.799C257.608 505.629 251.183 497.439 242.422 498.609C233.661 499.779 220.811 509.139 218.475 508.554C216.138 507.969 198.032 504.459 198.032 504.459Z" fill="#2F2873"/>
</svg>
