<svg width="460" height="601" viewBox="0 0 460 601" fill="none" xmlns="http://www.w3.org/2000/svg">
<path d="M349.017 412.478L348.375 408.448C348.784 408.389 391.889 401.322 428.745 374.571C428.102 371.592 426.934 364.058 427.869 351.325C427.986 349.981 428.102 348.463 428.219 346.885C429.504 329.655 431.957 297.589 425.649 280.358L429.504 278.957C436.104 297.063 433.593 329.655 432.308 347.178C432.191 348.755 432.074 350.273 431.957 351.617C430.848 367.27 433.009 374.746 433.067 374.805L433.476 376.206L432.308 377.083C394.342 405.06 349.485 412.361 349.017 412.478Z" fill="#2F2873"/>
<path d="M316.601 373.053C316.601 373.053 362.159 347.937 389.611 345.601C389.611 345.601 334.123 366.044 320.689 375.973L316.601 373.053Z" fill="#2F2873"/>
<path d="M354.543 343.073L313.098 355.335L314.258 359.256L355.703 346.994L354.543 343.073Z" fill="#2F2873"/>
<path d="M376.761 350.039L372.673 349.923C372.673 349.864 372.906 341.395 371.213 327.786C369.46 313.768 370.57 288.243 370.629 287.134L370.687 285.732L372.03 285.323C372.264 285.265 377.229 283.629 386.457 281.994C394.926 280.475 408.711 278.548 426.35 278.256L426.409 282.344C398.197 282.811 379.623 287.484 374.6 288.828C374.367 294.493 373.724 315.52 375.243 327.319C377.053 341.278 376.761 349.689 376.761 350.039Z" fill="#2F2873"/>
<path d="M370.92 286.024C370.92 286.024 439.842 260.324 450.355 277.847C453.86 284.272 431.665 295.369 431.665 295.369L426.992 280.767C426.992 280.767 404.797 279.015 370.92 286.024Z" fill="#2F2873"/>
<path d="M450.355 277.847C450.355 277.847 441.01 258.572 439.258 248.642C437.506 238.713 425.24 190.234 411.806 184.393C411.806 184.393 360.991 162.198 314.264 157.525L300.246 182.057C300.246 182.057 278.635 201.332 258.776 204.836C258.776 204.836 252.351 200.748 247.094 190.234L250.015 175.048C250.015 175.048 219.642 187.898 199.783 206.004C199.783 206.004 182.261 270.838 184.597 293.617C184.597 293.617 193.943 298.29 201.536 300.042C201.536 300.042 205.04 348.521 202.704 352.609L205.624 355.53H219.058L251.183 365.459L280.971 357.282L317.184 373.052C317.184 373.052 348.55 358.917 349.309 359.034C349.718 359.093 375.009 348.521 375.009 348.521L372.672 287.192C372.672 287.192 396.036 278.431 450.355 277.847Z" fill="#2F2873"/>
<path d="M351.646 411.018L370.336 430.293L379.097 431.461L389.027 423.868L390.779 402.841L390.195 399.92L393.7 397.584L396.036 403.425L395.452 425.62L392.531 430.877C392.531 430.877 402.461 427.956 403.045 425.62L408.302 391.159L351.646 411.018Z" fill="#2F2873"/>
<path d="M426.409 278.431L411.807 282.519C411.807 282.519 426.526 288.418 428.745 289.528L426.409 278.431Z" fill="#2F2873"/>
<path d="M391.947 471.763L386.69 444.895L381.434 446.063L391.947 471.763Z" fill="#2F2873"/>
<path d="M386.106 445.479L391.947 446.063L405.965 442.558L406.549 427.956L404.797 426.204L394.867 432.045L380.849 433.213L370.92 432.045L382.018 446.063L386.106 445.479Z" fill="#2F2873"/>
<path d="M341.248 553.826C341.131 553.826 341.015 553.826 340.956 553.826L340.372 553.768L339.905 553.417L259.009 493.432L253.285 491.505L250.248 485.956C241.896 489.11 204.397 502.894 179.107 507.041L178.464 507.158L125.196 479.94L125.312 478.538C126.305 468.725 126.597 457.102 125.371 455.174L123.151 453.422L194.526 410.959L211.582 385.084L241.604 375.097L256.264 361.604L282.606 355.471L319.871 372.293L320.163 372.643C341.891 398.752 378.279 440.864 383.302 442.617H383.244L382.485 446.647C380.966 446.355 377.812 445.771 346.797 410.2C332.896 394.255 319.52 378.251 317.359 375.622L282.197 359.735L258.308 365.284L243.765 378.66L214.21 388.531L197.447 413.997L197.038 414.23L129.459 454.415C130.102 456.459 130.452 460.139 130.16 467.148C129.985 471.354 129.693 475.501 129.459 477.545L179.048 502.894C207.143 498.163 249.956 481.692 250.423 481.517L252.117 480.874L256.089 488.175L260.878 489.752L341.657 549.621C346.68 548.336 373.49 536.362 390.428 528.594L403.278 502.894L397.496 442.149L401.584 441.741L407.483 503.653L393.465 531.689L392.823 531.982C392.706 532.04 380.791 537.53 368.583 542.904C345.804 553.009 342.416 553.826 341.248 553.826Z" fill="#2F2873"/>
<path d="M215.554 403.425L136.644 454.824C136.644 454.824 137.812 460.023 136.06 470.361L166.199 496.294L128.525 477.837V451.32L195.695 412.186L215.554 403.425Z" fill="#2F2873"/>
<path d="M239.501 380.061C239.501 380.061 250.599 376.557 257.023 375.389C257.023 375.389 252.351 374.221 242.421 376.557L239.501 380.061Z" fill="#2F2873"/>
<path d="M172.332 501.551L258.776 475.267L260.529 479.356L341.716 530.171C341.716 530.171 382.602 527.251 389.027 520.242C395.452 513.233 403.629 502.135 403.629 502.135L390.195 532.507L338.796 551.782L257.9 491.037L253.753 488.409L249.606 484.671L185.182 505.055L174.026 503.77L172.332 501.551Z" fill="#2F2873"/>
<path d="M166.608 499.39L165.206 495.535C169.703 493.841 209.421 479.064 215.379 478.48C217.19 478.304 218.124 477.311 219.467 475.91C221.395 473.865 223.79 471.295 229.455 470.886C237.749 470.361 248.905 465.279 253.753 459.906C259.477 453.539 265.902 452.838 266.194 452.838L267.304 452.721L268.005 453.598C268.063 453.714 275.89 463.352 283.6 459.438C290.667 455.934 296.216 458.095 301.064 459.964C303.459 460.899 305.678 461.775 308.19 462.125C316.25 463.293 371.329 471.412 371.855 471.471L371.271 475.501C370.745 475.442 315.666 467.324 307.606 466.155C304.685 465.747 302.057 464.695 299.604 463.761C294.931 461.95 290.901 460.314 285.469 463.06C283.483 464.053 281.556 464.462 279.745 464.462C273.145 464.462 267.713 459.263 265.668 457.044C263.975 457.452 260.295 458.796 256.849 462.592C251.3 468.784 239.151 474.333 229.747 474.975C225.717 475.267 224.199 476.844 222.446 478.713C220.928 480.349 219.175 482.218 215.788 482.568C211.641 482.977 184.13 492.848 166.608 499.39Z" fill="#2F2873"/>
<path d="M365.664 474.683C365.664 474.683 385.523 478.187 390.196 477.019L369.753 471.178L365.664 474.683Z" fill="#2F2873"/>
<path d="M271.042 417.443C273.32 419.195 275.189 421.239 276.941 423.459C277.817 424.569 278.577 425.737 279.336 426.963C280.037 428.248 280.738 429.475 281.147 431.169C281.205 431.402 281.263 431.636 281.263 431.811L281.322 432.395C281.38 432.804 281.38 433.155 281.38 433.564C281.38 434.323 281.38 435.082 281.322 435.783C281.205 437.243 280.913 438.587 280.679 439.872C280.563 440.514 280.504 441.098 280.446 441.507C280.387 441.507 280.504 441.858 280.504 442.15C280.504 442.383 280.504 442.675 280.504 442.851C280.446 443.318 280.329 443.668 280.212 444.077C279.92 444.778 279.628 445.42 279.278 446.005C279.102 446.297 278.986 446.589 278.81 446.881C278.693 447.173 278.577 447.465 278.577 447.874C278.285 447.582 278.226 447.173 278.168 446.822C278.109 446.472 278.109 446.063 278.109 445.713C278.109 445.012 278.168 444.311 278.168 443.668C278.168 443.376 278.168 443.084 278.051 442.851C278.051 442.734 277.993 442.617 277.934 442.558C277.876 442.5 277.876 442.5 277.759 442.208C277.584 441.741 277.525 441.332 277.467 440.865C277.409 440.456 277.408 440.105 277.35 439.696C277.292 438.236 277.35 436.893 277.292 435.608C277.292 434.965 277.292 434.323 277.233 433.739C277.233 433.447 277.175 433.155 277.175 432.863L277.116 432.395C277.116 432.279 277.058 432.162 277.058 432.045C277 431.928 277.058 431.811 277 431.695L276.883 431.286C276.824 431.052 276.708 430.76 276.591 430.468C276.416 429.884 276.124 429.3 275.831 428.716C275.306 427.548 274.722 426.321 274.138 425.094C273.086 422.641 271.918 420.13 271.042 417.443Z" fill="#2F2873"/>
<path d="M258.192 429.708C259.828 430.409 261.405 431.286 262.865 432.278C264.325 433.271 265.785 434.381 267.07 435.783C267.421 436.133 267.713 436.484 268.005 436.951C268.297 437.36 268.531 437.827 268.823 438.353C268.94 438.645 268.998 438.937 269.115 439.229L269.173 439.463L269.232 439.638L269.29 439.988C269.407 440.514 269.407 440.923 269.465 441.449C269.582 443.318 269.524 445.07 269.465 446.822C269.29 450.327 268.881 453.831 268.589 457.219C268.531 458.037 268.472 458.913 268.414 459.73C268.355 460.139 268.414 460.49 268.414 460.899C268.414 461.249 268.414 461.658 268.472 461.95C268.531 462.651 268.764 463.293 268.998 463.877C269.115 464.169 269.29 464.403 269.465 464.637C269.582 464.754 269.64 464.87 269.757 464.929C269.816 464.987 269.874 465.046 269.874 465.046C269.874 465.046 269.991 465.104 269.932 465.104L270.809 466.798C270.517 467.791 270.166 468.725 269.757 469.66C269.407 470.594 268.998 471.529 268.531 472.405C268.063 473.281 267.596 474.216 267.012 475.033C266.72 475.442 266.428 475.851 266.019 476.202C265.669 476.552 265.201 476.902 264.676 476.961C265.085 476.727 265.377 476.318 265.552 475.851C265.785 475.442 265.961 474.975 266.078 474.508C266.37 473.573 266.603 472.639 266.837 471.704C267.07 470.77 267.246 469.835 267.421 468.842C267.596 467.908 267.771 466.915 267.888 466.039L268.764 467.732C268.472 467.616 268.414 467.557 268.239 467.499C268.122 467.44 267.947 467.323 267.83 467.265C267.596 467.09 267.362 466.915 267.129 466.739C266.72 466.331 266.311 465.922 266.019 465.454C265.377 464.52 265.026 463.527 264.793 462.476C264.559 461.483 264.5 460.431 264.442 459.497C264.442 458.562 264.442 457.686 264.5 456.752C264.676 453.189 265.085 449.743 265.435 446.296C265.61 444.603 265.785 442.909 265.902 441.273C265.961 440.514 265.961 439.638 265.844 439.229C265.669 438.645 265.377 437.944 264.909 437.302C264.092 435.958 262.923 434.673 261.814 433.388C261.522 433.038 261.23 432.746 260.938 432.454C260.646 432.103 260.353 431.811 260.061 431.519L258.192 429.708Z" fill="#2F2873"/>
<path d="M229.864 334.795C225.834 338.358 221.745 341.862 217.657 345.367C213.568 348.813 209.421 352.259 205.216 355.705C196.864 362.539 188.453 369.197 179.983 375.856L180.743 374.571C180.626 375.622 180.451 376.674 180.217 377.725C179.983 378.776 179.75 379.769 179.399 380.821C179.107 381.814 178.699 382.865 178.29 383.858C177.822 384.851 177.355 385.844 176.713 386.837C176.362 385.727 176.245 384.617 176.129 383.508C176.012 382.398 176.012 381.346 176.012 380.295C176.07 379.244 176.129 378.192 176.245 377.083C176.362 376.031 176.537 374.98 176.771 373.929L176.946 373.111L177.53 372.644C186.058 366.102 194.702 359.677 203.405 353.369C207.727 350.215 212.108 347.061 216.547 343.965C220.928 340.869 225.367 337.774 229.864 334.795Z" fill="#2F2873"/>
<path d="M193.826 382.807C194.235 382.106 194.644 381.463 195.111 380.762C195.578 380.12 196.046 379.536 196.513 378.893C197.506 377.725 198.557 376.557 199.609 375.506L199.901 375.214L200.602 375.038C201.711 374.746 202.821 374.513 203.931 374.396C205.041 374.279 206.209 374.162 207.319 374.104C209.596 373.929 211.874 373.637 214.094 373.403L220.052 372.76L215.145 375.856C213.451 376.966 211.758 378.017 210.005 379.069C208.311 380.12 206.559 381.171 204.807 382.223L204.573 381.872C206.034 380.47 207.494 379.069 209.012 377.725C210.473 376.323 211.991 374.98 213.51 373.637L214.561 376.09C212.342 376.615 210.122 377.083 207.903 377.725C206.793 378.017 205.683 378.309 204.573 378.601C203.464 378.835 202.354 379.01 201.186 379.127L202.12 378.66C200.894 379.536 199.609 380.354 198.207 381.113C197.506 381.463 196.863 381.872 196.104 382.164C195.403 382.515 194.644 382.807 193.885 383.04L193.826 382.807Z" fill="#2F2873"/>
<path d="M212.692 363.882C211.349 364.583 210.006 365.226 208.604 365.927L204.515 367.913L200.427 369.84L196.28 371.709L196.981 371.242C195.812 372.761 194.761 374.454 193.534 375.915C192.892 376.674 192.191 377.316 191.49 378.017C190.789 378.66 190.03 379.302 189.271 379.945L189.621 379.302C189.271 380.062 188.92 380.821 188.511 381.58C188.336 381.931 188.102 382.339 187.869 382.69C187.635 383.04 187.402 383.449 187.168 383.8L186.759 383.683C186.701 383.274 186.642 382.807 186.584 382.398C186.584 381.989 186.525 381.522 186.525 381.113C186.525 380.295 186.525 379.419 186.525 378.601V378.485L186.876 377.9C187.402 377.083 187.927 376.265 188.453 375.447C189.037 374.63 189.563 373.87 190.205 373.169C191.49 371.709 192.95 370.424 194.352 369.081L194.761 368.672L195.053 368.555L199.375 367.212L203.756 365.927L208.136 364.7C209.597 364.291 211.057 363.882 212.517 363.532L212.692 363.882Z" fill="#2F2873"/>
<path d="M131.037 449.451L127.357 448.983L118.012 454.24L112.755 480.524L142.543 521.41L181.093 507.976L180.509 505.64L174.668 502.719L148.384 512.649L116.843 479.356L120.348 454.24L127.941 450.736L131.037 449.451Z" fill="#2F2873"/>
<path d="M224.841 550.964L223.089 550.906C222.271 550.906 202.354 550.322 193.534 548.511C187.752 547.343 114.624 529.587 103.176 518.781L102.651 518.256L99.6133 490.921L99.6717 490.628C99.7301 490.22 100.489 486.306 105.045 482.393C109.134 478.888 112.872 476.143 113.047 476.026L115.5 479.297C115.442 479.297 111.762 482.101 107.732 485.489C104.87 487.942 103.994 490.336 103.819 491.096L106.622 516.27C117.954 525.498 182.67 542.145 194.468 544.481C201.477 545.883 216.547 546.525 221.628 546.701C225.367 530.697 236.931 528.185 242.597 527.951C240.436 521.468 239.618 517.321 239.268 515.277C237.749 515.16 235.471 515.277 232.901 515.335C225.25 515.627 214.736 515.978 205.099 512.765C191.431 508.209 175.836 506.282 175.719 506.224L176.245 502.193C176.888 502.252 192.366 504.179 206.442 508.91C215.379 511.889 225.483 511.539 232.843 511.305C236.873 511.188 239.793 511.071 241.662 511.539L243.123 511.889L243.239 513.408C243.239 513.466 243.59 518.372 247.503 529.47L248.613 532.682L245.225 532.157C244.583 532.04 229.046 529.879 225.367 549.212L224.841 550.964Z" fill="#2F2873"/>
<path d="M167.659 538.932C167.659 538.932 160.65 520.826 177.004 507.976L186.408 504.53C186.408 504.53 211.641 514.401 223.556 513.525C235.413 512.649 240.085 514.401 240.085 514.401L243.59 529.003C243.59 529.003 227.236 530.755 221.395 549.446C221.395 549.446 172.916 543.605 167.659 538.932Z" fill="#2F2873"/>
<path d="M283.016 518.197C283.016 518.197 300.129 516.445 305.211 531.631C310.176 546.525 309.591 576.314 300.246 576.314C300.246 576.314 288.272 568.429 290.609 552.658C292.945 536.888 298.202 529.879 289.441 524.622L283.016 518.197Z" fill="#2F2873"/>
<path d="M292.361 578.066C286.228 578.066 277.291 575.905 265.96 567.085C264.675 566.092 262.864 565.508 260.82 564.924C258.601 564.223 256.147 563.464 253.811 561.945L256.031 558.499C257.9 559.726 260.002 560.368 261.988 561.011C264.208 561.712 266.544 562.412 268.413 563.873C277.35 570.823 284.534 573.276 289.732 573.86C287.922 572.926 286.461 571.758 285.352 570.356C281.38 565.099 283.015 557.389 285.06 547.635C285.936 543.371 286.929 538.582 287.571 533.5C288.097 529.295 287.396 526.141 285.41 523.921C281.088 519.073 271.1 519.132 263.799 519.19C258.601 519.249 255.155 519.249 253.285 517.847C249.255 514.81 246.977 514.459 246.919 514.459L245.342 513.349C245.284 513.291 243.94 510.779 240.494 510.371C239.267 510.195 238.158 510.896 236.405 512.181C233.952 513.875 230.915 516.036 226.009 515.627L226.301 511.539C229.747 511.772 231.85 510.371 234.011 508.794C236.055 507.392 238.099 505.932 240.961 506.282C245.108 506.808 247.445 509.261 248.379 510.604C249.723 511.013 252.176 512.006 255.622 514.576C256.44 515.16 260.587 515.102 263.624 515.102C271.684 515.043 282.723 514.926 288.272 521.235C291.017 524.33 292.127 528.652 291.426 534.026C290.784 539.283 289.732 544.189 288.856 548.511C287.046 557.272 285.585 564.165 288.447 567.961C290.316 570.414 294.23 571.875 300.421 572.342L301.356 576.138C301.356 576.197 298.143 578.066 292.361 578.066Z" fill="#2F2873"/>
<path d="M259.243 563.639C257.082 563.639 254.279 562.763 250.833 560.076L253.344 556.864C256.381 559.2 259.01 560.076 260.645 559.258C262.456 558.382 263.566 555.462 263.566 551.84C263.507 547.401 261.638 541.794 257.666 539.925C246.452 534.61 240.494 529.295 240.261 529.061L243.006 526.024C243.064 526.082 248.788 531.164 259.477 536.187C265.143 538.874 267.713 545.941 267.771 551.782C267.83 557.097 265.902 561.303 262.631 562.88C261.58 563.347 260.528 563.639 259.243 563.639Z" fill="#2F2873"/>
<path d="M254.687 562.295C250.482 558.09 239.969 558.733 233.076 559.141C227.235 559.492 224.607 559.609 223.147 558.207C220.226 555.286 220.752 549.095 220.811 548.394L224.899 548.803L222.855 548.628L224.899 548.803C224.724 550.731 224.899 553.943 225.95 555.17C226.943 555.462 230.214 555.228 232.843 555.053C240.961 554.527 252.059 553.826 257.608 559.375L254.687 562.295Z" fill="#2F2873"/>
<path d="M247.036 533.676C247.036 533.676 231.616 546.817 236.873 555.579C236.873 555.579 254.337 556.513 257.841 561.595C261.404 566.676 268.939 554.469 264.558 546.292C260.236 538.056 247.036 533.676 247.036 533.676Z" fill="#2F2873"/>
<path d="M298.844 527.542C290.316 514.926 267.537 513.408 264.15 513.232C262.631 513.758 258.893 514.284 252.643 509.903C240.728 501.609 226.126 514.284 225.95 514.401L223.264 511.363C223.965 510.721 240.377 496.411 254.979 506.515C259.886 509.962 262.339 509.436 262.748 509.319L263.273 508.91L263.799 509.085C264.967 509.085 291.835 509.845 302.232 525.148L298.844 527.542Z" fill="#2F2873"/>
<path d="M251.767 525.498C254.921 525.849 257.899 526.374 260.878 526.842C263.799 527.309 266.778 527.776 269.406 527.718C270.107 527.659 270.516 527.601 271.625 527.543C272.093 527.484 272.618 527.543 273.086 527.543C273.553 527.543 274.079 527.659 274.546 527.835C276.473 528.36 278.167 529.587 279.102 531.281C280.095 532.916 280.445 534.844 280.095 536.596C279.978 537.005 279.861 537.472 279.744 537.881C279.569 538.29 279.394 538.64 279.16 538.991C278.927 539.341 278.693 539.692 278.401 539.984C278.109 540.276 277.817 540.509 277.466 540.801C278.05 539.341 278.284 537.881 278.109 536.537C277.934 535.194 277.349 534.084 276.532 533.208L276.415 533.033L276.24 532.916L275.889 532.624C275.656 532.449 275.422 532.332 275.188 532.157C274.896 532.04 274.663 531.923 274.429 531.865L274.02 531.748L273.845 531.69H273.611C272.502 531.456 271.684 531.748 269.581 531.923C267.829 531.982 266.193 531.748 264.616 531.456C263.039 531.106 261.521 530.638 260.061 530.113C257.14 528.828 254.278 527.426 251.767 525.498Z" fill="#2F2873"/>
<path d="M158.898 405.761L201.536 403.425L191.022 416.275L129.986 452.78L126.481 450.443L118.888 455.116L115.384 460.373L106.622 459.205L103.118 433.505L88.5157 407.805L75.0818 398.46L66.3205 397.876L59.3115 390.867L101.19 399.161L119.764 411.018H152.473L158.898 405.761Z" fill="#2F2873"/>
<path d="M139.039 382.398L136.118 379.477L153.173 362.481L182.378 336.197L185.064 339.234L155.919 365.459L139.039 382.398Z" fill="#2F2873"/>
<path d="M184.597 293.617L180.509 354.946C180.509 354.946 187.518 340.928 187.518 324.573C187.518 308.219 189.27 294.785 189.27 294.785L184.597 293.617Z" fill="#2F2873"/>
<path d="M139.623 533.675L109.835 550.03L91.7284 526.082L86.4717 483.444L115.617 469.543L114.332 479.122L101.074 489.869L103.41 518.489L139.623 533.675Z" fill="#2F2873"/>
<path d="M109.309 549.679L75.9576 541.21L75.6655 539.984C70.4088 516.912 63.8086 491.096 61.7644 488L60.1289 487.007L74.6142 465.279L112.755 455.175L113.806 459.146L77.2426 468.842L65.5609 486.306C66.8459 488.818 69.007 495.243 73.446 513.057C76.1328 523.688 78.586 534.26 79.4037 537.822L110.302 545.708L109.309 549.679Z" fill="#2F2873"/>
<path d="M38.5762 425.036C38.5762 425.036 54.3464 454.824 73.9132 469.134L76.2496 466.214C76.2496 466.214 57.2669 452.488 38.5762 425.036Z" fill="#2F2873"/>
<path d="M76.659 435.374C78.9369 436.309 81.1564 437.302 83.4344 438.295L86.7636 439.813C87.8734 440.339 88.9832 440.806 90.0929 441.332L90.7354 441.624L90.8522 442.558C91.0275 444.136 91.3195 445.829 91.8452 447.29C92.3709 448.75 93.247 450.035 93.9479 450.619L94.0647 450.736C94.0647 450.736 94.0647 450.736 94.1231 450.794L94.2399 450.852L94.4151 451.028C94.6488 451.203 94.8824 451.437 95.116 451.67C95.2913 451.904 95.5249 452.137 95.7001 452.371L96.1674 453.072C96.6931 454.065 96.9851 455.058 97.1603 456.051C97.3356 457.044 97.3356 457.978 97.2771 458.913C97.1603 459.847 97.0435 460.782 96.6931 461.658H96.2842C95.5833 459.964 94.9408 458.387 94.1815 456.985C93.7727 456.284 93.3638 455.7 92.9549 455.233L92.6629 454.883C92.5461 454.824 92.4293 454.707 92.3124 454.591C92.1956 454.474 92.0788 454.474 92.0204 454.357L91.8452 454.24L91.4363 453.948C90.4434 453.13 89.7425 452.137 89.3336 451.145C88.9247 450.152 88.6911 449.159 88.5159 448.224C88.1654 446.297 88.0486 444.486 88.107 442.558L88.8663 443.843C87.815 443.201 86.822 442.5 85.7707 441.858L82.6751 439.872C80.6308 438.528 78.5865 437.185 76.6006 435.783L76.659 435.374Z" fill="#2F2873"/>
<path d="M116.494 416.158C111.997 415.574 107.499 414.99 102.943 414.405C98.4459 413.821 93.9484 413.179 89.451 412.536L75.9587 410.609C71.4612 409.966 66.9054 409.499 62.4663 408.74H62.6416L60.7725 408.565L58.9034 408.389C57.6184 408.273 56.3919 408.097 55.1069 407.922L54.5228 407.864L54.1723 407.63C51.8944 405.936 49.6749 404.242 47.5138 402.432C46.404 401.556 45.3527 400.621 44.2429 399.687C43.1916 398.752 42.1402 397.818 41.0889 396.825L41.3225 396.474C42.6075 397.058 43.8925 397.642 45.1774 398.285C46.4624 398.927 47.689 399.57 48.9156 400.212C51.4272 401.556 53.8219 402.957 56.275 404.359L55.3405 404.067C56.6255 404.126 57.8521 404.126 59.1371 404.184L61.0645 404.301L62.992 404.418H63.1088H63.2256C67.7231 405.177 72.1037 406.287 76.6012 407.221L89.9767 409.966C94.4157 410.901 98.8547 411.836 103.352 412.77C107.791 413.705 112.23 414.698 116.669 415.69L116.494 416.158Z" fill="#2F2873"/>
<path d="M41.3802 484.437L20.0611 457.92L13.6946 454.766L5.16699 410.434L17.5496 385.026L38.5182 379.36L52.8282 386.369L83.259 395.948L82.0908 399.803L51.3096 390.166L38.0509 383.683L20.47 388.53L9.48921 411.018L17.3159 451.962L22.6311 454.649L44.5342 481.867L41.3802 484.437Z" fill="#2F2873"/>
<path d="M11.4167 405.469L16.0894 407.805L24.2666 440.514L27.187 442.266L67.1967 496.878L75.6659 533.967C75.6659 533.967 53.4707 525.79 33.6119 524.622C13.753 523.454 9.66446 486.073 41.205 483.152L19.0682 455.175L13.753 449.275L7.32812 408.389L11.4167 405.469Z" fill="#2F2873"/>
<path d="M236.465 169.791C236.348 169.791 236.289 169.791 236.231 169.791H235.588L235.063 169.441C234.011 168.681 232.96 167.922 231.85 167.163C227.119 163.834 222.213 160.387 218.416 156.299C216.431 154.138 214.97 151.801 213.568 149.582C212.342 147.596 211.115 145.669 209.655 144.033C207.786 141.93 205.859 140.003 203.99 138.192C200.193 134.337 196.572 130.716 193.593 126.102C192.658 124.583 192.366 122.948 192.074 121.487C191.899 120.378 191.665 119.326 191.256 118.567C191.023 118.1 190.322 117.574 189.621 117.107C188.57 116.348 187.46 115.471 186.759 114.186C174.026 88.8956 172.449 64.2473 182.554 48.3018C190.848 35.2183 206.151 28.6182 226.944 29.0854C240.436 29.3775 251.884 32.4147 260.996 37.9635C268.94 42.8114 275.306 49.762 279.979 58.6401C288.448 74.7024 290.083 94.094 291.368 109.631C292.128 118.801 292.77 126.686 294.698 130.658C303.109 148.005 321.215 159.511 321.39 159.628L319.229 163.074C318.47 162.607 299.954 150.867 291.018 132.468C288.74 127.796 288.098 119.91 287.28 109.981C285.995 94.7949 284.418 75.8705 276.357 60.5091C267.012 42.6362 250.775 33.6997 226.886 33.1156C207.611 32.6484 193.534 38.6644 186.058 50.4045C176.713 65.1234 178.407 88.2531 190.439 112.259C190.672 112.668 191.432 113.252 192.074 113.719C193.067 114.42 194.177 115.296 194.819 116.464C195.579 117.808 195.871 119.326 196.104 120.67C196.338 121.896 196.513 123.006 197.039 123.824C199.784 128.088 203.23 131.534 206.91 135.213C208.779 137.083 210.765 139.068 212.692 141.23C214.445 143.157 215.73 145.26 217.073 147.362C218.358 149.465 219.701 151.626 221.454 153.495C224.958 157.292 229.689 160.563 234.245 163.775C235.18 164.418 236.056 165.06 236.932 165.703C239.911 165.586 253.578 163.95 264.909 145.669L268.356 147.83C255.214 169.032 238.684 169.791 236.465 169.791Z" fill="#2F2873"/>
<path d="M177.881 85.9754C177.881 85.9754 210.005 98.8252 227.528 66.1165C227.528 66.1165 235.121 66.7006 240.378 71.3733C245.635 76.046 249.139 94.7366 263.741 97.073L264.909 91.8162C264.909 91.8162 260.237 79.5505 263.157 73.1255C266.078 66.7006 274.839 59.6916 277.759 97.6571C280.68 114.595 290.551 121.196 290.551 121.196C290.551 121.196 290.609 50.3463 256.732 37.4964C222.855 24.6466 171.748 27.8591 177.881 85.9754Z" fill="#2F2873"/>
<path d="M266.324 27.7917C268.515 18.697 260.631 8.99692 248.713 6.12608C236.796 3.25523 225.359 8.30072 223.168 17.3955C220.977 26.4903 228.862 36.1903 240.779 39.0612C252.697 41.932 264.134 36.8865 266.324 27.7917Z" fill="#2F2873"/>
<path d="M248.439 163.366C249.14 164.301 249.607 165.235 250.016 166.228C250.425 167.163 250.717 168.156 250.95 169.149C251.184 170.142 251.301 171.135 251.301 172.127C251.301 173.12 251.242 174.172 251.301 175.165L251.418 178.202L251.476 181.239C251.476 183.283 251.476 185.269 251.418 187.314L251.009 187.372C250.425 185.445 249.957 183.459 249.49 181.473L248.789 178.494L248.147 175.515C247.913 174.522 247.679 173.529 247.387 172.595C247.154 171.602 246.979 170.609 246.979 169.616C246.979 168.623 247.037 167.572 247.212 166.579C247.387 165.527 247.621 164.476 248.088 163.425L248.439 163.366Z" fill="#2F2873"/>
<path d="M250.015 173.296C250.015 173.296 273.963 149.932 270.458 136.499L259.945 153.437L248.38 164.009L250.015 173.296Z" fill="#2F2873"/>
<path d="M267.712 95.4957C268.88 96.5471 270.048 97.54 271.333 98.4161C271.918 98.8834 272.56 99.2923 273.203 99.6427C273.787 99.9932 274.429 100.285 274.955 100.402C275.072 100.46 275.188 100.402 275.305 100.46C275.422 100.46 275.48 100.402 275.539 100.402C275.539 100.344 275.597 100.344 275.597 100.285C275.597 100.285 275.597 100.285 275.597 100.227C275.597 100.227 275.597 100.168 275.539 100.168V100.11C275.539 100.052 275.597 99.9932 275.597 99.9348C275.656 99.8763 275.656 99.7595 275.772 99.7011C275.831 99.5843 275.889 99.4675 275.948 99.3507C276.006 99.2339 276.123 99.117 276.181 98.9418L276.415 98.533C276.532 98.2409 276.707 97.8905 276.882 97.54C277.057 97.1896 277.233 96.8391 277.466 96.4887C277.7 96.1382 277.934 95.7294 278.226 95.3789H278.635C279.219 96.1382 279.569 97.0143 279.744 97.8321C279.861 98.2409 279.861 98.7082 279.919 99.1755C279.919 99.6427 279.919 100.11 279.803 100.636C279.744 100.869 279.686 101.103 279.569 101.395C279.452 101.687 279.335 101.921 279.219 102.154C279.043 102.446 278.868 102.68 278.576 102.914C278.459 103.03 278.284 103.147 278.167 103.264C278.05 103.381 277.875 103.498 277.7 103.556C276.999 103.965 276.181 104.023 275.48 103.965C274.838 103.848 274.254 103.673 273.787 103.439C271.976 102.505 270.925 101.161 269.932 99.8763C268.997 98.533 268.121 97.1896 267.479 95.7294L267.712 95.4957Z" fill="#2F2873"/>
<path d="M264.792 78.2653C265.026 77.5644 265.376 76.9219 265.727 76.3378C266.135 75.7537 266.603 75.1696 267.187 74.644C267.479 74.4103 267.829 74.1183 268.238 73.9431C268.647 73.7678 269.173 73.4758 270.049 73.5342C270.458 73.5342 270.983 73.7094 271.392 74.0015C271.859 74.2935 272.151 74.644 272.385 74.9944C272.619 75.3449 272.736 75.6369 272.794 75.929C272.852 76.0458 272.852 76.221 272.911 76.3378L272.969 76.513C273.261 77.4476 273.553 78.7326 273.845 79.9591C273.962 80.6016 274.137 81.2441 274.196 81.945C274.254 82.6459 274.254 83.3468 274.254 84.1061C274.196 84.8654 274.196 85.5663 274.021 86.3256C273.962 86.7345 273.845 87.1434 273.553 87.4938C273.32 87.9027 272.911 88.1947 272.502 88.3699C272.035 88.5452 271.859 88.6036 271.743 88.7788C271.684 88.8372 271.743 88.8956 271.859 88.8372C271.976 88.7788 272.035 88.662 272.093 88.662C272.151 88.6036 272.327 88.7204 272.502 88.8372C272.677 88.954 272.911 89.1292 273.144 89.3629C273.553 89.7717 273.962 90.239 274.371 90.8231C274.605 91.1151 274.78 91.4072 275.013 91.816C275.13 92.0497 275.247 92.2249 275.306 92.5753C275.364 92.7506 275.422 92.9842 275.422 93.2178C275.422 93.5099 275.364 93.9187 275.189 94.2692C275.13 94.3276 274.955 94.5028 274.838 94.7949C274.78 94.9117 274.663 95.0869 274.546 95.3205C274.429 95.5542 274.313 95.8462 273.845 96.1967C273.612 96.3719 273.261 96.4887 273.028 96.4303C272.794 96.4303 272.619 96.3719 272.444 96.3135C272.151 96.1967 272.035 96.0214 271.859 95.8462C271.567 95.5542 271.392 95.2037 271.275 94.8533L271.509 94.5028C271.859 94.5028 272.21 94.5612 272.502 94.5612C272.619 94.5612 272.794 94.5612 272.852 94.5028C272.852 94.5028 272.852 94.4444 272.794 94.386C272.736 94.386 272.56 94.386 272.444 94.4444C272.21 94.5612 272.21 94.6196 272.21 94.5028C272.21 94.386 272.151 94.2692 272.151 94.094C272.151 93.7435 272.151 93.2762 272.385 92.7506C272.268 92.9842 272.21 93.2178 272.21 93.3347C272.21 93.4515 272.21 93.5099 272.21 93.5099C272.21 93.5683 272.151 93.5099 272.093 93.4515L271.567 92.8674C271.159 92.4585 270.75 91.9329 270.399 91.2904C270.224 90.9399 270.049 90.5895 269.932 90.1806C269.815 89.7717 269.64 89.3045 269.698 88.5452C269.698 88.1947 269.874 87.7274 270.166 87.4354C270.458 87.1434 270.75 86.9681 270.983 86.9097C271.451 86.7345 271.976 86.7929 272.093 86.7929C272.502 86.7929 272.736 86.4425 272.736 85.9168C272.736 85.3911 272.502 84.807 272.151 84.2814C271.859 83.7557 271.451 83.23 271.1 82.7043C270.75 82.1786 270.516 81.5946 270.224 81.0105C269.64 79.8423 268.997 78.6741 268.764 77.0971L268.705 76.8051C268.705 76.7467 268.705 76.7467 268.705 76.7467C268.705 76.7467 268.705 76.7467 268.764 76.8051C268.822 76.8635 268.939 76.9803 269.114 77.0971C269.289 77.2139 269.465 77.2139 269.581 77.2139C269.757 77.1555 269.64 77.0971 269.465 77.0971C269.289 77.0971 269.056 77.1555 268.764 77.2139C268.238 77.3308 267.654 77.5644 267.012 77.7396C266.427 77.9732 265.785 78.1485 265.084 78.3821L264.792 78.2653Z" fill="#2F2873"/>
<path d="M191.314 116.348L198.908 110.507L207.085 111.091C207.085 111.091 214.094 118.684 213.51 126.861C212.926 135.038 213.802 140.003 217.306 138.835C220.811 137.667 224.607 139.127 226.359 136.207C228.112 133.286 229.28 132.118 226.359 129.782C226.359 129.782 231.616 130.95 229.864 135.038C228.112 139.127 227.352 139.828 221.103 141.463C215.554 142.923 215.846 147.888 210.881 142.923C206.092 138.134 213.51 123.357 205.917 116.932L200.368 116.64L194.235 120.436L191.314 116.348Z" fill="#2F2873"/>
<path d="M213.627 111.266C214.62 109.047 215.846 107.002 217.482 105.016C217.657 104.783 217.891 104.549 218.124 104.316C218.358 104.082 218.592 103.848 218.825 103.615C219.059 103.381 219.351 103.206 219.585 102.972C219.877 102.797 220.169 102.563 220.402 102.446L223.498 100.694C224.549 100.11 225.542 99.4677 226.594 98.8252C227.645 98.1827 228.696 97.7154 229.806 97.3066C230.916 96.8977 232.084 96.6057 233.311 96.372C234.537 96.1384 235.764 95.9632 237.049 96.0216L237.224 96.372C236.406 97.4234 235.472 98.2411 234.537 99.0004C233.603 99.7597 232.61 100.402 231.558 101.045C230.565 101.629 229.456 102.154 228.346 102.505C227.236 102.855 226.068 103.206 224.958 103.673L221.629 104.9L221.395 104.958L221.22 105.016L220.87 105.133C220.636 105.25 220.402 105.367 220.169 105.484L219.468 105.951C219.234 106.126 219.001 106.301 218.825 106.477C217.073 107.878 215.438 109.631 213.919 111.441L213.627 111.266Z" fill="#2F2873"/>
<path d="M235.705 104.841C233.894 105.659 232.083 106.36 230.273 107.002L227.644 107.995C226.768 108.287 225.892 108.638 225.191 108.988C224.607 109.28 224.14 109.689 223.614 110.156C223.147 110.682 222.621 111.266 222.154 111.967C221.687 112.668 221.278 113.486 220.927 114.303L220.343 115.647C220.226 115.88 220.11 116.114 219.993 116.406C219.818 116.698 219.701 116.99 219.292 117.399L217.364 115.121C217.656 114.946 217.832 114.829 218.124 114.712C218.357 114.595 218.591 114.479 218.825 114.42C219.292 114.245 219.818 114.07 220.343 114.011C220.635 113.953 220.869 113.953 221.161 113.894C221.453 113.894 221.745 113.894 221.979 113.894C222.504 113.953 222.972 114.011 223.439 114.07L226.009 114.595C226.418 114.654 226.827 114.712 227.235 114.771L227.528 114.829H227.761C227.936 114.829 228.112 114.829 228.287 114.771C228.988 114.654 229.689 114.245 230.39 113.778C231.09 113.31 231.733 112.726 232.317 112.142C233.485 110.916 234.595 109.514 235.588 108.054L235.938 108.229C235.179 109.864 234.244 111.383 233.193 112.843C232.667 113.544 232.025 114.245 231.324 114.887C230.623 115.53 229.805 116.114 228.813 116.406C228.579 116.523 228.287 116.523 227.995 116.581L227.586 116.64H227.235C226.768 116.64 226.301 116.64 225.834 116.64L223.205 116.464C222.796 116.464 222.388 116.406 221.979 116.464C221.803 116.464 221.628 116.464 221.453 116.523C221.278 116.523 221.161 116.581 220.986 116.64C220.635 116.756 220.343 116.873 219.993 117.048C219.818 117.107 219.701 117.224 219.526 117.341C219.409 117.399 219.175 117.574 219.117 117.633L217.189 115.355C217.131 115.413 217.189 115.296 217.248 115.121C217.306 114.946 217.364 114.771 217.423 114.537L217.832 113.194C218.124 112.259 218.416 111.266 218.825 110.215C219.234 109.222 219.818 108.17 220.635 107.294C221.453 106.36 222.563 105.6 223.731 105.192C224.841 104.841 225.775 104.666 226.827 104.491C227.82 104.315 228.813 104.257 229.805 104.199C231.791 104.14 233.777 104.14 235.763 104.491L235.705 104.841Z" fill="#2F2873"/>
<path d="M226.068 114.888C227.358 114.888 228.404 113.842 228.404 112.551C228.404 111.261 227.358 110.215 226.068 110.215C224.777 110.215 223.731 111.261 223.731 112.551C223.731 113.842 224.777 114.888 226.068 114.888Z" fill="#2F2873"/>
<path d="M202.12 122.48C203.41 122.48 204.456 121.434 204.456 120.144C204.456 118.854 203.41 117.808 202.12 117.808C200.829 117.808 199.783 118.854 199.783 120.144C199.783 121.434 200.829 122.48 202.12 122.48Z" fill="#2F2873"/>
<path d="M227.177 106.593C228.17 106.068 229.105 106.126 229.981 106.418C230.215 106.477 230.39 106.593 230.565 106.71C230.74 106.827 230.915 107.002 231.091 107.177C231.383 107.528 231.675 107.937 231.908 108.346C232.025 108.521 232.142 108.754 232.259 108.988L232.434 109.339L232.551 109.689C232.726 110.156 232.726 110.682 232.726 111.149C232.668 112.142 232.2 112.901 231.675 113.544L231.441 113.427C231.5 112.609 231.558 111.909 231.324 111.324C231.208 111.032 231.091 110.799 230.857 110.565L230.74 110.39L230.565 110.215C230.448 110.098 230.331 109.981 230.215 109.923C229.981 109.747 229.63 109.631 229.338 109.514C229.046 109.397 228.754 109.222 228.521 108.988C228.053 108.462 227.528 107.937 227.061 106.885L227.177 106.593Z" fill="#2F2873"/>
<path d="M208.72 119.385C208.837 120.378 208.486 121.137 208.136 121.78C207.727 122.422 207.26 123.006 206.676 123.357C206.092 123.707 205.391 123.824 204.69 123.941C203.989 124.058 203.405 124.174 202.704 124.35C202.003 124.466 201.302 124.525 200.601 124.525C199.9 124.525 199.199 124.408 198.499 124.174C197.155 123.766 195.929 122.948 195.286 121.78L195.578 121.546C196.571 122.189 197.739 122.481 198.791 122.422C199.842 122.364 200.893 122.072 201.828 121.604L202.178 121.429L202.529 121.196C202.762 121.02 202.996 120.904 203.23 120.728C203.697 120.378 204.047 119.911 204.573 119.735C205.04 119.502 205.624 119.385 206.209 119.327C206.793 119.268 207.493 119.21 208.37 119.268L208.72 119.385Z" fill="#2F2873"/>
<path d="M217.832 153.262C218.767 152.619 219.701 152.035 220.636 151.451C221.103 151.159 221.57 150.925 222.037 150.633C222.271 150.458 222.446 150.283 222.68 150.108C222.914 149.932 223.147 149.874 223.381 149.874C223.673 149.932 223.906 149.816 224.14 149.699L224.899 149.465L226.418 149.056C227.411 148.764 228.346 148.472 229.28 148.122C231.149 147.421 232.843 146.545 234.245 145.201C235.705 143.858 236.815 142.106 237.808 140.237L238.217 140.353C237.983 142.515 237.282 144.676 235.939 146.603C234.654 148.531 232.668 150.049 230.682 151.159C229.689 151.685 228.638 152.152 227.645 152.619L226.126 153.203L225.367 153.495C225.133 153.612 224.841 153.671 224.607 153.846C224.14 154.138 223.498 154.079 222.914 154.021C222.329 154.021 221.804 154.021 221.22 154.021C220.11 153.963 218.942 153.904 217.832 153.67V153.262Z" fill="#2F2873"/>
<path d="M221.979 155.189C221.979 155.189 230.449 154.313 231.325 152.853C231.734 152.152 227.82 158.11 230.157 161.03C232.493 163.951 221.979 155.189 221.979 155.189Z" fill="#2F2873"/>
<path d="M217.891 150.517L221.979 151.101L219.059 152.853L217.891 150.517Z" fill="#2F2873"/>
<path d="M408.302 505.055L395.452 534.26L339.964 558.791L304.452 526.024C304.452 526.024 312.512 533.676 310.76 555.871C309.007 578.066 305.503 576.898 296.742 579.234C287.98 581.57 275.131 576.314 265.785 570.473C256.44 564.632 251.767 565.216 247.679 561.712C243.59 558.207 218.474 567.552 217.89 552.95L193.943 551.198L139.623 536.012L109.251 552.95L74.2057 543.021L71.8694 533.676C71.8694 533.676 45.0016 526.667 37.9926 526.667C30.9836 526.667 18.7178 523.746 16.9655 509.144C16.9655 509.144 -20.4158 526.082 15.7974 536.596C52.0106 547.109 59.0196 588.579 106.33 573.393C153.641 558.207 217.306 588.579 238.917 589.748C260.528 590.916 313.096 609.022 332.371 596.172C351.646 583.323 444.807 590.624 458.533 553.534C470.215 521.994 408.302 505.055 408.302 505.055Z" fill="#2F2873"/>
<path d="M198.031 504.471C198.031 504.471 237.165 495.71 247.678 488.701L249.431 494.542L258.192 496.878L272.21 506.808C272.21 506.808 262.28 507.976 259.944 506.808C257.608 505.64 251.183 497.462 242.422 498.631C233.66 499.799 220.811 509.144 218.474 508.56C216.138 507.976 198.031 504.471 198.031 504.471Z" fill="#2F2873"/>
<path d="M141.901 407.864L126.365 404.126L63.459 345.951L66.2626 342.914L128.351 400.387L142.018 403.658L210.064 389.407L210.882 393.437L141.901 407.864Z" fill="#2F2873"/>
<path d="M155.101 394.313C133.84 379.361 88.0483 356.173 87.5811 355.939L89.4501 352.318C89.9174 352.551 136.002 375.915 157.437 391.042L155.101 394.313Z" fill="#2F2873"/>
<path d="M135.885 400.154L83.4343 352.376L65.5029 347.47L66.5543 343.498L85.4786 348.638L85.829 348.988L136.936 395.54C140.499 394.488 152.006 391.217 165.498 388.005C187.284 382.807 203.463 380.353 213.568 380.587H213.802L223.965 382.982L223.03 386.954L213.335 384.676C212.984 384.676 212.634 384.676 212.225 384.676C188.277 384.676 137.579 399.628 137.053 399.803L135.885 400.154Z" fill="#2F2873"/>
<path d="M125.312 380.938C127.24 380.938 129.051 381.346 130.744 381.989C131.621 382.339 132.438 382.69 133.256 383.157C134.074 383.624 134.833 384.208 135.592 384.909C135.943 385.318 136.352 385.727 136.702 386.369C136.819 386.545 136.877 386.72 136.936 386.895C136.994 387.129 137.053 387.362 137.111 387.538C137.169 387.83 137.169 388.063 137.169 388.355C137.111 388.647 137.111 388.998 136.936 389.231C136.877 389.348 136.819 389.524 136.702 389.64L136.644 389.582C136.585 389.582 136.585 389.757 136.644 390.049C136.819 390.575 137.345 391.217 137.87 391.918C138.396 392.561 138.98 393.262 139.623 394.021C138.63 394.079 137.695 393.904 136.761 393.612C135.826 393.32 134.95 392.853 134.074 392.035C133.665 391.568 133.198 390.984 133.081 390.108C132.964 389.699 133.022 389.173 133.081 388.764C133.139 388.531 133.198 388.297 133.256 388.122L133.373 387.83C133.314 387.888 133.314 387.888 133.314 387.947C133.314 388.063 133.256 388.122 133.256 388.239C133.256 388.355 133.256 388.355 133.256 388.414V388.472L133.198 388.414C133.081 388.297 132.906 388.063 132.672 387.83C132.205 387.362 131.621 386.837 130.978 386.311C130.336 385.785 129.693 385.26 129.051 384.676C127.824 383.624 126.539 382.456 125.312 380.938Z" fill="#2F2873"/>
<path d="M141.025 387.537C141.025 387.654 141.025 387.771 141.084 387.888C141.142 388.005 141.142 388.063 141.259 388.122C141.376 388.238 141.551 388.238 141.668 388.238C141.901 388.238 142.135 388.238 142.31 388.297C142.719 388.414 143.07 388.706 143.362 389.056C143.654 389.407 143.887 389.874 144.004 390.4C144.121 390.984 144.179 391.626 144.062 392.619C143.07 392.911 142.369 392.853 141.726 392.677C141.084 392.502 140.558 392.152 140.208 391.626C139.799 391.159 139.507 390.516 139.448 389.64C139.448 389.231 139.448 388.706 139.682 388.18C139.799 387.946 140.032 387.654 140.324 387.537C140.441 387.479 140.616 387.421 140.733 387.421C140.792 387.421 140.908 387.479 141.025 387.537Z" fill="#2F2873"/>
<path d="M146.281 400.621C148.092 399.453 150.019 398.519 151.947 397.701C153.874 396.883 155.86 396.124 157.905 395.54C159.89 394.897 161.993 394.488 164.096 394.196C164.621 394.138 165.147 394.08 165.731 394.021C166.257 393.963 166.783 393.904 167.367 393.904L168.184 393.846C168.476 393.846 168.768 393.846 169.061 393.846H170.579C172.507 393.788 174.551 393.496 176.537 393.203C178.581 392.911 180.567 392.503 182.611 392.094C186.7 391.334 190.73 390.4 194.819 389.465L194.935 389.874C191.08 391.393 187.109 392.736 183.137 394.08C181.151 394.722 179.165 395.306 177.121 395.832C175.077 396.358 173.032 396.825 170.813 397.117L169.236 397.292C169.002 397.292 168.768 397.35 168.535 397.35L167.834 397.467C167.367 397.526 166.841 397.643 166.374 397.759C165.906 397.876 165.381 397.993 164.914 398.11C162.928 398.577 160.942 399.044 158.956 399.453C154.926 400.154 150.837 400.855 146.515 400.972L146.281 400.621Z" fill="#2F2873"/>
<path d="M164.738 389.699L177.588 382.982V387.947L164.738 389.699Z" fill="#2F2873"/>
<path d="M132.789 419.078L112.054 411.777L102.825 388.355L109.309 385.493L110.944 389.232L108.082 390.517L115.208 408.506L134.19 415.223L132.789 419.078Z" fill="#2F2873"/>
<path d="M118.363 400.037C119.18 399.687 119.94 399.57 120.64 399.511C121.341 399.453 122.042 399.511 122.743 399.628C123.444 399.745 124.028 399.979 124.612 400.329C125.196 400.68 125.78 401.03 126.364 401.381L128.175 402.315L129.986 403.308C131.154 404.009 132.381 404.651 133.49 405.411L133.373 405.82C132.03 405.703 130.628 405.469 129.285 405.294L127.299 404.943L125.313 404.535C124.671 404.418 123.97 404.359 123.269 404.243C122.568 404.126 121.984 403.95 121.341 403.6C120.757 403.25 120.173 402.841 119.648 402.373C119.122 401.906 118.596 401.322 118.129 400.563L118.363 400.037Z" fill="#2F2873"/>
<path d="M114.04 398.986L113.865 398.811L113.748 398.635L113.515 398.285C113.398 398.051 113.281 397.818 113.223 397.642C113.047 397.234 112.989 396.825 113.047 396.474C113.047 396.124 113.164 395.773 113.456 395.54C113.69 395.248 113.982 395.014 114.157 394.722C114.332 394.43 114.566 394.138 114.8 393.846L115.5 393.028C115.968 392.503 116.435 391.918 117.019 391.451L117.428 391.626C117.486 392.386 117.486 393.087 117.486 393.846L117.428 394.897C117.428 395.248 117.37 395.598 117.311 395.949C117.253 396.299 117.311 396.65 117.311 397.058C117.311 397.409 117.194 397.759 116.961 397.993C116.727 398.285 116.435 398.519 116.026 398.752C115.851 398.869 115.617 398.927 115.384 399.044L114.975 399.161L114.741 399.219L114.508 399.278L114.04 398.986Z" fill="#2F2873"/>
<path d="M116.436 395.481L120.349 401.614L128.526 402.257L117.253 390.809L116.436 395.481Z" fill="#2F2873"/>
<path d="M165.918 398.747L157.164 407.504L160.055 410.395L168.81 401.638L165.918 398.747Z" fill="#2F2873"/>
<path d="M147.217 406.345H151.305L152.766 405.469L147.217 406.345Z" fill="#2F2873"/>
</svg>
