<svg width="140" height="173" viewBox="0 0 140 173" fill="none" xmlns="http://www.w3.org/2000/svg">
<path fill-rule="evenodd" clip-rule="evenodd" d="M0.813778 0H21.9766V30.2318L47.8109 0.102266L74.9647 0.102331L40.1958 40.6747L64.4931 68.7112L88.7887 0.190727L88.7211 0H88.8564H109.748H109.883L109.816 0.190716L139.186 83.0233H118.159L113.113 68.7907L85.492 68.7907L80.4455 83.0233H76.8963L76.9186 83.0489L49.6512 83.0489L26.7613 56.3515L21.9766 61.9349V83.0233H0.813778V0ZM0 89.7699H20.3488V132.468H0V89.7699ZM91.9767 89.7699H89.5347V172.793H91.9767H110.697H140V156.979H110.697V138.793H137.558V122.188H110.697V106.375H140V89.7699H110.697H91.9767ZM99.3023 29.8419L91.0993 52.9767H107.505L99.3023 29.8419ZM20.3488 162.909C20.3488 168.368 15.7936 172.793 10.1744 172.793C4.55524 172.793 0 168.368 0 162.909C0 157.451 4.55524 153.026 10.1744 153.026C15.7936 153.026 20.3488 157.451 20.3488 162.909ZM64.6902 160.635C56.6 168.42 45.6273 172.793 34.186 172.793V155.118C40.7557 155.118 47.0563 152.606 51.7017 148.136C56.3472 143.666 58.957 137.603 58.957 131.281C58.957 124.96 56.3472 118.897 51.7018 114.427C47.0563 109.957 40.7557 107.445 34.186 107.445L34.186 89.7699C45.6273 89.7699 56.6 94.1434 64.6902 101.928C72.7805 109.713 77.3255 120.272 77.3255 131.281C77.3255 142.291 72.7805 152.85 64.6902 160.635Z" fill="#2F2873"/>
</svg>
