<svg width="141" height="173" viewBox="0 0 141 173" fill="none" xmlns="http://www.w3.org/2000/svg">
<path fill-rule="evenodd" clip-rule="evenodd" d="M1.79034 0H22.9531V30.2318L48.7875 0.102266L75.9412 0.102331L41.1723 40.6747L65.4696 68.7112L89.7653 0.190727L89.6977 0H89.8329H110.725H110.86L110.792 0.190716L140.163 83.0233H119.136L114.089 68.7907L86.4686 68.7907L81.4221 83.0233H77.8729L77.8952 83.0489L50.6277 83.0489L27.7379 56.3515L22.9531 61.9349V83.0233H1.79034V0ZM0.976562 89.7699H21.3254V132.468H0.976562V89.7699ZM92.9533 89.7699H90.5113V172.793H92.9533H111.674H140.977V156.979H111.674V138.793H138.535V122.188H111.674V106.375H140.977V89.7699H111.674H92.9533ZM100.279 29.8419L92.0758 52.9767H108.482L100.279 29.8419ZM21.3254 162.909C21.3254 168.368 16.7702 172.793 11.151 172.793C5.53181 172.793 0.976562 168.368 0.976562 162.909C0.976562 157.451 5.53181 153.026 11.151 153.026C16.7702 153.026 21.3254 157.451 21.3254 162.909ZM65.6668 160.635C57.5766 168.42 46.6038 172.793 35.1625 172.793V155.118C41.7322 155.118 48.0328 152.606 52.6783 148.136C57.3238 143.666 59.9336 137.603 59.9336 131.281C59.9336 124.96 57.3238 118.897 52.6783 114.427C48.0328 109.957 41.7322 107.445 35.1625 107.445L35.1625 89.7699C46.6039 89.7699 57.5766 94.1434 65.6668 101.928C73.757 109.713 78.3021 120.272 78.3021 131.281C78.3021 142.291 73.757 152.85 65.6668 160.635Z" fill="#353334"/>
</svg>
