<svg width="380" height="859" viewBox="0 0 380 859" fill="none" xmlns="http://www.w3.org/2000/svg">
<path d="M54.1516 696.006L77.7658 609.395L92.3463 591.644L90.6823 563.355L117.862 483.4L112.632 481.656L85.1353 562.562L86.6409 589.743L72.6943 606.859L48.7631 694.58L54.1516 696.006Z" fill="#2F2873"/>
<path d="M116.435 742.918L123.805 719.858L118.179 710.825L78.082 718.036L50.585 691.331L40.5212 698.067L37.827 720.571L59.4601 740.461L116.435 742.918ZM117.782 720.651L112.473 737.212L61.6789 734.993L43.6909 718.432L45.7512 701.316L49.951 698.542L76.3387 724.137L115.484 717.085L117.782 720.651Z" fill="#2F2873"/>
<path d="M117.941 712.172C123.408 688.082 171.271 555.351 171.746 554.004L166.516 552.103C164.535 557.57 118.02 686.497 112.552 710.904L117.941 712.172Z" fill="#2F2873"/>
<path d="M157.8 518.108C154.551 525.398 151.619 532.767 148.687 540.137C147.182 543.861 145.834 547.586 144.408 551.231L140.288 562.404C137.593 569.853 134.978 577.381 132.601 584.909C130.224 592.437 127.767 600.044 125.232 607.572C120.16 622.628 115.089 637.605 109.7 652.582C107.006 660.03 104.312 667.479 101.38 674.849C99.9533 678.573 98.4477 682.218 96.8629 685.863C96.0704 687.686 95.278 689.508 94.3271 691.252C93.4554 692.995 92.5045 694.738 91.3159 696.323L91.7121 696.719C93.0592 695.214 94.0894 693.471 95.0403 691.727C96.0704 689.984 96.9421 688.241 97.8138 686.418C99.5571 682.852 101.221 679.207 102.885 675.562C106.134 668.271 109.145 660.981 112.157 653.612C118.1 638.873 123.726 623.975 129.273 609.078L137.673 586.731C140.446 579.283 143.061 571.755 145.438 564.227L148.925 552.816C150.034 549.012 151.223 545.208 152.253 541.405C154.393 533.718 156.453 526.032 158.196 518.266L157.8 518.108Z" fill="#2F2873"/>
<path d="M115.168 712.885L118.021 700.048L76.4184 713.123L62.9472 702.821L75.4675 718.59L115.168 712.885Z" fill="#2F2873"/>
<path d="M207.563 746.008L213.11 745.216L200.432 657.257L186.881 576.826L157.641 510.5V503.131L108.352 472.94L106.133 445.839L100.587 446.314L103.122 476.268L152.094 506.301V511.61L181.493 578.411L194.885 658.129L207.563 746.008Z" fill="#2F2873"/>
<path d="M146.151 613.277C146.151 613.277 159.622 553.846 154.868 539.582L110.413 496.871L117.624 480.943L155.185 507.014L171.509 550.676L146.151 613.277Z" fill="#2F2873"/>
<path d="M256.535 631.582C262.954 611.455 256.139 537.76 255.902 534.59L250.355 535.145C250.434 535.937 257.328 610.9 251.306 629.918L256.535 631.582Z" fill="#2F2873"/>
<path d="M267.788 717.48C267.788 717.48 264.618 629.522 244.808 599.41C244.808 599.41 259.071 653.294 261.449 719.065L267.788 717.48Z" fill="#2F2873"/>
<path d="M221.115 773.426L257.883 762.015L272.701 752.427L277.06 724.296L264.698 714.073L242.668 738.639L226.107 740.144L204.791 743.71V769.622L221.115 773.426ZM255.506 756.943L220.956 767.72L210.338 765.264V748.385L226.899 745.612L245.283 743.948L265.252 721.76L271.116 726.594L267.551 749.178L255.506 756.943Z" fill="#2F2873"/>
<path d="M246.789 736.103H225.394L209.545 737.687L212.002 745.136L242.589 741.57L246.789 736.103Z" fill="#2F2873"/>
<path d="M222.223 519.375C221.748 526.666 221.431 533.877 221.193 541.167C221.035 544.812 220.955 548.457 220.876 552.102C220.797 555.747 220.718 559.393 220.638 563.038L220.48 573.973L220.401 584.909C220.321 592.199 220.321 599.41 220.401 606.7V607.651L220.955 608.364C223.808 612.089 226.74 615.813 229.672 619.458L229.117 618.032C229.83 625.322 230.623 632.533 231.495 639.823C232.287 647.114 233.238 654.325 234.189 661.536C234.664 665.181 235.14 668.747 235.615 672.392C236.091 676.037 236.566 679.603 237.121 683.248C238.23 690.459 239.26 697.67 240.607 704.881C240.449 697.591 240.053 690.221 239.736 682.931C239.577 679.286 239.26 675.641 239.102 671.996C238.864 668.35 238.626 664.705 238.389 661.06C237.913 653.77 237.358 646.48 236.725 639.189C236.091 631.899 235.457 624.609 234.743 617.398L234.664 616.605L234.189 615.971C231.336 612.247 228.404 608.602 225.472 604.878L225.789 606.542C225.71 599.251 225.551 592.04 225.393 584.75L225.076 573.894L224.68 563.038C224.521 559.393 224.442 555.747 224.204 552.182C224.046 548.536 223.887 544.891 223.65 541.325C223.253 533.877 222.857 526.666 222.223 519.375Z" fill="#2F2873"/>
<path d="M186.803 589.584C186.882 588.475 186.882 587.365 186.882 586.256C186.882 585.147 186.803 584.037 186.724 582.928C186.565 580.709 186.327 578.569 186.09 576.43L185.931 577.936C187.041 575.875 188.071 573.815 188.942 571.675C189.418 570.645 189.814 569.536 190.21 568.426C190.607 567.317 191.003 566.208 191.32 565.178L191.637 564.147L191.399 563.513C190.369 560.344 189.418 557.174 188.467 553.925C187.516 550.755 186.565 547.507 185.614 544.337C184.663 541.167 183.633 537.997 182.682 534.749C181.652 531.579 180.701 528.409 179.671 525.24L179.116 525.398C179.671 528.726 180.226 531.975 180.86 535.303C181.414 538.552 182.048 541.88 182.682 545.129C183.316 548.378 183.95 551.706 184.584 554.955C185.218 558.204 185.852 561.532 186.407 564.781L186.565 563.117C186.011 564.147 185.535 565.177 185.06 566.208C184.584 567.238 184.109 568.347 183.713 569.377C182.841 571.517 182.128 573.736 181.414 575.954L181.098 576.905L181.256 577.46C181.969 579.52 182.682 581.581 183.475 583.562C183.871 584.592 184.346 585.622 184.822 586.573C185.297 587.603 185.773 588.554 186.328 589.584H186.803Z" fill="#2F2873"/>
<path d="M233.318 256.688C231.654 266.118 230.386 275.548 229.277 284.977C228.167 294.407 227.137 303.837 226.266 313.267C225.315 322.697 224.443 332.126 223.254 341.398C222.938 343.696 222.621 345.994 222.145 348.213C222.066 348.767 221.907 349.322 221.749 349.797C221.67 350.035 221.59 350.352 221.511 350.59L221.273 351.382C220.877 352.492 220.481 353.68 220.164 354.869C219.451 357.167 218.896 359.544 218.5 361.922C218.341 363.11 218.183 364.299 218.104 365.567C218.104 366.201 218.104 366.755 218.104 367.389C218.104 368.023 218.183 368.578 218.341 369.212C218.421 368.023 218.738 366.835 219.055 365.725C219.372 364.616 219.768 363.506 220.164 362.397C221.036 360.178 221.987 358.118 223.017 355.978C223.492 354.948 224.047 353.918 224.602 352.809C224.76 352.571 224.839 352.254 224.998 351.937C225.156 351.62 225.236 351.303 225.394 350.986C225.632 350.352 225.79 349.798 226.028 349.164C226.741 346.786 227.296 344.409 227.851 342.032C229.832 332.602 230.941 323.093 231.813 313.663C232.684 304.154 233.318 294.645 233.635 285.136C233.794 275.785 233.873 266.276 233.318 256.688Z" fill="#2F2873"/>
<path d="M259.071 531.262C262.241 531.262 267.946 529.201 270.086 521.277C270.244 520.722 270.482 520.089 270.719 519.375C272.146 515.334 274.285 509.153 269.055 499.406C260.022 482.528 249.403 465.491 247.185 461.925V455.268L227.295 366.2L223.967 352.808L220.955 355.344L219.688 358.91L221.827 367.547L241.638 455.902V463.51L242.034 464.223C242.192 464.381 254.079 483.399 264.142 502.101C268.184 509.708 266.757 513.908 265.41 517.632C265.173 518.424 264.856 519.138 264.697 519.93C263.033 526.111 258.912 525.794 258.912 525.794L258.437 531.341C258.595 531.262 258.833 531.262 259.071 531.262Z" fill="#2F2873"/>
<path d="M227.533 461.132C227.533 463.272 227.613 465.412 227.692 467.551C227.771 469.691 227.85 471.83 228.009 473.97V473.494C227.533 475.158 226.979 476.902 226.503 478.566L225.077 483.637C224.126 487.045 223.254 490.452 222.303 493.859L222.066 494.652L222.541 495.603C223.333 497.346 224.205 499.01 225.077 500.674C225.948 502.338 226.82 504.002 227.692 505.667L229.039 508.123L230.465 510.58C231.416 512.244 232.446 513.828 233.397 515.413L233.08 513.828C232.922 516.206 232.763 518.583 232.605 520.96L236.646 519.534C236.408 519.296 236.25 519.217 236.091 519.058C235.933 518.9 235.775 518.821 235.537 518.662C235.22 518.424 234.824 518.266 234.427 518.028C233.635 517.632 232.843 517.394 231.892 517.315C231.02 517.157 230.069 517.236 229.197 517.474L228.88 517.553L228.643 517.632L228.088 517.791C227.771 517.87 227.375 518.028 227.058 518.187C226.345 518.504 225.632 518.821 224.918 519.375C224.205 519.93 223.413 520.723 223.096 521.911C222.937 522.545 222.937 523.179 223.017 523.734C223.096 524.288 223.334 524.764 223.571 525.239C224.047 526.032 224.601 526.666 225.156 527.141C226.265 528.171 227.454 528.884 228.643 529.598C229.831 530.311 231.099 530.866 232.446 531.262C233.793 531.658 235.22 531.975 236.646 531.975C237.359 531.975 238.073 531.896 238.865 531.816C239.261 531.737 239.578 531.658 239.974 531.579C240.133 531.499 240.371 531.499 240.529 531.42C240.767 531.341 240.846 531.262 241.163 531.183L241.401 531.024L241.559 530.866L248.374 522.624L248.612 522.307V521.99L249.087 513.67L249.483 505.35L248.929 505.27L247.74 513.591L246.631 521.911L246.868 521.356L239.42 528.964L239.816 528.647C239.816 528.647 239.657 528.726 239.578 528.726L239.182 528.805C238.944 528.884 238.627 528.884 238.389 528.964C237.835 529.043 237.28 529.043 236.725 528.964C235.616 528.884 234.507 528.567 233.477 528.171C232.367 527.775 231.337 527.22 230.386 526.586C229.356 525.952 228.405 525.239 227.692 524.447C227.296 524.051 227.058 523.654 226.899 523.417C226.82 523.258 226.82 523.179 226.82 523.1C226.82 523.021 226.82 523.021 226.82 523.021C226.82 523.021 226.82 522.941 226.899 522.941C226.979 522.862 227.137 522.783 227.216 522.624C227.533 522.387 228.009 522.228 228.484 522.07C228.722 521.99 228.96 521.911 229.277 521.832C229.514 521.753 229.831 521.673 229.99 521.673C230.386 521.594 230.782 521.594 231.099 521.673C231.495 521.753 231.892 521.911 232.209 522.149C232.367 522.228 232.605 522.387 232.763 522.545C232.843 522.624 232.922 522.704 233.001 522.783C233.08 522.862 233.16 522.941 233.16 522.941L237.201 521.515C237.518 519.138 237.914 516.76 238.31 514.383L238.469 513.828L238.073 512.957C237.201 511.293 236.329 509.549 235.458 507.885L234.11 505.35L232.684 502.893C231.733 501.229 230.782 499.644 229.752 497.98C228.722 496.395 227.771 494.731 226.741 493.146L226.979 494.89C227.613 491.403 228.326 487.996 228.96 484.509L229.911 479.279C230.228 477.536 230.465 475.792 230.782 474.049L230.861 473.732V473.573C230.465 471.513 229.99 469.374 229.594 467.313C229.118 465.253 228.643 463.114 228.167 461.053L227.533 461.132Z" fill="#2F2873"/>
<path d="M256.852 507.806C256.376 509.233 255.901 510.659 255.504 512.085L254.237 516.365L252.969 520.644L251.78 524.923L252.493 523.655C251.067 524.764 249.561 525.715 248.135 526.745C247.422 527.3 246.709 527.855 246.075 528.409C245.441 529.043 244.807 529.677 244.252 530.39L245.282 529.836C245.441 529.836 245.361 529.836 245.282 529.836C245.282 529.836 245.203 529.836 245.203 529.915C245.124 529.915 245.044 529.994 244.886 529.994C244.648 530.073 244.411 530.153 244.173 530.153C243.618 530.232 243.063 530.311 242.429 530.39C241.796 530.47 241.162 530.47 240.528 530.47C240.211 530.47 239.814 530.47 239.498 530.47C239.181 530.47 238.784 530.47 238.388 530.47L238.15 530.945C238.626 531.579 239.101 532.134 239.735 532.609C240.29 533.085 240.924 533.56 241.637 533.877C242.35 534.194 243.063 534.511 243.856 534.749C244.252 534.828 244.648 534.907 245.124 534.986C245.361 534.986 245.599 534.986 245.837 534.986C245.995 534.986 246.075 534.986 246.233 534.986C246.392 534.986 246.471 534.986 246.788 534.907L247.105 534.828L247.818 534.353C248.531 533.877 249.244 533.322 249.957 532.768C250.671 532.213 251.305 531.579 251.859 530.866C253.048 529.519 254.157 528.172 255.425 526.825L256.059 526.191L256.138 525.636L256.535 521.198L256.852 516.761L257.169 512.323C257.248 510.818 257.327 509.312 257.406 507.886L256.852 507.806Z" fill="#2F2873"/>
<path d="M262.399 509.47C261.686 512.323 261.131 515.176 260.576 518.108L259.705 522.387C259.467 523.813 259.229 525.239 258.912 526.745L259.546 525.398C258.278 526.507 256.931 527.537 255.584 528.568C254.237 529.598 253.048 530.786 251.939 532.054L252.494 531.658C252.573 531.658 252.494 531.658 252.494 531.658C252.494 531.658 252.494 531.658 252.414 531.737C252.414 531.737 252.335 531.817 252.256 531.817C252.177 531.896 252.018 531.975 251.939 531.975C251.701 532.133 251.464 532.213 251.226 532.371C250.75 532.609 250.196 532.767 249.562 532.926C248.928 533.005 248.294 533.164 247.581 533.164C246.868 533.243 246.075 533.084 245.283 533.084L244.966 533.56C245.362 534.352 245.996 534.986 246.709 535.541C247.422 536.096 248.294 536.571 249.166 536.888C250.116 537.205 251.067 537.284 252.098 537.284C252.573 537.284 253.128 537.205 253.603 537.126C253.841 537.046 254.079 536.967 254.396 536.888C254.554 536.888 254.633 536.809 254.792 536.73L255.029 536.65C255.109 536.65 255.188 536.571 255.346 536.492L255.901 536.016C257.248 534.986 258.358 533.718 259.388 532.371C260.418 531.024 261.448 529.677 262.557 528.409L263.191 527.696V527.062C263.191 525.636 263.191 524.13 263.191 522.704L263.112 518.266C263.033 515.334 263.033 512.402 262.874 509.47H262.399Z" fill="#2F2873"/>
<path d="M227.691 476.585L228.959 472.623L228.8 466.362L186.406 380.147C187.515 377.215 189.972 369.608 189.338 363.348C188.545 356.057 189.417 312.157 192.428 300.112L187.04 298.765C183.712 311.92 182.999 356.85 183.791 363.902C184.504 370.242 180.859 379.117 180.78 379.196L180.304 380.385L180.859 381.494L227.691 476.585Z" fill="#2F2873"/>
<path d="M221.59 287.989C211.289 290.841 195.203 296.547 182.207 307.007C182.207 307.007 210.734 270.555 248.77 280.064C248.77 280.064 250.355 289.573 231.337 300.667L231.813 291.396C229.832 290.524 225.552 288.702 221.59 287.989Z" fill="#2F2873"/>
<path d="M147.182 419.689C157.721 419.689 166.834 416.361 173.411 410.101L174.282 409.308L175.867 206.528L174.045 205.815C173.094 205.418 149.955 196.86 127.926 203.358L125.945 203.992L128.322 416.361L130.144 416.995C130.382 417.074 136.801 419.293 145.2 419.61C145.914 419.689 146.548 419.689 147.182 419.689ZM168.735 406.773C156.691 417.233 139.416 413.746 133.869 412.24L131.571 208.033C147.895 203.992 164.853 208.509 170.32 210.252L168.735 406.773Z" fill="#2F2873"/>
<path d="M41.9478 327.372L47.4947 327.134C44.0081 247.02 44.2458 194.007 44.3251 182.834C78.7161 175.306 124.518 185.607 124.914 185.687L161.603 193.928V204.388H167.15V189.49L126.182 180.298C125.707 180.219 113.741 177.445 97.2588 175.781C74.9918 173.483 56.0529 174.276 40.9177 177.921L38.8573 178.396V180.536C38.7781 181.17 38.0649 237.194 41.9478 327.372Z" fill="#2F2873"/>
<path d="M119.764 179.427C118.971 183.864 118.575 179.585 118.179 184.023C117.862 188.46 117.624 192.898 117.466 197.336C117.307 201.773 117.386 206.211 117.624 210.569C117.862 215.007 118.1 219.444 118.258 223.802L118.734 237.036L119.288 250.269C119.764 259.144 120.081 267.94 120.556 276.815H121.111C121.507 267.94 121.745 259.144 121.982 250.269L122.379 236.957L122.616 223.644C122.696 219.206 122.854 214.769 123.013 210.331C123.171 205.894 123.171 201.456 122.933 197.019C122.775 192.581 122.458 188.143 121.982 183.785C121.507 179.348 121.032 183.627 120.239 179.268L119.764 179.427Z" fill="#2F2873"/>
<path d="M91.2358 320.478H112.473V263.027L96.3072 253.201L52.2486 248.843V251.933C52.2486 253.518 52.2486 291.079 53.8335 306.135L53.9127 307.165L54.7051 307.878C55.0221 308.195 62.7086 314.772 90.8396 320.398L91.2358 320.478ZM106.926 314.931H91.7112C70.4743 310.652 61.6784 305.897 59.2219 304.312C58.0333 291.396 57.7956 264.136 57.7956 255.024L94.4847 258.59L106.846 266.197V314.931H106.926Z" fill="#2F2873"/>
<path d="M108.115 401.305H110.968L110.096 353.76L36.0839 326.817L35.0538 329.195C34.6576 330.146 25.1486 352.888 39.0952 379.117L39.4914 379.83L40.1253 380.227C41.5517 381.177 75.2296 401.305 108.115 401.305ZM104.549 357.722L105.262 395.758C77.2107 394.728 48.2872 378.721 43.6119 376.027C33.9444 357.246 37.4311 340.209 39.2536 334.028L104.549 357.722Z" fill="#2F2873"/>
<path d="M108.114 401.305C118.099 401.305 120.159 399.641 120.872 398.214L121.189 397.58L120.397 345.835L56.0524 322.697L36.2419 326.817L37.3513 332.285L55.577 328.481L114.85 349.797L115.563 395.203C114.454 395.441 112.235 395.758 108.035 395.758V401.305H108.114Z" fill="#2F2873"/>
<path d="M92.662 257.877H98.209V316.912H92.662V257.877Z" fill="#2F2873"/>
<path d="M120.794 396.154L108.194 396.788L106.53 353.363L38.3821 330.383L58.1926 325.628L117.624 349.401L120.794 396.154Z" fill="#2F2873"/>
<path d="M111.681 266.593L96.6247 258.669V315.723H108.511L111.681 266.593Z" fill="#2F2873"/>
<path d="M40.7743 379.741L46.3213 379.791L46.2483 387.873L40.7014 387.823L40.7743 379.741Z" fill="#2F2873"/>
<path d="M98.2099 258.352L103.757 258.272C103.757 257.876 103.519 247.813 100.112 237.67C95.4364 223.485 86.9575 216.036 75.7051 215.957C74.7542 215.878 70.6336 215.957 66.3545 219.682C59.9359 225.308 56.37 236.322 55.8153 252.329L61.3623 252.488C61.9962 234.817 66.2753 227.21 69.8412 224.04C72.7732 221.346 75.3089 221.504 75.4674 221.504H75.6259H75.7051C97.259 221.425 98.2099 257.956 98.2099 258.352Z" fill="#2F2873"/>
<path d="M40.9963 204.864L30.4571 205.973C30.4571 205.973 31.2496 309.78 36.0041 328.006L44.166 325.708L40.9963 204.864Z" fill="#2F2873"/>
<path d="M44.3248 379.909C52.249 391.796 101.379 403.682 128.321 405.267C130.699 405.425 129.827 404.633 132.284 404.474C132.997 404.395 137.117 413.27 137.831 413.191C138.544 413.112 135.533 402.731 136.246 402.889C149.717 405.267 164.535 398.69 165.565 392.588C165.645 392.033 168.735 408.436 168.735 408.436L170.32 391.796L173.489 209.539L166.358 206.369V196.067C179.036 194.483 188.546 170.71 202.017 172.295C215.488 173.88 216.28 180.219 216.28 180.219C245.6 203.199 248.77 280.064 248.77 280.064C213.111 276.894 189.021 300.984 189.021 300.984L186.168 364.853L182.999 381.494L226.582 471.83C226.582 471.83 217.865 462.321 209.941 470.245C202.017 478.169 191.715 467.076 191.715 467.076C191.715 466.996 191.794 466.838 191.794 466.759C193.855 462.638 195.123 457.963 195.123 453.05C195.123 436.33 181.572 422.779 164.852 422.779C157.403 422.779 150.509 425.473 145.279 429.99C136.008 430.624 127.529 430.624 127.529 430.624L41.1551 393.38C38.7778 387.041 44.3248 379.909 44.3248 379.909Z" fill="#2F2873"/>
<path d="M164.773 479.913C149.893 479.913 137.83 467.85 137.83 452.97C137.83 438.091 149.893 426.028 164.773 426.028C179.652 426.028 191.715 438.091 191.715 452.97C191.715 467.85 179.652 479.913 164.773 479.913Z" fill="#2F2873"/>
<path d="M153.997 477.457L156.532 472.544C156.215 472.385 128.322 457.805 100.112 442.035C47.9705 412.795 41.9481 405.822 41.3934 404.316C40.3633 401.305 40.2048 398.928 41.1557 397.105C42.1858 395.045 44.3254 394.411 44.3254 394.411L42.8197 389.102C42.3443 389.26 38.3822 390.449 36.2427 394.49C34.5786 397.66 34.5786 401.622 36.1634 406.139C37.0351 408.516 39.0162 414.063 97.1799 446.631C125.469 462.559 153.68 477.298 153.997 477.457Z" fill="#2F2873"/>
<path d="M105.897 452.019L109.066 447.503C105.897 445.284 104.233 442.669 104.074 439.499C103.519 431.733 111.919 422.224 115.168 419.213L111.444 415.172C110.889 415.647 97.8139 427.93 98.6063 439.895C98.8441 444.729 101.38 448.85 105.897 452.019Z" fill="#2F2873"/>
<path d="M66.2746 428.643L68.8896 424.285C65.4821 422.225 63.9766 419.451 63.8973 416.678C63.5803 410.18 71.7423 402.414 74.9912 399.958L71.5838 395.52C71.0291 395.916 57.7957 406.218 58.3504 416.916C58.5881 421.591 61.2031 425.553 66.2746 428.643Z" fill="#2F2873"/>
<path d="M164.377 194.007C164.774 193.69 174.917 186.717 183.712 178.713C191.003 172.136 195.519 169.363 205.504 172.929C214.538 176.178 214.775 184.26 214.775 184.577H220.322C220.322 184.102 220.164 172.295 207.406 167.699C194.252 163.024 187.754 167.62 180.067 174.593C171.588 182.279 161.445 189.332 161.366 189.411L164.377 194.007Z" fill="#2F2873"/>
<path d="M139.415 188.936C142.188 188.54 146.547 185.845 154.075 181.091C162.078 176.019 172.062 169.601 178.402 168.333C189.258 166.193 202.729 172.057 202.888 172.136L205.106 167.065C204.473 166.827 189.892 160.409 177.292 162.944C169.923 164.45 159.859 170.789 151.063 176.416C146.071 179.585 140.366 183.23 138.622 183.468L139.415 188.936Z" fill="#2F2873"/>
<path d="M161.207 188.54L149.321 181.408L144.566 185.37L161.207 188.54Z" fill="#2F2873"/>
<path d="M182.999 163.578L165.566 156.446L152.887 161.201L134.661 158.031C134.661 158.031 133.869 154.069 129.114 154.862C124.36 155.654 105.342 165.163 99.0023 177.049L142.586 186.558L182.999 163.578Z" fill="#2F2873"/>
<path d="M232.128 399.72L232.921 365.646L228.246 323.568L222.619 356.137L232.128 399.72Z" fill="#2F2873"/>
<path d="M135.375 162.706L145.677 155.812L151.778 136.636L151.541 135.843C151.461 135.685 147.262 120.153 143.854 102.562C138.228 73.559 139.1 61.3557 140.764 56.2842C146.548 39.1679 166.914 27.3608 185.298 30.4513C203.127 33.3833 224.364 56.3635 225.394 81.6417L222.225 92.8149L222.304 93.3696C222.938 100.184 223.651 119.202 219.53 125.7C216.915 129.821 217.074 135.209 217.312 140.439C217.629 149.156 217.312 152.563 212.002 153.356C210.814 153.197 207.169 152.801 203.207 152.88C195.995 153.039 191.637 154.703 189.735 157.952L194.569 160.725C195.916 158.427 204.554 157.952 211.606 158.903L211.923 158.982H212.24C223.492 157.714 223.096 147.65 222.859 140.36C222.7 136.002 222.542 131.485 224.206 128.791C226.821 124.749 228.168 117.38 228.326 106.999C228.406 100.66 228.009 95.1921 227.851 93.4488L231.021 82.4341V82.0379C230.149 53.59 206.693 28.4702 186.328 25.1421C176.502 23.478 165.408 25.6175 155.978 31.006C146.152 36.6322 138.941 45.0318 135.692 54.6994C129.511 73.3213 144.092 129.029 146.152 136.715L141.16 152.405L132.443 158.19L135.375 162.706Z" fill="#2F2873"/>
<path d="M228.801 86.7134C228.801 86.7134 230.782 92.2603 227.771 98.5997C224.522 105.415 228.801 86.7134 228.801 86.7134Z" fill="#2F2873"/>
<path d="M225.789 87.5059L222.62 119.995L225.789 121.58C233.714 118.41 232.921 115.241 231.336 112.071C229.751 108.901 228.959 104.147 227.374 102.562C225.789 100.977 226.582 98.5998 226.582 98.5998L228.167 89.8831L225.789 87.5059Z" fill="#2F2873"/>
<path d="M191.557 167.144C192.428 166.51 192.983 165.797 193.458 165.084C193.934 164.371 194.251 163.658 194.489 162.944C194.726 162.231 194.806 161.518 194.647 160.726C194.568 160.012 194.33 159.22 194.33 158.507L194.172 156.288L193.934 154.069C193.696 152.564 193.538 151.137 193.221 149.632L192.666 149.552C192.111 150.979 191.636 152.405 191.16 153.832L190.526 155.971L189.972 158.111C189.813 158.824 189.496 159.537 189.259 160.25C189.021 160.963 188.942 161.677 189.021 162.39C189.1 163.103 189.338 163.895 189.655 164.608C189.972 165.401 190.368 166.114 191.16 166.907L191.557 167.144Z" fill="#2F2873"/>
<path d="M212.794 156.367C213.983 156.05 215.013 155.496 216.043 154.703C216.519 154.307 217.074 153.752 217.39 153.039C217.549 152.643 217.707 152.247 217.787 151.692C217.866 151.217 217.787 150.583 217.549 150.107C217.153 149.077 216.519 148.364 215.885 147.888C215.251 147.413 214.617 147.017 214.062 146.779C212.874 146.224 211.685 145.828 210.496 145.59C210.179 145.511 209.942 145.432 209.625 145.432L208.832 145.273L207.327 145.036L204.316 144.481C202.334 144.164 200.274 143.689 198.293 143.055C196.312 142.421 194.331 141.628 192.508 140.677C190.607 139.806 188.784 138.776 187.041 137.587C185.297 136.478 183.633 135.13 182.207 133.625C181.494 132.832 180.86 132.04 180.305 131.168C179.75 130.297 179.275 129.346 179.037 128.316L178.483 128.395C178.641 130.614 179.592 132.832 180.86 134.734C182.128 136.636 183.633 138.3 185.377 139.806C188.784 142.817 192.588 145.273 196.708 147.175C198.769 148.126 200.829 149.077 203.048 149.87C204.157 150.266 205.266 150.503 206.455 150.741C207.01 150.82 207.644 150.9 208.198 150.979C208.515 150.979 208.753 151.058 208.991 151.058L209.704 151.137C210.655 151.217 211.606 151.296 212.477 151.454C212.874 151.534 213.27 151.613 213.587 151.692C213.904 151.771 214.062 151.851 214.142 151.851C214.221 151.771 214.379 151.851 214.379 152.088C214.379 152.405 214.3 152.801 214.142 153.198C213.825 154.069 213.191 155.02 212.557 155.971L212.794 156.367Z" fill="#2F2873"/>
<path d="M177.611 102.562C176.422 103.434 175.154 104.384 173.965 105.098C173.331 105.494 172.777 105.811 172.143 106.128C171.588 106.445 170.954 106.603 170.558 106.682C170.479 106.682 170.399 106.682 170.32 106.682C170.241 106.682 170.241 106.603 170.241 106.524C170.241 106.445 170.32 106.445 170.399 106.366C170.479 106.366 170.558 106.366 170.716 106.366C170.796 106.445 170.875 106.366 170.954 106.445C170.954 106.445 171.033 106.445 170.954 106.445C170.954 106.366 170.875 106.366 170.875 106.286C170.796 106.207 170.796 106.128 170.716 106.049C170.637 105.969 170.558 105.89 170.479 105.732L170.241 105.415C170.083 105.098 169.845 104.86 169.607 104.543C169.132 103.909 168.656 103.275 167.864 102.483H167.309C166.517 103.196 166.041 104.068 165.724 104.86C165.566 105.256 165.486 105.732 165.407 106.207C165.407 106.683 165.328 107.158 165.486 107.713C165.566 107.95 165.566 108.267 165.724 108.505C165.803 108.822 165.962 109.06 166.12 109.377C166.358 109.694 166.517 109.931 166.834 110.248C167.151 110.565 167.468 110.803 167.864 110.962C168.656 111.437 169.686 111.516 170.399 111.358C171.113 111.199 171.747 110.962 172.222 110.724C174.124 109.694 175.075 108.347 175.946 106.999C176.818 105.652 177.531 104.305 178.086 102.8L177.611 102.562Z" fill="#2F2873"/>
<path d="M180.463 86.1587C180.304 85.3662 180.067 84.7323 179.75 84.0191C179.433 83.3852 179.037 82.7512 178.403 82.1965C178.086 81.8796 177.769 81.6419 177.293 81.4041C176.818 81.1664 176.263 80.8494 175.233 80.9287C174.995 80.9287 174.678 81.0079 174.441 81.0872C174.124 81.1664 173.886 81.3249 173.569 81.4834C173.331 81.6419 173.014 81.8796 172.856 82.0381C172.776 82.1173 172.697 82.2758 172.539 82.355C172.459 82.4343 172.38 82.5928 172.301 82.672C172.222 82.7512 172.142 82.9097 172.142 82.989L171.984 83.2267C171.905 83.3852 171.825 83.6229 171.746 83.7814L171.588 84.2568L171.509 84.4153C171.192 85.2077 171.033 86.3964 170.795 87.6643C170.716 88.2982 170.558 88.9321 170.558 89.5661C170.558 90.2792 170.637 90.9924 170.716 91.7056C170.795 92.4188 170.954 93.132 171.112 93.9244C171.192 94.3206 171.35 94.7168 171.588 95.1923C171.826 95.5885 172.301 95.9054 172.697 96.1432C173.173 96.3809 173.331 96.4601 173.331 96.6186C173.331 96.6979 173.252 96.6979 173.014 96.6186C172.856 96.5394 172.697 96.3017 172.697 96.1432C172.618 95.9054 172.459 95.9847 172.222 96.0639C172.063 96.1432 171.826 96.3017 171.588 96.4601C171.192 96.7771 170.795 97.2526 170.399 97.8073C170.241 98.1242 170.003 98.4412 169.765 98.8374C169.686 99.0751 169.528 99.3129 169.448 99.7091C169.369 99.9468 169.369 100.185 169.29 100.501C169.29 100.818 169.369 101.373 169.607 101.849C169.686 101.769 169.844 101.928 170.003 102.166C170.082 102.324 170.161 102.483 170.32 102.72C170.478 102.958 170.637 103.354 171.192 103.75C171.509 103.988 171.905 104.067 172.222 104.067C172.539 104.067 172.697 103.988 172.856 103.909C173.173 103.75 173.331 103.592 173.41 103.354C173.648 102.958 173.807 102.641 173.886 102.245L173.569 101.769C173.173 101.69 172.776 101.769 172.539 101.69C172.38 101.69 172.301 101.611 172.301 101.532C172.301 101.452 172.38 101.452 172.539 101.373C172.697 101.373 172.935 101.373 173.093 101.532C173.49 101.769 173.49 101.849 173.569 101.769C173.648 101.69 173.648 101.611 173.648 101.452C173.648 101.135 173.727 100.66 173.49 100.026C173.727 100.343 173.727 100.739 173.727 100.898C173.727 101.135 173.727 101.215 173.727 101.294C173.727 101.373 173.727 101.373 173.807 101.373C173.886 101.294 174.124 101.135 174.282 100.898C174.678 100.501 175.074 100.026 175.391 99.3921C175.55 99.0751 175.708 98.6789 175.788 98.2035C175.867 97.728 176.025 97.2526 175.946 96.3809C175.867 95.9847 175.708 95.43 175.391 95.0338C175.074 94.6376 174.678 94.4791 174.361 94.4791C173.807 94.3206 173.331 94.3998 173.252 94.4791C172.935 94.5583 172.776 94.3206 172.856 93.9244C172.935 93.4489 173.173 92.9735 173.569 92.498C173.965 92.0226 174.361 91.5471 174.757 91.0717C175.154 90.5962 175.391 90.0415 175.708 89.5661C176.342 88.4567 176.976 87.4265 177.214 85.7624V85.4455C177.214 85.3662 177.214 85.4455 177.214 85.4455C177.214 85.4455 177.214 85.5247 177.135 85.5247C177.135 85.5247 177.135 85.604 177.055 85.604L176.976 85.6832L176.897 85.7624C176.818 85.8417 176.818 85.8417 176.739 85.9209C176.659 86.0002 176.501 86.0794 176.342 86.1587C176.184 86.2379 176.025 86.3171 175.946 86.3171C175.788 86.3171 175.708 86.3964 175.55 86.3964C175.154 86.3964 175.154 86.2379 175.312 86.1587C175.391 86.0794 175.629 86.0794 175.867 86.1587C176.342 86.1587 176.976 86.3171 177.61 86.3964C178.244 86.5549 178.878 86.6341 179.67 86.7133L180.463 86.1587Z" fill="#2F2873"/>
<path d="M218.657 51.0543C218.657 51.0543 204.79 88.6943 181.81 79.9777C158.829 71.261 177.689 113.418 146.864 129.979C146.864 129.979 121.586 53.0353 154.471 37.5831C187.357 22.1309 184.108 19.9914 218.657 51.0543Z" fill="#2F2873"/>
<path d="M129.662 40.9923C123.683 34.0131 126.245 22.0077 135.384 14.1777C144.524 6.34757 156.78 5.65784 162.759 12.6371C168.739 19.6164 166.177 31.6217 157.037 39.4518C147.898 47.2819 135.642 47.9716 129.662 40.9923Z" fill="#2F2873"/>
<path d="M224.204 90.6755C224.204 90.6755 219.45 91.468 218.657 92.2604C218.657 92.2604 221.827 96.2225 224.204 96.2225V90.6755Z" fill="#2F2873"/>
<path d="M228.325 85.6831C228.167 84.653 227.691 84.0191 227.137 83.5436C226.582 82.9889 225.948 82.6719 225.314 82.5135C224.997 82.4342 224.68 82.355 224.363 82.355C224.046 82.355 223.729 82.4342 223.412 82.5135C222.778 82.7512 222.224 83.0682 221.669 83.3059C221.114 83.5436 220.559 83.7813 220.084 84.0983C219.609 84.4153 219.133 84.7322 218.658 85.0492C218.182 85.4454 217.786 85.7624 217.311 86.1586C216.914 86.5548 216.518 86.951 216.122 87.3472L216.36 87.8227C216.914 87.8227 217.469 87.7434 217.944 87.7434L219.529 87.6642C220.005 87.6642 220.559 87.6642 221.035 87.6642C221.51 87.6642 221.986 87.6642 222.461 87.7434C222.937 87.7434 223.412 87.9812 223.808 88.0604C224.205 88.2189 224.601 88.2189 224.997 88.0604C225.789 87.7434 226.503 87.1888 228.008 86.2378L228.325 85.6831Z" fill="#2F2873"/>
<path d="M221.432 123.561L215.885 129.108C215.885 129.108 217.153 131.247 218.896 132.119L221.432 123.561Z" fill="#2F2873"/>
<path d="M224.205 127.127C224.205 127.127 224.997 133.466 221.035 135.844L224.205 127.127Z" fill="#2F2873"/>
<path d="M89.4932 740.461C89.4932 740.461 82.3614 748.385 85.5311 755.517C88.7007 762.649 86.3235 765.026 86.3235 765.026C86.3235 765.026 71.2675 783.252 62.5508 771.366C53.8342 759.479 52.2494 758.687 53.0418 752.347C53.8342 746.008 60.1736 740.461 59.3811 738.084C58.5887 735.707 89.4932 740.461 89.4932 740.461Z" fill="#2F2873"/>
<path d="M66.195 807.817C73.723 807.817 82.2812 806.866 91.077 804.172C102.092 800.764 111.918 799.893 119.763 799.18C130.223 798.308 138.464 797.515 143.218 791.255C143.773 790.463 144.407 789.671 144.962 788.957C151.856 779.924 160.414 768.751 149.241 757.577L148.845 757.181L148.29 756.944C144.486 755.438 132.362 751 126.181 754.17L117.465 752.189L95.1976 737.846L94.6429 737.767C94.0882 737.688 89.2545 737.054 85.4509 740.382C82.5981 742.838 81.1718 746.563 81.1718 751.634C81.1718 761.619 90.4431 768.751 106.529 771.049C111.205 771.683 113.978 773.664 113.978 773.664L115.087 774.456L116.355 774.139C117.465 773.822 126.974 771.128 129.589 764.789C130.143 763.362 130.619 761.302 129.826 758.845C132.679 758.37 138.86 759.321 145.754 762.015C152.41 769.068 148.211 775.724 140.603 785.708C139.969 786.501 139.415 787.293 138.781 788.086C135.532 792.365 128.717 792.999 119.287 793.791C111.125 794.504 100.982 795.376 89.413 799.021C68.493 805.598 48.3655 800.844 43.2148 799.417L37.6678 784.203C40.4413 775.09 45.1166 760.589 46.6222 757.974C47.6524 756.23 52.0107 755.359 54.5464 755.359H56.369L57.0821 753.615L63.0253 738.956L57.8746 736.895L52.5654 749.891C49.6334 750.129 44.1657 751.238 41.7884 755.121C39.3319 759.242 32.7548 781.033 31.9624 783.49L31.7247 784.361L38.8564 803.934L40.1244 804.33C40.9168 804.33 51.6144 807.817 66.195 807.817ZM124.2 759.4C124.993 760.985 124.755 761.936 124.517 762.57C123.408 765.343 118.653 767.483 116.038 768.354C114.453 767.483 111.442 766.056 107.322 765.502C101.141 764.63 86.7187 761.46 86.7187 751.634C86.7187 748.306 87.5111 745.929 89.096 744.582C90.5223 743.314 92.5034 743.235 93.3751 743.235L115.404 757.419L124.2 759.4Z" fill="#2F2873"/>
<path d="M64.6105 796.247C68.1764 796.247 72.0593 795.851 76.1799 795.138C111.126 788.798 112.235 788.878 126.261 789.67C142.03 790.542 153.203 771.682 153.679 770.89L148.924 768.116C148.845 768.275 139.019 784.836 126.578 784.202C111.918 783.41 109.937 783.489 75.229 789.829C63.4219 791.968 54.3091 790.779 48.2867 786.263C42.1058 781.667 41.2341 775.089 41.2341 774.773L35.6871 775.327C35.6871 775.723 36.7173 784.44 44.8 790.542C49.8715 794.266 56.5278 796.247 64.6105 796.247Z" fill="#2F2873"/>
<path d="M131.729 781.667C132.6 781.667 133.551 781.588 134.423 781.429C145.834 779.765 152.728 767.72 153.045 767.166L148.211 764.471C148.132 764.551 142.347 774.694 133.631 775.962C128.876 776.675 123.884 774.535 118.812 769.701L115.009 773.664C120.397 779.052 126.023 781.667 131.729 781.667Z" fill="#2F2873"/>
<path d="M55.8144 783.093C60.0935 783.173 64.214 782.935 68.3346 782.776C72.376 782.697 76.4173 782.539 79.9832 783.093C80.9341 783.252 81.4096 783.41 82.9152 783.727C83.5491 783.886 84.1831 783.886 84.8963 783.965C85.5302 784.044 86.2434 783.965 86.8773 783.886C89.5715 783.49 92.028 782.063 93.6129 780.003C95.1977 777.943 95.9901 775.407 95.8317 773.03C95.7524 772.396 95.6732 771.841 95.5147 771.286C95.2769 770.732 95.1185 770.177 94.8807 769.701C94.5638 769.226 94.3261 768.751 94.0091 768.275C93.6129 767.879 93.2959 767.403 92.8997 767.086C93.4544 769.147 93.5336 771.207 93.0582 772.95C92.5827 774.694 91.6318 776.12 90.3639 777.15L90.1262 777.388L89.8885 777.546L89.4131 777.863C89.0961 778.022 88.6998 778.18 88.3829 778.339C87.9867 778.418 87.6697 778.577 87.2735 778.656L86.7188 778.735L86.4811 778.814H86.1641C84.5793 778.894 83.5491 778.418 80.7757 777.863C78.3984 777.467 76.1796 777.546 74.0401 777.705C71.8213 777.863 69.761 778.26 67.6215 778.735C63.5801 779.527 59.5388 780.875 55.8144 783.093Z" fill="#2F2873"/>
<path d="M245.52 798.625C249.719 797.832 253.761 796.881 257.723 795.93C261.685 795.059 265.647 794.108 269.213 793.949C270.164 793.949 270.719 793.949 272.224 794.029C272.858 794.029 273.571 793.949 274.205 793.87C274.839 793.791 275.473 793.553 276.107 793.395C278.643 792.523 280.782 790.621 281.971 788.323C283.16 786.025 283.397 783.331 282.763 781.033C282.605 780.478 282.367 779.923 282.129 779.369C281.813 778.893 281.575 778.339 281.258 777.863C280.862 777.467 280.545 776.992 280.148 776.595C279.673 776.278 279.277 775.882 278.881 775.565C279.831 777.546 280.307 779.448 280.148 781.271C279.99 783.093 279.356 784.678 278.326 785.867L278.167 786.104L277.93 786.342L277.533 786.738C277.216 786.976 276.899 787.214 276.662 787.452C276.345 787.61 276.028 787.848 275.632 787.927L275.077 788.085L274.839 788.165L274.601 788.244C273.096 788.64 271.986 788.323 269.134 788.323C266.757 788.402 264.617 788.878 262.477 789.433C260.338 790.066 258.357 790.78 256.376 791.651C252.493 793.632 248.769 795.772 245.52 798.625Z" fill="#2F2873"/>
<path d="M56.4492 777.229C57.3209 775.09 57.7171 773.029 57.8755 771.048C58.034 768.988 57.9548 767.007 57.7171 765.026C57.4794 763.045 57.0039 761.064 56.37 759.162C55.6568 757.26 54.8644 755.358 53.438 753.536C52.5663 755.675 52.1701 757.736 52.0117 759.717C51.8532 761.777 51.9324 763.758 52.1701 765.739C52.4079 767.72 52.8833 769.622 53.5172 771.603C54.2304 773.505 55.0228 775.407 56.4492 777.229Z" fill="#2F2873"/>
<path d="M225.234 794.663C226.106 792.523 226.502 790.463 226.661 788.482C226.819 786.421 226.74 784.44 226.502 782.459C226.264 780.478 225.789 778.497 225.155 776.595C224.442 774.694 223.65 772.792 222.223 770.969C221.351 773.109 220.955 775.169 220.797 777.15C220.638 779.21 220.718 781.191 220.955 783.173C221.193 785.154 221.668 787.055 222.302 789.036C223.016 790.938 223.808 792.84 225.234 794.663Z" fill="#2F2873"/>
<path d="M146.548 777.705L138.624 793.553L83.9466 802.27L42.7406 803.459L35.9258 780.161L53.0421 790.384L94.248 791.968L141.001 782.459L146.548 777.705Z" fill="#2F2873"/>
<path d="M111.84 751.872C111.998 752.664 112.077 753.457 112.236 754.249C112.394 755.042 112.553 755.755 112.711 756.547C112.87 757.34 113.028 758.053 113.187 758.845C113.345 759.638 113.583 760.351 113.741 761.143L114.138 758.924C113.424 759.558 112.711 760.113 111.919 760.668C111.126 761.222 110.413 761.777 109.938 762.57C109.462 763.362 108.987 764.154 108.67 765.105C108.353 766.056 108.115 767.086 108.194 768.354L108.591 768.75C109.858 768.671 110.809 768.275 111.76 767.879C112.632 767.483 113.424 766.928 114.138 766.373C114.851 765.739 115.326 765.026 115.802 764.154C116.277 763.283 116.753 762.57 117.228 761.777L118.1 760.43L117.545 759.558C117.149 758.924 116.753 758.211 116.277 757.577C115.881 756.943 115.405 756.23 115.009 755.596C114.534 754.962 114.138 754.328 113.662 753.615C113.187 752.981 112.711 752.347 112.236 751.713L111.84 751.872Z" fill="#2F2873"/>
<path d="M104.708 749.495C104.866 750.287 104.945 751.08 105.104 751.872C105.262 752.664 105.421 753.378 105.579 754.17C105.738 754.962 105.896 755.676 106.055 756.468C106.213 757.26 106.451 757.974 106.609 758.766L107.006 756.547C106.292 757.181 105.579 757.736 104.787 758.291C103.994 758.845 103.281 759.4 102.806 760.192C102.33 760.985 101.855 761.777 101.538 762.728C101.221 763.679 100.983 764.709 101.063 765.977L101.459 766.373C102.727 766.294 103.677 765.898 104.628 765.502C105.5 765.105 106.292 764.551 107.006 763.996C107.719 763.362 108.194 762.649 108.67 761.777C109.145 760.906 109.621 760.192 110.096 759.4L110.968 758.053L110.413 757.181C110.017 756.547 109.621 755.834 109.145 755.2C108.749 754.566 108.274 753.853 107.877 753.219C107.402 752.585 107.006 751.951 106.53 751.238C106.055 750.604 105.579 749.97 105.104 749.336L104.708 749.495Z" fill="#2F2873"/>
<path d="M98.3678 746.325C98.5263 747.117 98.6056 747.91 98.764 748.702C98.9225 749.495 99.081 750.208 99.2395 751C99.398 751.793 99.5565 752.506 99.715 753.298C99.8734 754.091 100.111 754.804 100.27 755.596L100.666 753.378C99.9526 754.011 99.2395 754.566 98.4471 755.121C97.6546 755.676 96.9415 756.23 96.466 757.023C95.9905 757.815 95.5151 758.607 95.1981 759.558C94.8812 760.509 94.6434 761.539 94.7227 762.807L95.1189 763.204C96.3867 763.124 97.3377 762.728 98.2886 762.332C99.1602 761.936 99.9526 761.381 100.666 760.826C101.379 760.192 101.854 759.479 102.33 758.608C102.805 757.736 103.281 757.023 103.756 756.23L104.628 754.883L104.073 754.011C103.677 753.378 103.281 752.664 102.805 752.03C102.409 751.396 101.934 750.683 101.538 750.049C101.062 749.415 100.666 748.781 100.19 748.068C99.7149 747.434 99.2395 746.8 98.764 746.167L98.3678 746.325Z" fill="#2F2873"/>
<path d="M286.727 752.981C287.123 753.694 287.519 754.328 287.995 754.962C288.391 755.596 288.867 756.309 289.263 756.943C289.659 757.577 290.134 758.211 290.61 758.845C291.085 759.479 291.561 760.113 291.957 760.747L291.482 758.607C291.085 759.4 290.61 760.271 290.055 761.064C289.5 761.856 289.104 762.649 288.867 763.6C288.708 764.471 288.629 765.422 288.708 766.452C288.787 767.482 288.946 768.513 289.5 769.622L290.055 769.781C291.165 769.226 291.957 768.513 292.67 767.799C293.383 767.086 293.859 766.294 294.334 765.501C294.73 764.709 294.968 763.758 295.047 762.807C295.127 761.856 295.285 760.985 295.523 760.034L295.84 758.449L295.047 757.815C294.413 757.34 293.78 756.864 293.146 756.468C292.512 755.992 291.878 755.596 291.244 755.121C290.61 754.725 289.976 754.249 289.263 753.853C288.629 753.457 287.916 752.981 287.282 752.585L286.727 752.981Z" fill="#2F2873"/>
<path d="M279.278 753.457C279.674 754.17 280.07 754.804 280.546 755.438C280.942 756.072 281.417 756.785 281.814 757.419C282.21 758.053 282.685 758.687 283.161 759.321C283.636 759.955 284.112 760.589 284.508 761.222L284.032 759.083C283.636 759.875 283.161 760.747 282.606 761.539C282.051 762.332 281.655 763.124 281.417 764.075C281.259 764.947 281.18 765.898 281.259 766.928C281.338 767.958 281.497 768.988 282.051 770.098L282.606 770.256C283.715 769.701 284.508 768.988 285.221 768.275C285.934 767.562 286.41 766.769 286.885 765.977C287.281 765.185 287.519 764.234 287.598 763.283C287.677 762.332 287.836 761.46 288.074 760.509L288.391 758.924L287.598 758.291C286.964 757.815 286.33 757.34 285.696 756.943C285.062 756.468 284.429 756.072 283.795 755.596C283.161 755.2 282.527 754.725 281.814 754.328C281.18 753.932 280.466 753.457 279.832 753.061L279.278 753.457Z" fill="#2F2873"/>
<path d="M272.225 752.902C272.621 753.615 273.017 754.249 273.493 754.883C273.889 755.517 274.365 756.23 274.761 756.864C275.157 757.498 275.632 758.132 276.108 758.766C276.583 759.4 277.059 760.034 277.455 760.668L276.98 758.528C276.583 759.321 276.108 760.193 275.553 760.985C274.999 761.777 274.602 762.57 274.365 763.521C274.206 764.392 274.127 765.343 274.206 766.373C274.285 767.404 274.444 768.434 274.999 769.543L275.553 769.702C276.663 769.147 277.455 768.434 278.168 767.721C278.881 767.007 279.357 766.215 279.832 765.423C280.229 764.63 280.466 763.679 280.545 762.728C280.625 761.777 280.783 760.906 281.021 759.955L281.338 758.37L280.545 757.736C279.912 757.261 279.278 756.785 278.644 756.389C278.01 755.913 277.376 755.517 276.742 755.042C276.108 754.646 275.474 754.17 274.761 753.774C274.127 753.378 273.414 752.902 272.78 752.506L272.225 752.902Z" fill="#2F2873"/>
<path d="M260.261 761.46L264.223 768.592C264.223 768.592 244.412 792.364 237.28 790.78C230.149 789.195 222.224 778.101 222.224 778.101L221.432 770.969L260.261 761.46Z" fill="#2F2873"/>
<path d="M230.306 831.431C242.51 831.431 261.924 828.499 279.912 813.047C292.115 802.587 299.643 799.813 305.745 797.595C313.194 794.821 318.582 792.919 325.001 778.814C330.706 766.294 332.053 757.815 329.28 752.11C327.536 748.623 324.367 746.404 319.533 745.216C311.926 743.393 306.458 747.117 303.922 748.861C303.685 749.019 303.368 749.257 303.13 749.415C300.436 749.098 291.244 748.068 285.38 749.574C281.101 750.604 275.157 747.91 273.176 746.721L270.324 751.476C270.72 751.714 279.357 756.785 286.647 754.962C292.353 753.536 302.892 755.042 303.051 755.042H303.447C304.715 755.042 305.745 754.328 307.013 753.457C309.39 751.793 312.956 749.336 318.186 750.604C321.356 751.397 323.257 752.585 324.208 754.566C326.11 758.528 324.684 765.898 319.85 776.516C314.382 788.482 310.816 789.75 303.764 792.365C297.583 794.663 289.183 797.753 276.188 808.847C253.207 828.578 227.057 826.122 220.639 825.171L217.469 816.296L220.56 799.893L217.548 782.618L224.442 775.724L220.48 771.841L211.526 780.795L214.854 799.972L211.605 816.851L216.36 830.084L217.865 830.401C218.578 830.48 223.175 831.431 230.306 831.431Z" fill="#2F2873"/>
<path d="M231.019 823.032C242.826 823.032 256.931 818.99 265.093 812.809C270.165 808.926 288.073 795.772 304.714 790.225C311.371 788.007 317.472 781.113 322.781 769.781C326.585 761.619 328.645 754.249 328.725 753.932L323.336 752.506C321.197 760.351 313.431 781.429 302.971 784.995C286.013 790.622 268.501 803.221 261.765 808.372C251.86 815.9 233.476 818.99 223.57 816.692C220.48 815.979 218.34 814.79 217.627 813.285L212.635 815.741C214.14 818.832 217.389 820.971 222.302 822.081C224.917 822.715 227.929 823.032 231.019 823.032Z" fill="#2F2873"/>
<path d="M278.486 774.535C288.233 774.535 301.228 769.781 305.19 764.789C308.756 760.351 306.379 754.646 304.477 751.951L299.96 755.2L302.179 753.615L299.881 755.2C299.881 755.2 302.575 759.162 300.753 761.381C298.296 764.392 287.361 769.068 278.327 769.068C269.294 769.068 260.102 766.77 259.943 766.77L258.596 772.158C259.23 772.158 268.739 774.535 278.486 774.535Z" fill="#2F2873"/>
<path d="M322.861 766.215L307.805 786.976L241.876 820.496L216.677 819.307L220.718 829.529C220.718 829.529 251.702 833.095 272.225 815.9C292.749 798.704 323.653 798.704 322.861 766.215Z" fill="#2F2873"/>
<path d="M334.351 763.441C334.351 763.441 385.462 763.362 379.519 791.176C371.595 828.42 330.389 814.949 311.371 819.703C292.353 824.458 277.297 852.192 241.638 849.815C205.979 847.438 201.224 841.099 161.603 841.891C121.982 842.683 42.4231 870.022 22.9295 853.777C-33.3324 807.024 31.6461 787.214 31.6461 787.214L37.9855 805.44C37.9855 805.44 58.747 814.156 98.2096 804.647C130.382 796.881 139.415 805.44 152.094 782.459C154.63 777.943 157.641 772.95 155.264 764.234C155.264 764.234 172.697 753.932 180.621 761.856C188.229 769.464 196.47 779.29 209.941 780.875L213.903 799.893L209.941 815.741L215.488 830.797C215.488 830.797 243.54 844.823 278.882 815.741C314.541 786.421 314.541 810.987 334.351 763.441Z" fill="#2F2873"/>
</svg>
